<?xml version="1.0" standalone="no"?>
<!DOCTYPE svg PUBLIC "-//W3C//DTD SVG 1.1//EN" "http://www.w3.org/Graphics/SVG/1.1/DTD/svg11.dtd" >
<svg xmlns="http://www.w3.org/2000/svg" xmlns:xlink="http://www.w3.org/1999/xlink" version="1.1">
<metadata>
Created by FontForge 20170731 at Fri Mar 15 18:54:43 2019
 By Aleksey,,,
Copyright (c) 2019 by Adam Ladd. All rights reserved.
</metadata>
<defs>
<font id="Gopher-Regular" horiz-adv-x="0" >
  <font-face 
    font-family="Gopher"
    font-weight="400"
    font-stretch="normal"
    units-per-em="1000"
    panose-1="0 0 5 0 0 0 0 0 0 0"
    ascent="780"
    descent="-220"
    x-height="510"
    cap-height="690"
    bbox="-709 -263 1309 915"
    underline-thickness="60"
    underline-position="-280"
    unicode-range="U+0020-FB02"
  />
<missing-glyph horiz-adv-x="500" 
d="M410 780v-1000h-317v1000h317zM333 713h-165v-33h65v-37h-66v-33h166v33h-66v37h66v33zM267 584h-100v-104h166v34h-66v70zM233 550v-36h-33v36h33zM333 453h-166v-33h66v-37h-66v-33h100v70h66v33zM333 393h-33v-66h-133v-34h166v100zM333 271h-100v-56h34v23h33v-47
h-100v80h-33v-113h166v113zM333 98h-166v-113h166v113zM300 65v-47h-100v47h100zM333 -38h-166v-33h70l-70 -47v-33h166v33h-102l70 47h32v33z" />
    <glyph glyph-name="fi" unicode="fi" horiz-adv-x="588" 
d="M515 510v-510h-69v415h-230v-415h-69v415h-113v95h113v77q0 138 143 138h54v-94h-49q-79 0 -79 -64v-57h299zM481 720q27 0 45 -16t18 -39t-18 -38.5t-45 -15.5t-45 15.5t-18 38.5t18 39t45 16z" />
    <glyph glyph-name="fl" unicode="fl" horiz-adv-x="609" 
d="M147 587q0 138 143 138h77v-94h-72q-79 0 -79 -64v-57h151v-95h-151v-415h-69v415h-113v95h113v77zM468 720h68v-720h-68v720z" />
    <glyph glyph-name="f_f.liga" unicode="ff" horiz-adv-x="699" 
d="M600 631q-79 0 -79 -64v-57h151v-95h-151v-415h-68v415h-237v-415h-69v415h-113v95h113v77q0 138 143 138h69v-94h-64q-79 0 -79 -64v-57h237v77q0 138 142 138h77v-94h-72z" />
    <glyph glyph-name="f_f_i.liga" unicode="ffi" horiz-adv-x="893" 
d="M820 510v-510h-68v415h-231v-415h-68v415h-237v-415h-69v415h-113v95h113v77q0 138 143 138h69v-94h-64q-79 0 -79 -64v-57h237v77q0 138 142 138h54v-94h-49q-79 0 -79 -64v-57h299zM786 720q27 0 45 -16t18 -39t-18 -38.5t-45 -15.5t-45 15.5t-18 38.5t18 39t45 16z
" />
    <glyph glyph-name=".notdef" horiz-adv-x="500" 
d="M410 780v-1000h-317v1000h317zM333 713h-165v-33h65v-37h-66v-33h166v33h-66v37h66v33zM267 584h-100v-104h166v34h-66v70zM233 550v-36h-33v36h33zM333 453h-166v-33h66v-37h-66v-33h100v70h66v33zM333 393h-33v-66h-133v-34h166v100zM333 271h-100v-56h34v23h33v-47
h-100v80h-33v-113h166v113zM333 98h-166v-113h166v113zM300 65v-47h-100v47h100zM333 -38h-166v-33h70l-70 -47v-33h166v33h-102l70 47h32v33z" />
    <glyph glyph-name=".null" 
 />
    <glyph glyph-name="nonmarkingreturn" horiz-adv-x="333" 
 />
    <glyph glyph-name="space" unicode=" " horiz-adv-x="247" 
 />
    <glyph glyph-name="exclam" unicode="!" horiz-adv-x="250" 
d="M100 198l-11 322v170h73v-170l-12 -322h-50zM125 -7q-32 0 -52.5 19t-20.5 47t21 46.5t52 18.5t52 -18.5t21 -46.5t-20.5 -47t-52.5 -19z" />
    <glyph glyph-name="quotedbl" unicode="&#x22;" horiz-adv-x="402" 
d="M72 449l-7 241h83l-6 -241h-70zM260 449l-6 241h83l-6 -241h-71z" />
    <glyph glyph-name="numbersign" unicode="#" horiz-adv-x="760" 
d="M717 420h-149l-45 -150h142v-89h-168l-53 -181h-63l53 181h-213l-53 -181h-63l53 181h-124v89h150l44 150h-141v89h167l53 181h63l-53 -181h214l53 181h63l-53 -181h123v-89zM460 270l45 150h-214l-44 -150h213z" />
    <glyph glyph-name="dollar" unicode="$" horiz-adv-x="608" 
d="M561 190q0 -76 -66 -130t-165 -61v-69h-51v69q-99 7 -165.5 64t-66.5 138h77q0 -42 44 -72.5t111 -36.5v214q-103 19 -160.5 69.5t-57.5 132.5q0 73 62 124.5t156 58.5v69h51v-69q94 -8 155.5 -62t61.5 -132h-77q0 39 -39.5 67t-100.5 34v-203q231 -45 231 -205zM138 509
q0 -71 141 -104v193q-62 -5 -101.5 -29.5t-39.5 -59.5zM330 92q67 5 110.5 31.5t43.5 63.5q0 73 -154 108v-203z" />
    <glyph glyph-name="percent" unicode="%" horiz-adv-x="831" 
d="M210 382q-70 0 -116 46t-46 114t46 114t116 46q69 0 115 -46t46 -114t-46 -114t-115 -46zM127 0l500 690h78l-500 -690h-78zM210 464q44 0 73 22t29 56t-29 56t-73 22t-73 -22t-29 -56t29 -56t73 -22zM622 -12q-70 0 -116 46t-46 114t46 114t116 46q69 0 115 -46t46 -114
t-46 -114t-115 -46zM622 70q44 0 73 22t29 56t-29 56t-73 22t-73 -22t-29 -56t29 -56t73 -22z" />
    <glyph glyph-name="ampersand" unicode="&#x26;" horiz-adv-x="628" 
d="M634 0h-82l-75 83q-66 -95 -194 -95q-107 0 -176.5 61.5t-69.5 156.5q0 136 135 213q-68 83 -68 140q0 62 47 102.5t118 40.5q69 0 115.5 -40.5t46.5 -101.5q0 -107 -151 -176l192 -208q17 31 17 67v91h66v-91q0 -65 -34 -120zM167 555q0 -41 57 -110l4 2q71 30 105 54
t34 57q0 27 -28 44.5t-70 17.5q-43 0 -72.5 -18t-29.5 -47zM287 80q87 0 147 50l-208 228q-56 -30 -88 -65.5t-32 -84.5q0 -55 51.5 -91.5t129.5 -36.5z" />
    <glyph glyph-name="quotesingle" unicode="'" horiz-adv-x="213" 
d="M72 449l-7 241h83l-6 -241h-70z" />
    <glyph glyph-name="parenleft" unicode="(" horiz-adv-x="323" 
d="M218 -190q-64 85 -103 213.5t-39 256.5t39 256.5t103 213.5h100q-76 -85 -122.5 -213.5t-46.5 -256.5t46.5 -256.5t122.5 -213.5h-100z" />
    <glyph glyph-name="parenright" unicode=")" horiz-adv-x="323" 
d="M5 -190q76 85 122.5 213.5t46.5 256.5t-46.5 256.5t-122.5 213.5h100q64 -85 103 -213.5t39 -256.5t-39 -256.5t-103 -213.5h-100z" />
    <glyph glyph-name="asterisk" unicode="*" horiz-adv-x="383" 
d="M241 570l97 -43l-33 -59l-72 46l-18 14l4 -22v-87h-55v87l4 22l-18 -14l-71 -46l-34 59l77 35l21 8l-21 8l-77 35l34 58l72 -46l17 -14l-4 22v87h55v-87l-3 -22l17 14l72 46l33 -58l-77 -36z" />
    <glyph glyph-name="plus" unicode="+" horiz-adv-x="534" 
d="M471 341v-91h-173v-159h-62v159h-173v91h173v158h62v-158h173z" />
    <glyph glyph-name="comma" unicode="," horiz-adv-x="249" 
d="M125 126q34 0 54.5 -22t20.5 -59q0 -54 -18.5 -110t-47.5 -93h-96q38 28 67 71t39 84q-8 -4 -23 -4q-31 0 -51 18.5t-20 47.5t21 48t54 19z" />
    <glyph glyph-name="hyphen" unicode="-" horiz-adv-x="408" 
d="M63 226v96h282v-96h-282z" />
    <glyph glyph-name="period" unicode="." horiz-adv-x="249" 
d="M125 -7q-32 0 -53.5 19t-21.5 47q0 29 21.5 48t53.5 19t53.5 -19.5t21.5 -47.5t-21.5 -47t-53.5 -19z" />
    <glyph glyph-name="slash" unicode="/" horiz-adv-x="492" 
d="M11 -150l400 900h70l-400 -900h-70z" />
    <glyph glyph-name="zero" unicode="0" horiz-adv-x="643" 
d="M322 -12q-118 0 -192 99.5t-74 257.5t74 257.5t192 99.5q117 0 191 -99.5t74 -257.5t-74 -257.5t-191 -99.5zM322 90q83 0 136 71t53 184t-53 184t-136 71t-136 -71t-53 -184t53 -184t136 -71z" />
    <glyph glyph-name="one" unicode="1" horiz-adv-x="388" 
d="M237 690h64v-690h-74v575l-191 -93v110z" />
    <glyph glyph-name="two" unicode="2" horiz-adv-x="557" 
d="M196 100h307v-100h-452v75l286 278q81 79 81 138q0 46 -40 76t-101 30q-62 0 -103 -30.5t-41 -76.5h-77q0 91 63 151.5t157 60.5t156 -59t62 -148q0 -90 -94 -186z" />
    <glyph glyph-name="three" unicode="3" horiz-adv-x="568" 
d="M405 358q52 -23 83 -68.5t31 -102.5q0 -85 -68 -142t-169 -57q-100 0 -168 59t-68 146h77q0 -44 45 -73.5t113 -29.5q70 0 115.5 30.5t45.5 77.5q0 50 -41.5 81.5t-106.5 31.5h-104v91h104q58 0 95.5 29t37.5 74q0 41 -41 68t-104 27q-62 0 -103 -26t-41 -66h-77
q0 83 63 138.5t158 55.5t158 -53.5t63 -133.5q0 -50 -26.5 -91.5t-71.5 -65.5z" />
    <glyph glyph-name="four" unicode="4" horiz-adv-x="575" 
d="M547 246v-97h-95v-149h-74v149h-345v74l303 467h116v-444h95zM128 246h250v356h-8z" />
    <glyph glyph-name="five" unicode="5" horiz-adv-x="588" 
d="M313 438q101 0 168.5 -64t67.5 -161q0 -96 -70 -160.5t-174 -64.5q-100 0 -168.5 59t-74.5 149h77q9 -46 55.5 -76t110.5 -30q71 0 119 36t48 89t-48 89t-119 36q-44 0 -87 -14t-64 -35h-77l34 399h396v-100h-333l-15 -207q26 24 68.5 39.5t85.5 15.5z" />
    <glyph glyph-name="six" unicode="6" horiz-adv-x="565" 
d="M314 436q95 0 159.5 -63.5t64.5 -157.5q0 -97 -68.5 -162t-172.5 -65q-111 0 -182.5 82.5t-71.5 214.5q0 178 114 295.5t292 117.5v-100q-132 0 -221 -72.5t-100 -192.5q27 46 77 74.5t109 28.5zM294 90q71 0 119.5 35.5t48.5 87.5t-47 88t-116 36q-71 0 -119.5 -35.5
t-48.5 -88.5q0 -52 47 -87.5t116 -35.5z" />
    <glyph glyph-name="seven" unicode="7" horiz-adv-x="546" 
d="M45 690h470v-73l-303 -617h-103l312 590h-376v100z" />
    <glyph glyph-name="eight" unicode="8" horiz-adv-x="591" 
d="M423 358q54 -25 86 -70.5t32 -100.5q0 -85 -71 -142t-175 -57t-174.5 57t-70.5 142q0 55 31.5 100t86.5 71q-47 25 -74 66.5t-27 91.5q0 79 65.5 132.5t162.5 53.5q98 0 163.5 -53.5t65.5 -132.5q0 -103 -101 -158zM295 600q-65 0 -108 -26.5t-43 -66.5q0 -44 43 -72.5
t108 -28.5q66 0 109 28.5t43 72.5q0 40 -43 66.5t-109 26.5zM295 90q74 0 121.5 29.5t47.5 75.5q0 49 -47.5 80.5t-121.5 31.5q-73 0 -121 -31.5t-48 -80.5q0 -46 48 -75.5t121 -29.5z" />
    <glyph glyph-name="nine" unicode="9" horiz-adv-x="565" 
d="M268 702q111 0 182.5 -82.5t71.5 -214.5q0 -185 -114.5 -299t-301.5 -114v100q138 0 229.5 72t103.5 194q0 3 1 5q-26 -49 -77 -79t-113 -30q-98 0 -161 62t-63 159t69 162t173 65zM265 353q72 0 120 35.5t48 88.5q0 52 -46.5 87.5t-115.5 35.5q-71 0 -119.5 -35.5
t-48.5 -87.5t47 -88t115 -36z" />
    <glyph glyph-name="colon" unicode=":" horiz-adv-x="266" 
d="M133 342q-32 0 -53.5 19t-21.5 48q0 28 21.5 47t53.5 19t53.5 -19t21.5 -47q0 -29 -21.5 -48t-53.5 -19zM133 -7q-32 0 -53.5 19t-21.5 47q0 29 21.5 48t53.5 19t53.5 -19t21.5 -48q0 -28 -21.5 -47t-53.5 -19z" />
    <glyph glyph-name="semicolon" unicode=";" horiz-adv-x="266" 
d="M133 342q-32 0 -53.5 19t-21.5 48q0 28 21.5 47t53.5 19t53.5 -19t21.5 -47q0 -29 -21.5 -48t-53.5 -19zM133 126q34 0 54.5 -22t20.5 -59q0 -55 -18 -110.5t-48 -92.5h-95q38 28 67 71t39 84q-8 -4 -23 -4q-31 0 -51.5 18.5t-20.5 47.5t21.5 48t53.5 19z" />
    <glyph glyph-name="less" unicode="&#x3c;" horiz-adv-x="464" 
d="M401 505v-100l-265 -109l265 -109v-100l-338 170v78z" />
    <glyph glyph-name="equal" unicode="=" horiz-adv-x="534" 
d="M63 344v91h408v-91h-408zM63 156v91h408v-91h-408z" />
    <glyph glyph-name="greater" unicode="&#x3e;" horiz-adv-x="464" 
d="M63 505l338 -170v-78l-338 -170v100l265 109l-265 109v100z" />
    <glyph glyph-name="question" unicode="?" horiz-adv-x="511" 
d="M213 201v32q0 40 18.5 72t45.5 53.5t54 41.5t45.5 45t18.5 55q0 44 -41.5 72.5t-102.5 28.5q-62 0 -104 -30t-42 -74h-76q0 87 63 146t158 59q94 0 157.5 -56.5t63.5 -141.5q0 -43 -19 -76.5t-46.5 -55t-54.5 -41t-46 -44t-19 -54.5v-32h-73zM250 -7q-32 0 -52.5 19
t-20.5 47t21 46.5t52 18.5t52 -18.5t21 -46.5t-20.5 -47t-52.5 -19z" />
    <glyph glyph-name="at" unicode="@" horiz-adv-x="846" 
d="M527 440h72v-232q0 -14 13.5 -23t35.5 -9q37 0 60 32t23 83q0 111 -88 185.5t-218 74.5q-133 0 -222 -80.5t-89 -200.5t89 -200.5t223 -80.5q123 0 208 45h92q-56 -62 -134.5 -96.5t-167.5 -34.5q-159 0 -265 105.5t-106 261.5t106.5 261t265.5 105q156 0 262 -99
t106 -247q0 -90 -40.5 -145.5t-109.5 -55.5q-41 0 -71 21.5t-41 56.5q-40 -80 -135 -80q-75 0 -124.5 52t-49.5 130t49 130.5t120 52.5q90 0 136 -83v71zM411 186q50 0 83 24t33 60q0 35 -33.5 59t-82.5 24q-48 0 -81.5 -24t-33.5 -59q0 -36 33.5 -60t81.5 -24z" />
    <glyph glyph-name="A" unicode="A" horiz-adv-x="723" 
d="M623 0l-69 162h-380l-69 -162h-85l282 690h119l281 -690h-79zM216 262h295l-133 312h-29z" />
    <glyph glyph-name="B" unicode="B" horiz-adv-x="668" 
d="M513 364q56 -20 90 -68.5t34 -109.5q0 -80 -56 -133t-139 -53h-361v690h349q77 0 128.5 -49t51.5 -124q0 -51 -26 -92t-71 -61zM414 590h-259v-188h259q51 0 85.5 27.5t34.5 69.5q0 40 -33.5 65.5t-86.5 25.5zM427 100q59 0 96 29t37 75q0 48 -37 78.5t-96 30.5h-272
v-213h272z" />
    <glyph glyph-name="C" unicode="C" horiz-adv-x="793" 
d="M406 -12q-154 0 -257.5 102.5t-103.5 254.5t103.5 254.5t257.5 102.5q127 0 222.5 -72.5t125.5 -188.5h-80q-31 72 -102.5 115.5t-165.5 43.5q-121 0 -202.5 -73t-81.5 -182t81.5 -182t202.5 -73q94 0 165.5 43.5t102.5 115.5h80q-30 -116 -125.5 -188.5t-222.5 -72.5z
" />
    <glyph glyph-name="D" unicode="D" horiz-adv-x="741" 
d="M347 690q150 0 250 -98.5t100 -246.5t-100 -246.5t-250 -98.5h-266v690h266zM346 100q117 0 195.5 70t78.5 175t-78.5 175t-195.5 70h-191v-490h191z" />
    <glyph glyph-name="E" unicode="E" horiz-adv-x="613" 
d="M155 100h413v-100h-487v690h482v-100h-408v-195h375v-96h-375v-199z" />
    <glyph glyph-name="F" unicode="F" horiz-adv-x="573" 
d="M538 590h-383v-200h342v-99h-342v-291h-74v690h457v-100z" />
    <glyph glyph-name="G" unicode="G" horiz-adv-x="825" 
d="M419 375h344v-375h-59v181q-40 -91 -116.5 -142t-181.5 -51q-154 0 -257.5 102.5t-103.5 254.5t103.5 254.5t257.5 102.5q122 0 215 -66t125 -171h-87q-32 62 -99.5 98.5t-153.5 36.5q-121 0 -202.5 -73t-81.5 -182t81.5 -182t202.5 -73q105 0 182 52.5t98 136.5h-267v96
z" />
    <glyph glyph-name="H" unicode="H" horiz-adv-x="730" 
d="M575 690h74v-690h-74v294h-420v-294h-74v690h74v-290h420v290z" />
    <glyph glyph-name="I" unicode="I" horiz-adv-x="237" 
d="M81 0v690h74v-690h-74z" />
    <glyph glyph-name="J" unicode="J" horiz-adv-x="560" 
d="M261 -12q-100 0 -167 65.5t-67 163.5h77q0 -55 45 -91t113 -36t113.5 36t45.5 91v473h74v-473q0 -98 -67 -163.5t-167 -65.5z" />
    <glyph glyph-name="K" unicode="K" horiz-adv-x="659" 
d="M561 0l-286 319l-120 -100v-219h-74v690h74v-327h25l338 327h130l-316 -319l323 -371h-94z" />
    <glyph glyph-name="L" unicode="L" horiz-adv-x="548" 
d="M155 100h363v-100h-437v690h74v-590z" />
    <glyph glyph-name="M" unicode="M" horiz-adv-x="855" 
d="M81 0v690h114l219 -405h23l219 405h118v-690h-74v544h-23l-208 -403h-83l-207 403h-24v-544h-74z" />
    <glyph glyph-name="N" unicode="N" horiz-adv-x="739" 
d="M81 0v690h93l392 -532h17v532h74v-690h-92l-392 532h-18v-532h-74z" />
    <glyph glyph-name="O" unicode="O" horiz-adv-x="812" 
d="M406 -12q-154 0 -257.5 102.5t-103.5 254.5t103.5 254.5t257.5 102.5t257.5 -102.5t103.5 -254.5t-103.5 -254.5t-257.5 -102.5zM406 90q122 0 203.5 73t81.5 182t-81.5 182t-203.5 73q-121 0 -202.5 -73t-81.5 -182t81.5 -182t202.5 -73z" />
    <glyph glyph-name="P" unicode="P" horiz-adv-x="648" 
d="M391 690q97 0 161.5 -63.5t64.5 -158.5t-64.5 -159t-161.5 -64h-236v-245h-74v690h310zM389 345q67 0 109.5 34.5t42.5 88.5t-42.5 88t-109.5 34h-234v-245h234z" />
    <glyph glyph-name="Q" unicode="Q" horiz-adv-x="812" 
d="M767 345q0 -99 -46 -180t-126 -127l77 -123h-79l-59 94q-63 -21 -128 -21q-154 0 -257.5 102.5t-103.5 254.5t103.5 254.5t257.5 102.5t257.5 -102.5t103.5 -254.5zM406 90q36 0 73 8l-80 127h79l66 -105q68 32 107.5 91.5t39.5 133.5q0 109 -81.5 182t-203.5 73
q-121 0 -202.5 -73t-81.5 -182t81.5 -182t202.5 -73z" />
    <glyph glyph-name="R" unicode="R" horiz-adv-x="658" 
d="M532 0l-179 245h-198v-245h-74v690h310q97 0 161.5 -63.5t64.5 -158.5q0 -82 -48.5 -141.5t-126.5 -76.5l182 -250h-92zM155 590v-245h234q67 0 109.5 34.5t42.5 88.5t-42.5 88t-109.5 34h-234z" />
    <glyph glyph-name="S" unicode="S" horiz-adv-x="611" 
d="M308 -12q-115 0 -192.5 60t-77.5 149h77q0 -48 56 -80.5t141 -32.5q78 0 131 28.5t53 73.5q0 28 -20 49t-57 34.5t-66 20.5t-69 14q-109 21 -170 71.5t-61 129.5q0 88 71.5 142.5t178.5 54.5q110 0 182.5 -57.5t72.5 -142.5h-77q0 44 -51.5 74t-129.5 30
q-73 0 -122 -26.5t-49 -69.5q0 -79 197 -113q246 -45 246 -203q0 -92 -76.5 -149t-187.5 -57z" />
    <glyph glyph-name="T" unicode="T" horiz-adv-x="606" 
d="M577 690v-100h-237v-590h-74v590h-238v100h549z" />
    <glyph glyph-name="U" unicode="U" horiz-adv-x="693" 
d="M346 -12q-119 0 -199.5 79t-80.5 197v426h74v-424q0 -75 59 -125.5t147 -50.5q89 0 148 50.5t59 125.5v424h74v-426q0 -118 -80.5 -197t-200.5 -79z" />
    <glyph glyph-name="V" unicode="V" horiz-adv-x="699" 
d="M291 0l-270 690h79l233 -569h26l233 569h87l-271 -690h-117z" />
    <glyph glyph-name="W" unicode="W" horiz-adv-x="1070" 
d="M252 0l-227 690h79l185 -536h26l181 536h74l182 -536h25l185 536h84l-228 -690h-96l-170 517h-34l-170 -517h-96z" />
    <glyph glyph-name="X" unicode="X" horiz-adv-x="665" 
d="M646 690l-245 -346l244 -344h-86l-208 274h-29l-210 -274h-93l249 348l-241 342h87l204 -273h29l206 273h93z" />
    <glyph glyph-name="Y" unicode="Y" horiz-adv-x="646" 
d="M286 0v244l-277 446h85l214 -320h25l214 320h90l-277 -446v-244h-74z" />
    <glyph glyph-name="Z" unicode="Z" horiz-adv-x="644" 
d="M161 100h441v-100h-561v71l435 519h-431v100h550v-71z" />
    <glyph glyph-name="bracketleft" unicode="[" horiz-adv-x="324" 
d="M302 655h-145v-750h145v-95h-216v940h216v-95z" />
    <glyph glyph-name="backslash" unicode="\" horiz-adv-x="492" 
d="M411 -150l-400 900h70l400 -900h-70z" />
    <glyph glyph-name="bracketright" unicode="]" horiz-adv-x="324" 
d="M22 750h216v-940h-216v95h145v750h-145v95z" />
    <glyph glyph-name="asciicircum" unicode="^" horiz-adv-x="419" 
d="M45 449l125 241h80l124 -241h-73l-85 158h-9l-85 -158h-77z" />
    <glyph glyph-name="underscore" unicode="_" horiz-adv-x="511" 
d="M35 -167v87h441v-87h-441z" />
    <glyph glyph-name="grave" unicode="`" horiz-adv-x="229" 
d="M134 576l-134 130h125l104 -130h-95z" />
    <glyph glyph-name="a" unicode="a" horiz-adv-x="654" 
d="M513 510h68v-510h-68v131q-29 -66 -86 -104.5t-130 -38.5q-109 0 -182 76.5t-73 190.5t73 190.5t182 76.5q73 0 130 -38.5t86 -104.5v131zM313 85q86 0 143 48.5t57 121.5t-57 121.5t-143 48.5t-143 -48.5t-57 -121.5t57 -121.5t143 -48.5z" />
    <glyph glyph-name="b" unicode="b" horiz-adv-x="654" 
d="M357 522q109 0 182.5 -76.5t73.5 -190.5t-73.5 -190.5t-182.5 -76.5q-73 0 -130 38.5t-86 104.5v-131h-68v720h68v-341q29 66 86 104.5t130 38.5zM341 85q86 0 143 48.5t57 121.5t-57 121.5t-143 48.5t-143 -48.5t-57 -121.5t57 -121.5t143 -48.5z" />
    <glyph glyph-name="c" unicode="c" horiz-adv-x="610" 
d="M312 -12q-116 0 -194 76.5t-78 190.5t78 190.5t194 76.5q97 0 168.5 -55t92.5 -144h-75q-22 46 -72 74t-114 28q-86 0 -143 -48.5t-57 -121.5t57 -121.5t143 -48.5q64 0 114 28t72 74h75q-21 -89 -92.5 -144t-168.5 -55z" />
    <glyph glyph-name="d" unicode="d" horiz-adv-x="654" 
d="M513 720h68v-720h-68v131q-29 -66 -86 -104.5t-130 -38.5q-109 0 -182 76.5t-73 190.5t73 190.5t182 76.5q73 0 130 -38.5t86 -104.5v341zM313 85q86 0 143 48.5t57 121.5t-57 121.5t-143 48.5t-143 -48.5t-57 -121.5t57 -121.5t143 -48.5z" />
    <glyph glyph-name="e" unicode="e" horiz-adv-x="622" 
d="M583 253q0 -12 -2 -34h-468q14 -59 69 -96t132 -37q117 0 175 61h83q-32 -73 -101.5 -116t-157.5 -43q-117 0 -195 76.5t-78 190.5t78 190.5t194 76.5t193.5 -76.5t77.5 -192.5zM312 424q-75 0 -130 -36.5t-69 -95.5h398q-14 59 -69 95.5t-130 36.5z" />
    <glyph glyph-name="f" unicode="f" horiz-adv-x="393" 
d="M295 631q-79 0 -79 -64v-57h151v-95h-151v-415h-69v415h-113v95h113v77q0 138 143 138h77v-94h-72z" />
    <glyph glyph-name="g" unicode="g" horiz-adv-x="653" 
d="M514 510h68v-455q0 -116 -71.5 -186.5t-188.5 -70.5q-95 0 -161.5 48.5t-89.5 132.5h72q21 -41 68.5 -64.5t110.5 -23.5q86 0 139 45t53 120v83q-29 -65 -86.5 -103t-130.5 -38q-109 0 -182 74.5t-73 187.5q0 112 73 187t182 75q73 0 130.5 -38t86.5 -103v129zM314 90
q86 0 143 48.5t57 121.5q0 72 -57.5 121t-142.5 49q-86 0 -143 -49t-57 -121q0 -73 57 -121.5t143 -48.5z" />
    <glyph glyph-name="h" unicode="h" horiz-adv-x="616" 
d="M343 522q93 0 150 -56.5t57 -150.5v-315h-68v288q0 62 -45.5 99.5t-121.5 37.5q-78 0 -126 -38t-48 -101v-286h-68v720h68v-329q27 63 79.5 97t122.5 34z" />
    <glyph glyph-name="i" unicode="i" horiz-adv-x="214" 
d="M107 611q-27 0 -45 15.5t-18 38.5t18 39t45 16t45 -16t18 -39t-18 -38.5t-45 -15.5zM73 0v510h68v-510h-68z" />
    <glyph glyph-name="j" unicode="j" horiz-adv-x="221" 
d="M114 611q-27 0 -45.5 15.5t-18.5 38.5t18.5 39t45.5 16q26 0 44.5 -16t18.5 -39t-18.5 -38.5t-44.5 -15.5zM-35 -202v96q114 0 114 90v526h69v-534q0 -178 -183 -178z" />
    <glyph glyph-name="k" unicode="k" horiz-adv-x="540" 
d="M448 0l-215 222l-92 -69v-153h-68v720h68v-440h22l243 230h125l-242 -241l248 -269h-89z" />
    <glyph glyph-name="l" unicode="l" horiz-adv-x="214" 
d="M73 0v720h68v-720h-68z" />
    <glyph glyph-name="m" unicode="m" horiz-adv-x="932" 
d="M682 522q83 0 133.5 -52t50.5 -138v-332h-68v308q0 53 -39.5 85t-103.5 32q-68 0 -109.5 -33t-41.5 -86v-306h-69v308q0 53 -39.5 85t-103.5 32q-68 0 -109.5 -33t-41.5 -86v-306h-68v510h68v-105q51 117 178 117q66 0 112.5 -33.5t63.5 -91.5q24 60 72 92.5t115 32.5z
" />
    <glyph glyph-name="n" unicode="n" horiz-adv-x="616" 
d="M343 522q93 0 150 -56.5t57 -150.5v-315h-68v288q0 62 -45.5 99.5t-121.5 37.5q-78 0 -126 -38t-48 -101v-286h-68v510h68v-117q27 62 79.5 95.5t122.5 33.5z" />
    <glyph glyph-name="o" unicode="o" horiz-adv-x="623" 
d="M312 -12q-116 0 -194 76.5t-78 190.5t78 190.5t194 76.5t193.5 -76.5t77.5 -190.5t-77.5 -190.5t-193.5 -76.5zM312 85q86 0 143 48.5t57 121.5t-57 121.5t-143 48.5t-143 -48.5t-57 -121.5t57 -121.5t143 -48.5z" />
    <glyph glyph-name="p" unicode="p" horiz-adv-x="654" 
d="M357 522q109 0 182.5 -76.5t73.5 -190.5t-73.5 -190.5t-182.5 -76.5q-73 0 -130 38.5t-86 104.5v-321h-68v700h68v-131q29 66 86 104.5t130 38.5zM341 85q86 0 143 48.5t57 121.5t-57 121.5t-143 48.5t-143 -48.5t-57 -121.5t57 -121.5t143 -48.5z" />
    <glyph glyph-name="q" unicode="q" horiz-adv-x="654" 
d="M513 510h68v-700h-68v321q-29 -66 -86 -104.5t-130 -38.5q-109 0 -182 76.5t-73 190.5t73 190.5t182 76.5q73 0 130 -38.5t86 -104.5v131zM313 85q86 0 143 48.5t57 121.5t-57 121.5t-143 48.5t-143 -48.5t-57 -121.5t57 -121.5t143 -48.5z" />
    <glyph glyph-name="r" unicode="r" horiz-adv-x="371" 
d="M141 375q27 67 79.5 105t121.5 38v-117q-94 0 -147.5 -42.5t-53.5 -116.5v-242h-68v510h68v-135z" />
    <glyph glyph-name="s" unicode="s" horiz-adv-x="529" 
d="M264 -12q-98 0 -161 48.5t-63 122.5h68q0 -34 44 -55.5t113 -21.5t112 18t43 47q0 27 -42 43t-131 28q-198 29 -198 153q0 69 60.5 110t153.5 41q96 0 157 -46.5t61 -117.5h-70q0 31 -41 50.5t-107 19.5q-64 0 -104.5 -17t-40.5 -44q0 -46 168 -69q204 -28 204 -153
q0 -72 -63.5 -114.5t-162.5 -42.5z" />
    <glyph glyph-name="t" unicode="t" horiz-adv-x="397" 
d="M365 415h-166v-258q0 -61 80 -61h76v-96h-82q-143 0 -143 138v277h-110v95h110v133l69 17v-150h166v-95z" />
    <glyph glyph-name="u" unicode="u" horiz-adv-x="597" 
d="M455 510h69v-510h-69v112q-55 -124 -191 -124q-89 0 -144 55t-55 146v321h69v-297q0 -58 43 -93t114 -35q74 0 119 36t45 94v295z" />
    <glyph glyph-name="v" unicode="v" horiz-adv-x="543" 
d="M220 0l-206 510h73l170 -395h22l170 395h80l-206 -510h-103z" />
    <glyph glyph-name="w" unicode="w" horiz-adv-x="839" 
d="M195 0l-177 510h71l141 -379h22l129 379h71l128 -379h22l141 379h78l-177 -510h-89l-121 374h-28l-122 -374h-89z" />
    <glyph glyph-name="x" unicode="x" horiz-adv-x="552" 
d="M528 510l-190 -256l189 -254h-81l-156 193h-23l-156 -193h-87l192 257l-186 253h81l153 -192h23l153 192h88z" />
    <glyph glyph-name="y" unicode="y" horiz-adv-x="543" 
d="M449 510h80l-282 -700h-90l90 190h-27l-206 510h73l170 -395h22z" />
    <glyph glyph-name="z" unicode="z" horiz-adv-x="519" 
d="M156 95h321v-95h-436v66l314 349h-310v95h425v-66z" />
    <glyph glyph-name="braceleft" unicode="{" horiz-adv-x="394" 
d="M230 356q0 -25 -14.5 -45.5t-38.5 -29.5q53 -22 53 -76v-249q0 -22 18 -36.5t45 -14.5h78v-95h-92q-53 0 -86.5 34t-33.5 87v253q0 22 -15 35.5t-39 13.5h-39v95h39q24 0 39 13.5t15 35.5v252q0 53 33.5 87t86.5 34h92v-95h-78q-27 0 -45 -14.5t-18 -36.5v-248z" />
    <glyph glyph-name="bar" unicode="|" horiz-adv-x="264" 
d="M101 -190v940h62v-940h-62z" />
    <glyph glyph-name="braceright" unicode="}" horiz-adv-x="394" 
d="M288 328h39v-95h-39q-23 0 -38.5 -13.5t-15.5 -35.5v-253q0 -53 -33.5 -87t-86.5 -34h-92v95h78q28 0 45.5 14.5t17.5 36.5v249q0 54 53 76q-24 9 -38.5 29.5t-14.5 45.5v248q0 22 -17.5 36.5t-45.5 14.5h-78v95h92q53 0 86.5 -34t33.5 -87v-252q0 -22 15.5 -35.5
t38.5 -13.5z" />
    <glyph glyph-name="asciitilde" unicode="~" horiz-adv-x="553" 
d="M364 222q-42 0 -99 27.5t-80 27.5q-26 0 -43 -13.5t-17 -33.5h-62q0 65 32.5 105.5t93.5 40.5q42 0 99 -27.5t80 -27.5q26 0 43 13.5t17 33.5h62q0 -65 -32.5 -105.5t-93.5 -40.5z" />
    <glyph glyph-name="exclamdown" unicode="&#xa1;" horiz-adv-x="250" 
d="M125 386q-31 0 -52 18.5t-21 46.5t20.5 47t52.5 19t52.5 -19t20.5 -47t-21 -46.5t-52 -18.5zM89 -180v170l11 322h50l12 -322v-170h-73z" />
    <glyph glyph-name="cent" unicode="&#xa2;" horiz-adv-x="638" 
d="M353 177q54 6 95.5 32.5t61.5 67.5h75q-20 -81 -82.5 -135t-149.5 -63v-79h-52v79q-108 8 -178.5 83t-70.5 183t70.5 183t178.5 83v79h52v-79q87 -9 149.5 -63t82.5 -135h-75q-20 41 -61.5 67.5t-95.5 32.5v-336zM124 345q0 -67 50 -114.5t127 -54.5v338
q-77 -7 -127 -54.5t-50 -114.5z" />
    <glyph glyph-name="sterling" unicode="&#xa3;" horiz-adv-x="621" 
d="M191 100h394v-100h-536v100h68v178h-68v93h68v120q0 90 65.5 150.5t162.5 60.5q98 0 164 -61.5t66 -153.5h-76q0 49 -44 81t-110 32t-110 -32t-44 -81v-116h265v-93h-265v-178z" />
    <glyph glyph-name="currency" unicode="&#xa4;" horiz-adv-x="536" 
d="M459 345q0 -58 -32 -104l62 -62l-53 -53l-64 64q-45 -28 -103 -28t-103 28l-65 -64l-54 53l63 63q-31 45 -31 103t32 104l-63 64l52 53l66 -65q45 28 103 28q55 0 103 -27l64 64l53 -54l-62 -62q32 -46 32 -105zM140 345q0 -44 37 -74t92 -30q54 0 91 30t37 74
q0 45 -37 75t-91 30q-55 0 -92 -30t-37 -75z" />
    <glyph glyph-name="yen" unicode="&#xa5;" horiz-adv-x="635" 
d="M617 690l-224 -381h114v-77h-152v-56h152v-77h-152v-99h-75v99h-143v77h143v56h-143v77h105l-224 381h86l199 -321h25l200 321h89z" />
    <glyph glyph-name="brokenbar" unicode="&#xa6;" horiz-adv-x="264" 
d="M101 340v410h62v-410h-62zM101 -190v410h62v-410h-62z" />
    <glyph glyph-name="section" unicode="&#xa7;" horiz-adv-x="534" 
d="M381 184q81 -44 81 -128q0 -68 -56.5 -110t-137.5 -42q-84 0 -140 45t-56 112h68q0 -33 37 -55t91 -22q53 0 89 19t36 48q0 63 -148 91q-171 33 -171 163q0 81 80 122q-77 45 -77 126q0 67 55 108t134 41q81 0 136 -44.5t55 -109.5h-68q0 31 -36 52.5t-87 21.5
t-85.5 -18.5t-34.5 -45.5q0 -62 144 -89q80 -14 127.5 -54.5t47.5 -107.5q0 -82 -84 -123zM143 312q0 -64 128 -87q55 1 90 22.5t35 52.5q0 64 -132 87q-53 -1 -87 -23t-34 -52z" />
    <glyph glyph-name="dieresis" unicode="&#xa8;" horiz-adv-x="328" 
d="M60 580q-26 0 -43 16t-17 40t17 40t43 16t43 -16t17 -40q0 -23 -17.5 -39.5t-42.5 -16.5zM268 580q-25 0 -42.5 16.5t-17.5 39.5q0 24 17 40t43 16t43 -16t17 -40q0 -23 -17.5 -39.5t-42.5 -16.5z" />
    <glyph glyph-name="copyright" unicode="&#xa9;" horiz-adv-x="824" 
d="M412 -12q-152 0 -254.5 102.5t-102.5 254.5t102.5 254.5t254.5 102.5t254.5 -102.5t102.5 -254.5t-102.5 -254.5t-254.5 -102.5zM412 61q131 0 219 81.5t88 202.5t-88 202.5t-219 81.5t-219.5 -81.5t-88.5 -202.5t88.5 -202.5t219.5 -81.5zM414 146q-85 0 -142.5 57
t-57.5 142t57.5 142t142.5 57q75 0 129 -44t66 -113h-58q-13 36 -49.5 57t-87.5 21q-62 0 -103 -34.5t-41 -85.5t41 -85.5t103 -34.5q50 0 87 21.5t50 56.5h58q-12 -69 -66 -113t-129 -44z" />
    <glyph glyph-name="ordfeminine" unicode="&#xaa;" horiz-adv-x="391" 
d="M290 691h56v-272h-56v57q-38 -65 -109 -65q-58 0 -97 41.5t-39 102.5t39 102.5t97 41.5q71 0 109 -65v57zM196 478q40 0 67 22t27 55t-27 55t-67 22q-41 0 -68 -22t-27 -55t27 -55t68 -22z" />
    <glyph glyph-name="guillemotleft" unicode="&#xab;" horiz-adv-x="617" 
d="M325 467l-197 -203l197 -203h-116l-166 203l166 203h116zM570 467l-197 -203l197 -203h-116l-166 203l166 203h116z" />
    <glyph glyph-name="registered" unicode="&#xae;" horiz-adv-x="454" 
d="M227 702q78 0 129.5 -52t51.5 -130q0 -77 -51.5 -129t-129.5 -52t-130 52t-52 129q0 78 52 130t130 52zM227 379q65 0 109.5 40.5t44.5 100.5q0 61 -44.5 101.5t-109.5 40.5q-66 0 -110 -40.5t-44 -101.5q0 -60 44 -100.5t110 -40.5zM303 560q0 -20 -11 -36t-30 -22
l47 -70h-28l-45 66h-42v-66h-24v191h70q27 0 45 -18t18 -45zM194 588v-55h46q17 0 28 7.5t11 19.5q0 13 -11 20.5t-28 7.5h-46z" />
    <glyph glyph-name="macron" unicode="&#xaf;" horiz-adv-x="237" 
d="M0 592v83h237v-83h-237z" />
    <glyph glyph-name="degree" unicode="&#xb0;" horiz-adv-x="394" 
d="M197 412q-63 0 -105 41.5t-42 104.5q0 62 42 103t105 41q62 0 104 -41.5t42 -102.5q0 -63 -42 -104.5t-104 -41.5zM197 489q37 0 61 19.5t24 49.5q0 29 -24.5 48.5t-60.5 19.5q-37 0 -61.5 -19.5t-24.5 -48.5q0 -30 24.5 -49.5t61.5 -19.5z" />
    <glyph glyph-name="plusminus" unicode="&#xb1;" horiz-adv-x="534" 
d="M298 408h173v-91h-173v-117h-62v117h-173v91h173v117h62v-117zM63 42v92h408v-92h-408z" />
    <glyph glyph-name="uni00B2" unicode="&#xb2;" horiz-adv-x="335" 
d="M123 430h180v-64h-274v49l172 164q47 47 47 80q0 26 -23 43.5t-59 17.5t-59.5 -17.5t-23.5 -44.5h-50q0 55 38.5 92t94.5 37t94 -36t38 -90t-57 -111z" />
    <glyph glyph-name="uni00B3" unicode="&#xb3;" horiz-adv-x="341" 
d="M246 581q31 -14 48.5 -41.5t17.5 -60.5q0 -51 -41 -85.5t-102 -34.5q-60 0 -101.5 35.5t-41.5 88.5h50q0 -25 26.5 -42.5t65.5 -17.5q40 0 67 18t27 45q0 28 -24 46.5t-62 18.5h-64v58h64q34 0 55.5 16.5t21.5 41.5q0 24 -24 40t-60 16t-59.5 -15.5t-23.5 -38.5h-50
q0 51 38 84.5t95 33.5t95.5 -32.5t38.5 -80.5q0 -62 -57 -93z" />
    <glyph glyph-name="acute" unicode="&#xb4;" horiz-adv-x="229" 
d="M0 576l104 130h125l-134 -130h-95z" />
    <glyph glyph-name="paragraph" unicode="&#xb6;" horiz-adv-x="602" 
d="M526 690v-880h-57v793h-101v-793h-57v473h-75q-86 0 -144.5 58.5t-58.5 144.5q0 87 58.5 145.5t144.5 58.5h290z" />
    <glyph glyph-name="periodcentered" unicode="&#xb7;" horiz-adv-x="275" 
d="M138 207q-32 0 -53.5 19t-21.5 48t21.5 48t53.5 19q31 0 52.5 -19t21.5 -48t-21.5 -48t-52.5 -19z" />
    <glyph glyph-name="cedilla" unicode="&#xb8;" horiz-adv-x="217" 
d="M120 -34q41 0 69 -27.5t28 -67.5q0 -41 -31.5 -69t-77.5 -28t-77 28t-31 69h55q0 -16 15.5 -27.5t37.5 -11.5q23 0 38.5 11.5t15.5 27.5q0 18 -15 30t-38 12q-26 0 -42 -13l-49 25l61 75v2h62v-2l-29 -34h8z" />
    <glyph glyph-name="uni00B9" unicode="&#xb9;" horiz-adv-x="235" 
d="M142 780h42v-414h-48v340l-115 -55v70z" />
    <glyph glyph-name="ordmasculine" unicode="&#xba;" horiz-adv-x="392" 
d="M196 411q-64 0 -107.5 41.5t-43.5 102.5t43.5 102.5t107.5 41.5t107.5 -41t43.5 -103t-43.5 -103t-107.5 -41zM196 478q40 0 67.5 22t27.5 55t-27.5 55t-67.5 22t-67.5 -22t-27.5 -55t27.5 -55t67.5 -22z" />
    <glyph glyph-name="guillemotright" unicode="&#xbb;" horiz-adv-x="617" 
d="M165 467l167 -203l-167 -203h-115l196 203l-196 203h115zM411 467l166 -203l-166 -203h-116l197 203l-197 203h116z" />
    <glyph glyph-name="onequarter" unicode="&#xbc;" horiz-adv-x="736" 
d="M136 276v340l-115 -55v70l121 59h42v-414h-48zM577 690h64l-484 -690h-63zM720 150v-63h-56v-87h-48v87h-206v48l188 279h66v-264h56zM471 150h145v198z" />
    <glyph glyph-name="onehalf" unicode="&#xbd;" horiz-adv-x="789" 
d="M136 276v340l-115 -55v70l121 59h42v-414h-48zM577 690h64l-484 -690h-63zM578 64h180v-64h-274v49l172 164q47 47 47 80q0 26 -23 43.5t-59 17.5t-59.5 -17.5t-23.5 -44.5h-50q0 55 38.5 92t94.5 37t94 -36t38 -90t-57 -111z" />
    <glyph glyph-name="threequarters" unicode="&#xbe;" horiz-adv-x="802" 
d="M312 389q0 -51 -41 -85.5t-102 -34.5q-60 0 -101.5 35.5t-41.5 88.5h50q0 -25 26.5 -42.5t65.5 -17.5q40 0 67 18t27 45q0 28 -24 46.5t-62 18.5h-64v58h64q34 0 55.5 16.5t21.5 41.5q0 24 -24 40t-60 16t-59.5 -15.5t-23.5 -38.5h-50q0 51 38 84.5t95 33.5t95.5 -32.5
t38.5 -80.5q0 -62 -57 -93q31 -14 48.5 -41.5t17.5 -60.5zM643 690h64l-484 -690h-63zM786 150v-63h-56v-87h-48v87h-206v48l188 279h66v-264h56zM537 150h145v198z" />
    <glyph glyph-name="questiondown" unicode="&#xbf;" horiz-adv-x="497" 
d="M259 386q-32 0 -53 18.5t-21 46.5t21 47t53 19q31 0 52 -19t21 -47t-21 -46.5t-52 -18.5zM258 -192q-94 0 -157 56.5t-63 141.5q0 43 19 76.5t46 55t54 41t46 44t19 54.5v32h73v-32q0 -40 -18.5 -72t-45 -53.5t-53.5 -41.5t-45.5 -45t-18.5 -55q0 -44 41.5 -72.5
t101.5 -28.5q62 0 104 30t42 74h76q0 -87 -63 -146t-158 -59z" />
    <glyph glyph-name="Agrave" unicode="&#xc0;" horiz-adv-x="723" 
d="M416 756h-95l-134 130h125zM623 0l-69 162h-380l-69 -162h-85l282 690h119l281 -690h-79zM216 262h295l-133 312h-29z" />
    <glyph glyph-name="Aacute" unicode="&#xc1;" horiz-adv-x="723" 
d="M537 886l-134 -130h-95l104 130h125zM623 0l-69 162h-380l-69 -162h-85l282 690h119l281 -690h-79zM216 262h295l-133 312h-29z" />
    <glyph glyph-name="Acircumflex" unicode="&#xc2;" horiz-adv-x="723" 
d="M362 822l-66 -66h-88l100 130h108l100 -130h-81l-66 66h-7zM623 0l-69 162h-380l-69 -162h-85l282 690h119l281 -690h-79zM216 262h295l-133 312h-29z" />
    <glyph glyph-name="Atilde" unicode="&#xc3;" horiz-adv-x="723" 
d="M304 808q-21 0 -34.5 -12t-13.5 -29h-64q0 52 27.5 86t74.5 34q33 0 69 -23t56 -23q21 0 35 12t14 30h64q0 -53 -28 -86.5t-74 -33.5q-33 0 -69.5 22.5t-56.5 22.5zM623 0l-69 162h-380l-69 -162h-85l282 690h119l281 -690h-79zM216 262h295l-133 312h-29z" />
    <glyph glyph-name="Adieresis" unicode="&#xc4;" horiz-adv-x="723" 
d="M258 760q-26 0 -43 16t-17 40t17 40t43 16t43 -16t17 -40q0 -23 -17.5 -39.5t-42.5 -16.5zM466 760q-25 0 -42.5 16.5t-17.5 39.5q0 24 17 40t43 16t43 -16t17 -40q0 -23 -17.5 -39.5t-42.5 -16.5zM623 0l-69 162h-380l-69 -162h-85l282 690h119l281 -690h-79zM216 262
h295l-133 312h-29z" />
    <glyph glyph-name="Aring" unicode="&#xc5;" horiz-adv-x="723" 
d="M361 743q-38 0 -63.5 24.5t-25.5 61.5t25.5 61.5t63.5 24.5t64 -24.5t26 -61.5t-26 -61.5t-64 -24.5zM361 863q-18 0 -30.5 -9.5t-12.5 -24.5t12.5 -24.5t30.5 -9.5q19 0 31.5 9.5t12.5 24.5t-12.5 24.5t-31.5 9.5zM623 0l-69 162h-380l-69 -162h-85l282 690h119
l281 -690h-79zM216 262h295l-133 312h-29z" />
    <glyph glyph-name="AE" unicode="&#xc6;" horiz-adv-x="961" 
d="M534 100h383v-100h-457v159h-288l-100 -159h-97l418 690h519v-100h-378v-195h345v-96h-345v-199zM233 257h227v333h-18z" />
    <glyph glyph-name="Ccedilla" unicode="&#xc7;" horiz-adv-x="793" 
d="M406 90q94 0 165.5 43.5t102.5 115.5h80q-29 -110 -116.5 -181.5t-206.5 -78.5l-19 -23h8q41 0 69 -27.5t28 -67.5q0 -41 -31.5 -69t-77.5 -28t-77 28t-31 69h55q0 -16 15.5 -27.5t37.5 -11.5q23 0 38.5 11.5t15.5 27.5q0 18 -15 30t-38 12q-26 0 -42 -13l-49 25l53 65
q-141 12 -233.5 112t-92.5 243q0 152 103.5 254.5t257.5 102.5q127 0 222.5 -72.5t125.5 -188.5h-80q-31 72 -102.5 115.5t-165.5 43.5q-121 0 -202.5 -73t-81.5 -182t81.5 -182t202.5 -73z" />
    <glyph glyph-name="Egrave" unicode="&#xc8;" horiz-adv-x="613" 
d="M387 756h-95l-134 130h125zM155 100h413v-100h-487v690h482v-100h-408v-195h375v-96h-375v-199z" />
    <glyph glyph-name="Eacute" unicode="&#xc9;" horiz-adv-x="613" 
d="M507 886l-134 -130h-95l104 130h125zM155 100h413v-100h-487v690h482v-100h-408v-195h375v-96h-375v-199z" />
    <glyph glyph-name="Ecircumflex" unicode="&#xca;" horiz-adv-x="613" 
d="M333 822l-66 -66h-88l100 130h108l100 -130h-81l-66 66h-7zM155 100h413v-100h-487v690h482v-100h-408v-195h375v-96h-375v-199z" />
    <glyph glyph-name="Edieresis" unicode="&#xcb;" horiz-adv-x="613" 
d="M229 760q-26 0 -43 16t-17 40t17 40t43 16t43 -16t17 -40q0 -23 -17.5 -39.5t-42.5 -16.5zM437 760q-25 0 -42.5 16.5t-17.5 39.5q0 24 17 40t43 16t43 -16t17 -40q0 -23 -17.5 -39.5t-42.5 -16.5zM155 100h413v-100h-487v690h482v-100h-408v-195h375v-96h-375v-199z" />
    <glyph glyph-name="Igrave" unicode="&#xcc;" horiz-adv-x="237" 
d="M78 756l-134 130h125l104 -130h-95zM81 0v690h74v-690h-74z" />
    <glyph glyph-name="Iacute" unicode="&#xcd;" horiz-adv-x="237" 
d="M65 756l104 130h125l-134 -130h-95zM81 0v690h74v-690h-74z" />
    <glyph glyph-name="Icircumflex" unicode="&#xce;" horiz-adv-x="237" 
d="M-35 756l100 130h108l100 -130h-81l-66 66h-7l-66 -66h-88zM81 0v690h74v-690h-74z" />
    <glyph glyph-name="Idieresis" unicode="&#xcf;" horiz-adv-x="237" 
d="M15 760q-26 0 -43 16t-17 40t17 40t43 16t43 -16t17 -40q0 -23 -17.5 -39.5t-42.5 -16.5zM223 760q-25 0 -42.5 16.5t-17.5 39.5q0 24 17 40t43 16t43 -16t17 -40q0 -23 -17.5 -39.5t-42.5 -16.5zM81 0v690h74v-690h-74z" />
    <glyph glyph-name="Eth" unicode="&#xd0;" horiz-adv-x="741" 
d="M347 690q150 0 250 -98.5t100 -246.5t-100 -246.5t-250 -98.5h-266v311h-70v68h70v311h266zM346 100q117 0 195.5 70t78.5 175t-78.5 175t-195.5 70h-191v-211h146v-68h-146v-211h191z" />
    <glyph glyph-name="Ntilde" unicode="&#xd1;" horiz-adv-x="739" 
d="M439 763q-33 0 -69.5 22.5t-56.5 22.5q-21 0 -34.5 -12t-13.5 -29h-64q0 52 27.5 86t74.5 34q33 0 69 -23t56 -23q21 0 35 12t14 30h64q0 -53 -28 -86.5t-74 -33.5zM81 0v690h93l392 -532h17v532h74v-690h-92l-392 532h-18v-532h-74z" />
    <glyph glyph-name="Ograve" unicode="&#xd2;" horiz-adv-x="812" 
d="M366 756l-134 130h125l104 -130h-95zM406 -12q-154 0 -257.5 102.5t-103.5 254.5t103.5 254.5t257.5 102.5t257.5 -102.5t103.5 -254.5t-103.5 -254.5t-257.5 -102.5zM406 90q122 0 203.5 73t81.5 182t-81.5 182t-203.5 73q-121 0 -202.5 -73t-81.5 -182t81.5 -182
t202.5 -73z" />
    <glyph glyph-name="Oacute" unicode="&#xd3;" horiz-adv-x="812" 
d="M352 756l104 130h125l-134 -130h-95zM406 -12q-154 0 -257.5 102.5t-103.5 254.5t103.5 254.5t257.5 102.5t257.5 -102.5t103.5 -254.5t-103.5 -254.5t-257.5 -102.5zM406 90q122 0 203.5 73t81.5 182t-81.5 182t-203.5 73q-121 0 -202.5 -73t-81.5 -182t81.5 -182
t202.5 -73z" />
    <glyph glyph-name="Ocircumflex" unicode="&#xd4;" horiz-adv-x="812" 
d="M252 756l100 130h108l100 -130h-81l-66 66h-7l-66 -66h-88zM406 -12q-154 0 -257.5 102.5t-103.5 254.5t103.5 254.5t257.5 102.5t257.5 -102.5t103.5 -254.5t-103.5 -254.5t-257.5 -102.5zM406 90q122 0 203.5 73t81.5 182t-81.5 182t-203.5 73q-121 0 -202.5 -73
t-81.5 -182t81.5 -182t202.5 -73z" />
    <glyph glyph-name="Otilde" unicode="&#xd5;" horiz-adv-x="812" 
d="M474 763q-33 0 -69.5 22.5t-56.5 22.5q-21 0 -34.5 -12t-13.5 -29h-64q0 52 27.5 86t74.5 34q33 0 69 -23t56 -23q21 0 35 12t14 30h64q0 -53 -28 -86.5t-74 -33.5zM406 -12q-154 0 -257.5 102.5t-103.5 254.5t103.5 254.5t257.5 102.5t257.5 -102.5t103.5 -254.5
t-103.5 -254.5t-257.5 -102.5zM406 90q122 0 203.5 73t81.5 182t-81.5 182t-203.5 73q-121 0 -202.5 -73t-81.5 -182t81.5 -182t202.5 -73z" />
    <glyph glyph-name="Odieresis" unicode="&#xd6;" horiz-adv-x="812" 
d="M302 760q-26 0 -43 16t-17 40t17 40t43 16t43 -16t17 -40q0 -23 -17.5 -39.5t-42.5 -16.5zM510 760q-25 0 -42.5 16.5t-17.5 39.5q0 24 17 40t43 16t43 -16t17 -40q0 -23 -17.5 -39.5t-42.5 -16.5zM406 -12q-154 0 -257.5 102.5t-103.5 254.5t103.5 254.5t257.5 102.5
t257.5 -102.5t103.5 -254.5t-103.5 -254.5t-257.5 -102.5zM406 90q122 0 203.5 73t81.5 182t-81.5 182t-203.5 73q-121 0 -202.5 -73t-81.5 -182t81.5 -182t202.5 -73z" />
    <glyph glyph-name="multiply" unicode="&#xd7;" horiz-adv-x="461" 
d="M107 132l-43 44l109 117v4l-110 118l44 43l117 -103h13l117 103l44 -43l-109 -118v-4l109 -117l-44 -43l-117 103h-13z" />
    <glyph glyph-name="Oslash" unicode="&#xd8;" horiz-adv-x="812" 
d="M672 591q95 -101 95 -246q0 -152 -103.5 -254.5t-257.5 -102.5q-121 0 -214 66l-48 -54h-93l89 99q-95 101 -95 246q0 152 103.5 254.5t257.5 102.5q119 0 213 -65l48 53h93zM122 345q0 -106 78 -179l355 399q-68 35 -149 35q-121 0 -202.5 -73t-81.5 -182zM406 90
q122 0 203.5 73t81.5 182q0 106 -79 179l-356 -398q67 -36 150 -36z" />
    <glyph glyph-name="Ugrave" unicode="&#xd9;" horiz-adv-x="693" 
d="M306 756l-134 130h125l104 -130h-95zM346 -12q-119 0 -199.5 79t-80.5 197v426h74v-424q0 -75 59 -125.5t147 -50.5q89 0 148 50.5t59 125.5v424h74v-426q0 -118 -80.5 -197t-200.5 -79z" />
    <glyph glyph-name="Uacute" unicode="&#xda;" horiz-adv-x="693" 
d="M292 756l104 130h125l-134 -130h-95zM346 -12q-119 0 -199.5 79t-80.5 197v426h74v-424q0 -75 59 -125.5t147 -50.5q89 0 148 50.5t59 125.5v424h74v-426q0 -118 -80.5 -197t-200.5 -79z" />
    <glyph glyph-name="Ucircumflex" unicode="&#xdb;" horiz-adv-x="693" 
d="M192 756l100 130h108l100 -130h-81l-66 66h-7l-66 -66h-88zM346 -12q-119 0 -199.5 79t-80.5 197v426h74v-424q0 -75 59 -125.5t147 -50.5q89 0 148 50.5t59 125.5v424h74v-426q0 -118 -80.5 -197t-200.5 -79z" />
    <glyph glyph-name="Udieresis" unicode="&#xdc;" horiz-adv-x="693" 
d="M242 760q-26 0 -43 16t-17 40t17 40t43 16t43 -16t17 -40q0 -23 -17.5 -39.5t-42.5 -16.5zM450 760q-25 0 -42.5 16.5t-17.5 39.5q0 24 17 40t43 16t43 -16t17 -40q0 -23 -17.5 -39.5t-42.5 -16.5zM346 -12q-119 0 -199.5 79t-80.5 197v426h74v-424q0 -75 59 -125.5
t147 -50.5q89 0 148 50.5t59 125.5v424h74v-426q0 -118 -80.5 -197t-200.5 -79z" />
    <glyph glyph-name="Yacute" unicode="&#xdd;" horiz-adv-x="646" 
d="M270 756l104 130h125l-134 -130h-95zM286 0v244l-277 446h85l214 -320h25l214 320h90l-277 -446v-244h-74z" />
    <glyph glyph-name="Thorn" unicode="&#xde;" horiz-adv-x="645" 
d="M391 573q97 0 161.5 -63.5t64.5 -158.5t-64.5 -158.5t-161.5 -63.5h-236v-129h-74v690h74v-117h236zM389 228q67 0 109.5 34.5t42.5 88.5t-42.5 88.5t-109.5 34.5h-234v-246h234z" />
    <glyph glyph-name="germandbls" unicode="&#xdf;" horiz-adv-x="531" 
d="M374 382q57 -18 92 -69t35 -119q0 -88 -62 -147t-154 -59q-39 0 -70 12v98q25 -13 61 -13q66 0 110 33.5t44 85.5q0 56 -42 93t-106 37h-48v96h42q54 0 90 30.5t36 75.5q0 43 -37.5 71t-94.5 28q-56 0 -94 -28t-38 -71v-536h-68v543q0 81 57 135t143 54q87 0 145.5 -54.5
t58.5 -133.5q0 -54 -27.5 -98t-72.5 -64z" />
    <glyph glyph-name="agrave" unicode="&#xe0;" horiz-adv-x="654" 
d="M384 576h-95l-134 130h125zM513 510h68v-510h-68v131q-29 -66 -86 -104.5t-130 -38.5q-109 0 -182 76.5t-73 190.5t73 190.5t182 76.5q73 0 130 -38.5t86 -104.5v131zM313 85q86 0 143 48.5t57 121.5t-57 121.5t-143 48.5t-143 -48.5t-57 -121.5t57 -121.5t143 -48.5z
" />
    <glyph glyph-name="aacute" unicode="&#xe1;" horiz-adv-x="654" 
d="M504 706l-134 -130h-95l104 130h125zM513 510h68v-510h-68v131q-29 -66 -86 -104.5t-130 -38.5q-109 0 -182 76.5t-73 190.5t73 190.5t182 76.5q73 0 130 -38.5t86 -104.5v131zM313 85q86 0 143 48.5t57 121.5t-57 121.5t-143 48.5t-143 -48.5t-57 -121.5t57 -121.5
t143 -48.5z" />
    <glyph glyph-name="acircumflex" unicode="&#xe2;" horiz-adv-x="654" 
d="M330 642l-66 -66h-88l100 130h108l100 -130h-81l-66 66h-7zM513 510h68v-510h-68v131q-29 -66 -86 -104.5t-130 -38.5q-109 0 -182 76.5t-73 190.5t73 190.5t182 76.5q73 0 130 -38.5t86 -104.5v131zM313 85q86 0 143 48.5t57 121.5t-57 121.5t-143 48.5t-143 -48.5
t-57 -121.5t57 -121.5t143 -48.5z" />
    <glyph glyph-name="atilde" unicode="&#xe3;" horiz-adv-x="654" 
d="M271 628q-21 0 -34.5 -12t-13.5 -29h-64q0 52 27.5 86t74.5 34q33 0 69 -23t56 -23q21 0 35 12t14 30h64q0 -53 -28 -86.5t-74 -33.5q-33 0 -69.5 22.5t-56.5 22.5zM513 510h68v-510h-68v131q-29 -66 -86 -104.5t-130 -38.5q-109 0 -182 76.5t-73 190.5t73 190.5
t182 76.5q73 0 130 -38.5t86 -104.5v131zM313 85q86 0 143 48.5t57 121.5t-57 121.5t-143 48.5t-143 -48.5t-57 -121.5t57 -121.5t143 -48.5z" />
    <glyph glyph-name="adieresis" unicode="&#xe4;" horiz-adv-x="654" 
d="M226 580q-26 0 -43 16t-17 40t17 40t43 16t43 -16t17 -40q0 -23 -17.5 -39.5t-42.5 -16.5zM434 580q-25 0 -42.5 16.5t-17.5 39.5q0 24 17 40t43 16t43 -16t17 -40q0 -23 -17.5 -39.5t-42.5 -16.5zM513 510h68v-510h-68v131q-29 -66 -86 -104.5t-130 -38.5
q-109 0 -182 76.5t-73 190.5t73 190.5t182 76.5q73 0 130 -38.5t86 -104.5v131zM313 85q86 0 143 48.5t57 121.5t-57 121.5t-143 48.5t-143 -48.5t-57 -121.5t57 -121.5t143 -48.5z" />
    <glyph glyph-name="aring" unicode="&#xe5;" horiz-adv-x="654" 
d="M329 563q-38 0 -63.5 24.5t-25.5 61.5t25.5 61.5t63.5 24.5t64 -24.5t26 -61.5t-26 -61.5t-64 -24.5zM329 683q-18 0 -30.5 -9.5t-12.5 -24.5t12.5 -24.5t30.5 -9.5q19 0 31.5 9.5t12.5 24.5t-12.5 24.5t-31.5 9.5zM513 510h68v-510h-68v131q-29 -66 -86 -104.5
t-130 -38.5q-109 0 -182 76.5t-73 190.5t73 190.5t182 76.5q73 0 130 -38.5t86 -104.5v131zM313 85q86 0 143 48.5t57 121.5t-57 121.5t-143 48.5t-143 -48.5t-57 -121.5t57 -121.5t143 -48.5z" />
    <glyph glyph-name="ae" unicode="&#xe6;" horiz-adv-x="1038" 
d="M999 253q0 -5 -0.5 -17t-0.5 -17h-471q14 -60 69 -97t134 -37q66 0 116.5 23.5t69.5 62.5h74q-27 -83 -97.5 -133t-164.5 -50q-69 0 -127 29t-95 81q-30 -50 -93.5 -80t-144.5 -30q-96 0 -162 49t-66 121q0 74 63 123t156 49q133 0 198 -78v75q0 44 -46 71t-120 27
q-65 0 -109 -17.5t-55 -46.5h-70q13 72 76 116.5t158 44.5q76 0 132 -30.5t80 -83.5q36 53 95.5 83.5t129.5 30.5q116 0 193.5 -76.5t77.5 -192.5zM728 425q-77 0 -132 -36.5t-69 -96.5h402q-12 59 -68 96t-133 37zM284 82q72 0 125.5 18.5t69.5 46.5q-9 21 -15 45
q-14 19 -64.5 31.5t-115.5 12.5q-74 0 -123.5 -22t-49.5 -56q0 -32 49.5 -54t123.5 -22z" />
    <glyph glyph-name="ccedilla" unicode="&#xe7;" horiz-adv-x="610" 
d="M312 85q64 0 114 28t72 74h75q-20 -83 -84 -137t-152 -61l-20 -23h8q41 0 69 -27.5t28 -67.5q0 -41 -31.5 -69t-77.5 -28t-77 28t-31 69h55q0 -16 15.5 -27.5t37.5 -11.5q23 0 38.5 11.5t15.5 27.5q0 18 -15 30t-38 12q-26 0 -42 -13l-49 25l53 65q-103 12 -169.5 86
t-66.5 179q0 114 78 190.5t194 76.5q97 0 168.5 -55t92.5 -144h-75q-22 46 -72 74t-114 28q-86 0 -143 -48.5t-57 -121.5t57 -121.5t143 -48.5z" />
    <glyph glyph-name="egrave" unicode="&#xe8;" horiz-adv-x="622" 
d="M366 576h-95l-134 130h125zM583 253q0 -12 -2 -34h-468q14 -59 69 -96t132 -37q117 0 175 61h83q-32 -73 -101.5 -116t-157.5 -43q-117 0 -195 76.5t-78 190.5t78 190.5t194 76.5t193.5 -76.5t77.5 -192.5zM312 424q-75 0 -130 -36.5t-69 -95.5h398q-14 59 -69 95.5
t-130 36.5z" />
    <glyph glyph-name="eacute" unicode="&#xe9;" horiz-adv-x="622" 
d="M487 706l-134 -130h-95l104 130h125zM583 253q0 -12 -2 -34h-468q14 -59 69 -96t132 -37q117 0 175 61h83q-32 -73 -101.5 -116t-157.5 -43q-117 0 -195 76.5t-78 190.5t78 190.5t194 76.5t193.5 -76.5t77.5 -192.5zM312 424q-75 0 -130 -36.5t-69 -95.5h398
q-14 59 -69 95.5t-130 36.5z" />
    <glyph glyph-name="ecircumflex" unicode="&#xea;" horiz-adv-x="622" 
d="M312 642l-66 -66h-88l100 130h108l100 -130h-81l-66 66h-7zM583 253q0 -12 -2 -34h-468q14 -59 69 -96t132 -37q117 0 175 61h83q-32 -73 -101.5 -116t-157.5 -43q-117 0 -195 76.5t-78 190.5t78 190.5t194 76.5t193.5 -76.5t77.5 -192.5zM312 424q-75 0 -130 -36.5
t-69 -95.5h398q-14 59 -69 95.5t-130 36.5z" />
    <glyph glyph-name="edieresis" unicode="&#xeb;" horiz-adv-x="622" 
d="M208 580q-26 0 -43 16t-17 40t17 40t43 16t43 -16t17 -40q0 -23 -17.5 -39.5t-42.5 -16.5zM416 580q-25 0 -42.5 16.5t-17.5 39.5q0 24 17 40t43 16t43 -16t17 -40q0 -23 -17.5 -39.5t-42.5 -16.5zM583 253q0 -12 -2 -34h-468q14 -59 69 -96t132 -37q117 0 175 61h83
q-32 -73 -101.5 -116t-157.5 -43q-117 0 -195 76.5t-78 190.5t78 190.5t194 76.5t193.5 -76.5t77.5 -192.5zM312 424q-75 0 -130 -36.5t-69 -95.5h398q-14 59 -69 95.5t-130 36.5z" />
    <glyph glyph-name="igrave" unicode="&#xec;" horiz-adv-x="214" 
d="M66 576l-134 130h125l104 -130h-95zM73 0v510h68v-510h-68z" />
    <glyph glyph-name="iacute" unicode="&#xed;" horiz-adv-x="214" 
d="M53 576l104 130h125l-134 -130h-95zM73 0v510h68v-510h-68z" />
    <glyph glyph-name="icircumflex" unicode="&#xee;" horiz-adv-x="214" 
d="M-47 576l100 130h108l100 -130h-81l-66 66h-7l-66 -66h-88zM73 0v510h68v-510h-68z" />
    <glyph glyph-name="idieresis" unicode="&#xef;" horiz-adv-x="214" 
d="M3 580q-26 0 -43 16t-17 40t17 40t43 16t43 -16t17 -40q0 -23 -17.5 -39.5t-42.5 -16.5zM211 580q-25 0 -42.5 16.5t-17.5 39.5q0 24 17 40t43 16t43 -16t17 -40q0 -23 -17.5 -39.5t-42.5 -16.5zM73 0v510h68v-510h-68z" />
    <glyph glyph-name="eth" unicode="&#xf0;" horiz-adv-x="605" 
d="M345 655q103 -65 161 -171t58 -225q0 -122 -74 -196.5t-187 -74.5q-114 0 -189 74t-75 185q0 110 71.5 183t178.5 73q109 0 180 -84q-57 116 -183 173l-50 -53h-71l68 72q-40 13 -91 19v95q86 -11 156 -45l42 45h71zM302 85q82 0 136.5 46t54.5 115t-54.5 115.5
t-136.5 46.5t-137 -46.5t-55 -115.5t55 -115t137 -46z" />
    <glyph glyph-name="ntilde" unicode="&#xf1;" horiz-adv-x="616" 
d="M253 628q-21 0 -34.5 -12t-13.5 -29h-64q0 52 27.5 86t74.5 34q33 0 69 -23t56 -23q21 0 35 12t14 30h64q0 -53 -28 -86.5t-74 -33.5q-33 0 -69.5 22.5t-56.5 22.5zM343 522q93 0 150 -56.5t57 -150.5v-315h-68v288q0 62 -45.5 99.5t-121.5 37.5q-78 0 -126 -38t-48 -101
v-286h-68v510h68v-117q27 62 79.5 95.5t122.5 33.5z" />
    <glyph glyph-name="ograve" unicode="&#xf2;" horiz-adv-x="623" 
d="M271 576l-134 130h125l104 -130h-95zM312 -12q-116 0 -194 76.5t-78 190.5t78 190.5t194 76.5t193.5 -76.5t77.5 -190.5t-77.5 -190.5t-193.5 -76.5zM312 85q86 0 143 48.5t57 121.5t-57 121.5t-143 48.5t-143 -48.5t-57 -121.5t57 -121.5t143 -48.5z" />
    <glyph glyph-name="oacute" unicode="&#xf3;" horiz-adv-x="623" 
d="M258 576l104 130h125l-134 -130h-95zM312 -12q-116 0 -194 76.5t-78 190.5t78 190.5t194 76.5t193.5 -76.5t77.5 -190.5t-77.5 -190.5t-193.5 -76.5zM312 85q86 0 143 48.5t57 121.5t-57 121.5t-143 48.5t-143 -48.5t-57 -121.5t57 -121.5t143 -48.5z" />
    <glyph glyph-name="ocircumflex" unicode="&#xf4;" horiz-adv-x="623" 
d="M158 576l100 130h108l100 -130h-81l-66 66h-7l-66 -66h-88zM312 -12q-116 0 -194 76.5t-78 190.5t78 190.5t194 76.5t193.5 -76.5t77.5 -190.5t-77.5 -190.5t-193.5 -76.5zM312 85q86 0 143 48.5t57 121.5t-57 121.5t-143 48.5t-143 -48.5t-57 -121.5t57 -121.5
t143 -48.5z" />
    <glyph glyph-name="otilde" unicode="&#xf5;" horiz-adv-x="623" 
d="M380 583q-33 0 -69.5 22.5t-56.5 22.5q-21 0 -34.5 -12t-13.5 -29h-64q0 52 27.5 86t74.5 34q33 0 69 -23t56 -23q21 0 35 12t14 30h64q0 -53 -28 -86.5t-74 -33.5zM312 -12q-116 0 -194 76.5t-78 190.5t78 190.5t194 76.5t193.5 -76.5t77.5 -190.5t-77.5 -190.5
t-193.5 -76.5zM312 85q86 0 143 48.5t57 121.5t-57 121.5t-143 48.5t-143 -48.5t-57 -121.5t57 -121.5t143 -48.5z" />
    <glyph glyph-name="odieresis" unicode="&#xf6;" horiz-adv-x="623" 
d="M208 580q-26 0 -43 16t-17 40t17 40t43 16t43 -16t17 -40q0 -23 -17.5 -39.5t-42.5 -16.5zM416 580q-25 0 -42.5 16.5t-17.5 39.5q0 24 17 40t43 16t43 -16t17 -40q0 -23 -17.5 -39.5t-42.5 -16.5zM312 -12q-116 0 -194 76.5t-78 190.5t78 190.5t194 76.5t193.5 -76.5
t77.5 -190.5t-77.5 -190.5t-193.5 -76.5zM312 85q86 0 143 48.5t57 121.5t-57 121.5t-143 48.5t-143 -48.5t-57 -121.5t57 -121.5t143 -48.5z" />
    <glyph glyph-name="divide" unicode="&#xf7;" horiz-adv-x="534" 
d="M267 403q-26 0 -44 15.5t-18 38.5t18 38.5t44 15.5t44 -15.5t18 -38.5t-18 -38.5t-44 -15.5zM63 253v85h408v-85h-408zM267 80q-26 0 -44 15.5t-18 38.5t18 38.5t44 15.5t44 -15.5t18 -38.5t-18 -38.5t-44 -15.5z" />
    <glyph glyph-name="oslash" unicode="&#xf8;" horiz-adv-x="623" 
d="M584 510l-69 -75q68 -74 68 -180q0 -114 -77.5 -190.5t-193.5 -76.5q-91 0 -161 49l-34 -37h-79l69 76q-67 73 -67 179q0 114 78 190.5t194 76.5q89 0 160 -49l33 37h79zM112 255q0 -70 52 -117l245 267q-43 20 -97 20q-86 0 -143 -48.5t-57 -121.5zM512 255
q0 70 -53 118l-245 -268q43 -20 98 -20q86 0 143 48.5t57 121.5z" />
    <glyph glyph-name="ugrave" unicode="&#xf9;" horiz-adv-x="597" 
d="M349 576h-95l-134 130h125zM455 510h69v-510h-69v112q-55 -124 -191 -124q-89 0 -144 55t-55 146v321h69v-297q0 -58 43 -93t114 -35q74 0 119 36t45 94v295z" />
    <glyph glyph-name="uacute" unicode="&#xfa;" horiz-adv-x="597" 
d="M470 706l-134 -130h-95l104 130h125zM455 510h69v-510h-69v112q-55 -124 -191 -124q-89 0 -144 55t-55 146v321h69v-297q0 -58 43 -93t114 -35q74 0 119 36t45 94v295z" />
    <glyph glyph-name="ucircumflex" unicode="&#xfb;" horiz-adv-x="597" 
d="M295 642l-66 -66h-88l100 130h108l100 -130h-81l-66 66h-7zM455 510h69v-510h-69v112q-55 -124 -191 -124q-89 0 -144 55t-55 146v321h69v-297q0 -58 43 -93t114 -35q74 0 119 36t45 94v295z" />
    <glyph glyph-name="udieresis" unicode="&#xfc;" horiz-adv-x="597" 
d="M191 580q-26 0 -43 16t-17 40t17 40t43 16t43 -16t17 -40q0 -23 -17.5 -39.5t-42.5 -16.5zM399 580q-25 0 -42.5 16.5t-17.5 39.5q0 24 17 40t43 16t43 -16t17 -40q0 -23 -17.5 -39.5t-42.5 -16.5zM455 510h69v-510h-69v112q-55 -124 -191 -124q-89 0 -144 55t-55 146
v321h69v-297q0 -58 43 -93t114 -35q74 0 119 36t45 94v295z" />
    <glyph glyph-name="yacute" unicode="&#xfd;" horiz-adv-x="543" 
d="M447 706l-134 -130h-95l104 130h125zM449 510h80l-282 -700h-90l90 190h-27l-206 510h73l170 -395h22z" />
    <glyph glyph-name="thorn" unicode="&#xfe;" horiz-adv-x="654" 
d="M357 522q109 0 182.5 -76.5t73.5 -190.5t-73.5 -190.5t-182.5 -76.5q-73 0 -130 38.5t-86 104.5v-321h-68v910h68v-341q29 66 86 104.5t130 38.5zM341 85q86 0 143 48.5t57 121.5t-57 121.5t-143 48.5t-143 -48.5t-57 -121.5t57 -121.5t143 -48.5z" />
    <glyph glyph-name="ydieresis" unicode="&#xff;" horiz-adv-x="543" 
d="M168 580q-26 0 -43 16t-17 40t17 40t43 16t43 -16t17 -40q0 -23 -17.5 -39.5t-42.5 -16.5zM376 580q-25 0 -42.5 16.5t-17.5 39.5q0 24 17 40t43 16t43 -16t17 -40q0 -23 -17.5 -39.5t-42.5 -16.5zM449 510h80l-282 -700h-90l90 190h-27l-206 510h73l170 -395h22z" />
    <glyph glyph-name="Amacron" unicode="&#x100;" horiz-adv-x="723" 
d="M480 855v-83h-237v83h237zM623 0l-69 162h-380l-69 -162h-85l282 690h119l281 -690h-79zM216 262h295l-133 312h-29z" />
    <glyph glyph-name="amacron" unicode="&#x101;" horiz-adv-x="654" 
d="M448 675v-83h-237v83h237zM513 510h68v-510h-68v131q-29 -66 -86 -104.5t-130 -38.5q-109 0 -182 76.5t-73 190.5t73 190.5t182 76.5q73 0 130 -38.5t86 -104.5v131zM313 85q86 0 143 48.5t57 121.5t-57 121.5t-143 48.5t-143 -48.5t-57 -121.5t57 -121.5t143 -48.5z" />
    <glyph glyph-name="Abreve" unicode="&#x102;" horiz-adv-x="723" 
d="M361 746q-59 0 -99 39t-40 97h66q0 -25 21 -42t52 -17t52 17t21 42h66q0 -58 -40 -97t-99 -39zM623 0l-69 162h-380l-69 -162h-85l282 690h119l281 -690h-79zM216 262h295l-133 312h-29z" />
    <glyph glyph-name="abreve" unicode="&#x103;" horiz-adv-x="654" 
d="M329 566q-59 0 -99 39t-40 97h66q0 -25 21 -42t52 -17t52 17t21 42h66q0 -58 -40 -97t-99 -39zM513 510h68v-510h-68v131q-29 -66 -86 -104.5t-130 -38.5q-109 0 -182 76.5t-73 190.5t73 190.5t182 76.5q73 0 130 -38.5t86 -104.5v131zM313 85q86 0 143 48.5t57 121.5
t-57 121.5t-143 48.5t-143 -48.5t-57 -121.5t57 -121.5t143 -48.5z" />
    <glyph glyph-name="Aogonek" unicode="&#x104;" horiz-adv-x="723" 
d="M650 -144q34 0 63 17v-74q-34 -22 -79 -22q-46 0 -77 28t-31 69q0 39 30.5 73t79.5 53h-13l-69 162h-380l-69 -162h-85l282 690h119l281 -690q-104 -47 -104 -102q0 -19 15.5 -30.5t36.5 -11.5zM216 262h295l-133 312h-29z" />
    <glyph glyph-name="aogonek" unicode="&#x105;" horiz-adv-x="654" 
d="M529 -144q34 0 63 17v-74q-34 -22 -79 -22q-46 0 -77 28t-31 69q0 39 30.5 73t79.5 53h-2v131q-29 -66 -86 -104.5t-130 -38.5q-109 0 -182 76.5t-73 190.5t73 190.5t182 76.5q73 0 130 -38.5t86 -104.5v131h68v-510q-104 -47 -104 -102q0 -19 15.5 -30.5t36.5 -11.5z
M313 85q86 0 143 48.5t57 121.5t-57 121.5t-143 48.5t-143 -48.5t-57 -121.5t57 -121.5t143 -48.5z" />
    <glyph glyph-name="Cacute" unicode="&#x106;" horiz-adv-x="793" 
d="M352 756l104 130h125l-134 -130h-95zM406 -12q-154 0 -257.5 102.5t-103.5 254.5t103.5 254.5t257.5 102.5q127 0 222.5 -72.5t125.5 -188.5h-80q-31 72 -102.5 115.5t-165.5 43.5q-121 0 -202.5 -73t-81.5 -182t81.5 -182t202.5 -73q94 0 165.5 43.5t102.5 115.5h80
q-30 -116 -125.5 -188.5t-222.5 -72.5z" />
    <glyph glyph-name="cacute" unicode="&#x107;" horiz-adv-x="610" 
d="M258 576l104 130h125l-134 -130h-95zM312 -12q-116 0 -194 76.5t-78 190.5t78 190.5t194 76.5q97 0 168.5 -55t92.5 -144h-75q-22 46 -72 74t-114 28q-86 0 -143 -48.5t-57 -121.5t57 -121.5t143 -48.5q64 0 114 28t72 74h75q-21 -89 -92.5 -144t-168.5 -55z" />
    <glyph glyph-name="Ccircumflex" unicode="&#x108;" horiz-adv-x="793" 
d="M252 756l100 130h108l100 -130h-81l-66 66h-7l-66 -66h-88zM406 -12q-154 0 -257.5 102.5t-103.5 254.5t103.5 254.5t257.5 102.5q127 0 222.5 -72.5t125.5 -188.5h-80q-31 72 -102.5 115.5t-165.5 43.5q-121 0 -202.5 -73t-81.5 -182t81.5 -182t202.5 -73
q94 0 165.5 43.5t102.5 115.5h80q-30 -116 -125.5 -188.5t-222.5 -72.5z" />
    <glyph glyph-name="ccircumflex" unicode="&#x109;" horiz-adv-x="610" 
d="M158 576l100 130h108l100 -130h-81l-66 66h-7l-66 -66h-88zM312 -12q-116 0 -194 76.5t-78 190.5t78 190.5t194 76.5q97 0 168.5 -55t92.5 -144h-75q-22 46 -72 74t-114 28q-86 0 -143 -48.5t-57 -121.5t57 -121.5t143 -48.5q64 0 114 28t72 74h75q-21 -89 -92.5 -144
t-168.5 -55z" />
    <glyph glyph-name="Cdotaccent" unicode="&#x10a;" horiz-adv-x="793" 
d="M406 760q-27 0 -45 17t-18 41q0 25 18 42t45 17q26 0 44.5 -17t18.5 -42q0 -24 -18.5 -41t-44.5 -17zM406 -12q-154 0 -257.5 102.5t-103.5 254.5t103.5 254.5t257.5 102.5q127 0 222.5 -72.5t125.5 -188.5h-80q-31 72 -102.5 115.5t-165.5 43.5q-121 0 -202.5 -73
t-81.5 -182t81.5 -182t202.5 -73q94 0 165.5 43.5t102.5 115.5h80q-30 -116 -125.5 -188.5t-222.5 -72.5z" />
    <glyph glyph-name="cdotaccent" unicode="&#x10b;" horiz-adv-x="610" 
d="M312 580q-27 0 -45 17t-18 41q0 25 18 42t45 17q26 0 44.5 -17t18.5 -42q0 -24 -18.5 -41t-44.5 -17zM312 -12q-116 0 -194 76.5t-78 190.5t78 190.5t194 76.5q97 0 168.5 -55t92.5 -144h-75q-22 46 -72 74t-114 28q-86 0 -143 -48.5t-57 -121.5t57 -121.5t143 -48.5
q64 0 114 28t72 74h75q-21 -89 -92.5 -144t-168.5 -55z" />
    <glyph glyph-name="Ccaron" unicode="&#x10c;" horiz-adv-x="793" 
d="M352 756l-100 130h88l66 -66h7l66 66h81l-100 -130h-108zM406 -12q-154 0 -257.5 102.5t-103.5 254.5t103.5 254.5t257.5 102.5q127 0 222.5 -72.5t125.5 -188.5h-80q-31 72 -102.5 115.5t-165.5 43.5q-121 0 -202.5 -73t-81.5 -182t81.5 -182t202.5 -73q94 0 165.5 43.5
t102.5 115.5h80q-30 -116 -125.5 -188.5t-222.5 -72.5z" />
    <glyph glyph-name="ccaron" unicode="&#x10d;" horiz-adv-x="610" 
d="M258 576l-100 130h88l66 -66h7l66 66h81l-100 -130h-108zM312 -12q-116 0 -194 76.5t-78 190.5t78 190.5t194 76.5q97 0 168.5 -55t92.5 -144h-75q-22 46 -72 74t-114 28q-86 0 -143 -48.5t-57 -121.5t57 -121.5t143 -48.5q64 0 114 28t72 74h75q-21 -89 -92.5 -144
t-168.5 -55z" />
    <glyph glyph-name="Dcaron" unicode="&#x10e;" horiz-adv-x="741" 
d="M416 756h-108l-100 130h88l66 -66h7l66 66h81zM347 690q150 0 250 -98.5t100 -246.5t-100 -246.5t-250 -98.5h-266v690h266zM346 100q117 0 195.5 70t78.5 175t-78.5 175t-195.5 70h-191v-490h191z" />
    <glyph glyph-name="dcaron" unicode="&#x10f;" horiz-adv-x="750" 
d="M698 732q27 0 44 -19t17 -50q0 -38 -13 -78t-34 -67h-77q55 44 76 113q-10 -2 -17 -2q-23 0 -39 14.5t-16 36.5t16.5 37t42.5 15zM513 379v341h68v-720h-68v131q-29 -66 -86 -104.5t-130 -38.5q-109 0 -182 76.5t-73 190.5t73 190.5t182 76.5q73 0 130 -38.5t86 -104.5z
M313 85q86 0 143 48.5t57 121.5t-57 121.5t-143 48.5t-143 -48.5t-57 -121.5t57 -121.5t143 -48.5z" />
    <glyph glyph-name="Dcroat" unicode="&#x110;" horiz-adv-x="741" 
d="M347 690q150 0 250 -98.5t100 -246.5t-100 -246.5t-250 -98.5h-266v311h-70v68h70v311h266zM346 100q117 0 195.5 70t78.5 175t-78.5 175t-195.5 70h-191v-211h146v-68h-146v-211h191z" />
    <glyph glyph-name="dcroat" unicode="&#x111;" horiz-adv-x="654" 
d="M654 642v-68h-73v-574h-68v131q-29 -66 -86 -104.5t-130 -38.5q-109 0 -182 76.5t-73 190.5t73 190.5t182 76.5q73 0 130 -38.5t86 -104.5v195h-149v68h149v78h68v-78h73zM313 85q86 0 143 48.5t57 121.5t-57 121.5t-143 48.5t-143 -48.5t-57 -121.5t57 -121.5t143 -48.5
z" />
    <glyph glyph-name="Emacron" unicode="&#x112;" horiz-adv-x="613" 
d="M451 855v-83h-237v83h237zM155 100h413v-100h-487v690h482v-100h-408v-195h375v-96h-375v-199z" />
    <glyph glyph-name="emacron" unicode="&#x113;" horiz-adv-x="622" 
d="M430 675v-83h-237v83h237zM583 253q0 -12 -2 -34h-468q14 -59 69 -96t132 -37q117 0 175 61h83q-32 -73 -101.5 -116t-157.5 -43q-117 0 -195 76.5t-78 190.5t78 190.5t194 76.5t193.5 -76.5t77.5 -192.5zM312 424q-75 0 -130 -36.5t-69 -95.5h398q-14 59 -69 95.5
t-130 36.5z" />
    <glyph glyph-name="Ebreve" unicode="&#x114;" horiz-adv-x="613" 
d="M332 746q-59 0 -99 39t-40 97h66q0 -25 21 -42t52 -17t52 17t21 42h66q0 -58 -40 -97t-99 -39zM155 100h413v-100h-487v690h482v-100h-408v-195h375v-96h-375v-199z" />
    <glyph glyph-name="ebreve" unicode="&#x115;" horiz-adv-x="622" 
d="M312 566q-59 0 -99 39t-40 97h66q0 -25 21 -42t52 -17t52 17t21 42h66q0 -58 -40 -97t-99 -39zM583 253q0 -12 -2 -34h-468q14 -59 69 -96t132 -37q117 0 175 61h83q-32 -73 -101.5 -116t-157.5 -43q-117 0 -195 76.5t-78 190.5t78 190.5t194 76.5t193.5 -76.5
t77.5 -192.5zM312 424q-75 0 -130 -36.5t-69 -95.5h398q-14 59 -69 95.5t-130 36.5z" />
    <glyph glyph-name="Edotaccent" unicode="&#x116;" horiz-adv-x="613" 
d="M333 760q-27 0 -45 17t-18 41q0 25 18 42t45 17q26 0 44.5 -17t18.5 -42q0 -24 -18.5 -41t-44.5 -17zM155 100h413v-100h-487v690h482v-100h-408v-195h375v-96h-375v-199z" />
    <glyph glyph-name="edotaccent" unicode="&#x117;" horiz-adv-x="622" 
d="M312 580q-27 0 -45 17t-18 41q0 25 18 42t45 17q26 0 44.5 -17t18.5 -42q0 -24 -18.5 -41t-44.5 -17zM583 253q0 -12 -2 -34h-468q14 -59 69 -96t132 -37q117 0 175 61h83q-32 -73 -101.5 -116t-157.5 -43q-117 0 -195 76.5t-78 190.5t78 190.5t194 76.5t193.5 -76.5
t77.5 -192.5zM312 424q-75 0 -130 -36.5t-69 -95.5h398q-14 59 -69 95.5t-130 36.5z" />
    <glyph glyph-name="Eogonek" unicode="&#x118;" horiz-adv-x="613" 
d="M506 -144q34 0 63 17v-74q-34 -22 -79 -22q-46 0 -77 28t-31 69q0 39 30.5 73t79.5 53h-411v690h482v-100h-408v-195h375v-96h-375v-199h413v-100h-10q-104 -47 -104 -102q0 -19 15.5 -30.5t36.5 -11.5z" />
    <glyph glyph-name="eogonek" unicode="&#x119;" horiz-adv-x="622" 
d="M583 253q0 -12 -2 -34h-468q14 -59 69 -96t132 -37q117 0 175 61h83q-41 -93 -138 -135q-76 -54 -76 -109q0 -21 15.5 -34t38.5 -13q42 0 66 22v-75q-31 -26 -84 -26q-47 0 -79 29.5t-32 73.5q0 60 55 109q-8 -1 -25 -1q-117 0 -195 76.5t-78 190.5t78 190.5t194 76.5
t193.5 -76.5t77.5 -192.5zM312 424q-75 0 -130 -36.5t-69 -95.5h398q-14 59 -69 95.5t-130 36.5z" />
    <glyph glyph-name="Ecaron" unicode="&#x11a;" horiz-adv-x="613" 
d="M387 756h-108l-100 130h88l66 -66h7l66 66h81zM155 100h413v-100h-487v690h482v-100h-408v-195h375v-96h-375v-199z" />
    <glyph glyph-name="ecaron" unicode="&#x11b;" horiz-adv-x="622" 
d="M366 576h-108l-100 130h88l66 -66h7l66 66h81zM583 253q0 -12 -2 -34h-468q14 -59 69 -96t132 -37q117 0 175 61h83q-32 -73 -101.5 -116t-157.5 -43q-117 0 -195 76.5t-78 190.5t78 190.5t194 76.5t193.5 -76.5t77.5 -192.5zM312 424q-75 0 -130 -36.5t-69 -95.5h398
q-14 59 -69 95.5t-130 36.5z" />
    <glyph glyph-name="Gcircumflex" unicode="&#x11c;" horiz-adv-x="825" 
d="M406 822l-66 -66h-88l100 130h108l100 -130h-81l-66 66h-7zM419 375h344v-375h-59v181q-40 -91 -116.5 -142t-181.5 -51q-154 0 -257.5 102.5t-103.5 254.5t103.5 254.5t257.5 102.5q122 0 215 -66t125 -171h-87q-32 62 -99.5 98.5t-153.5 36.5q-121 0 -202.5 -73
t-81.5 -182t81.5 -182t202.5 -73q105 0 182 52.5t98 136.5h-267v96z" />
    <glyph glyph-name="gcircumflex" unicode="&#x11d;" horiz-adv-x="653" 
d="M328 642l-66 -66h-88l100 130h108l100 -130h-81l-66 66h-7zM514 510h68v-455q0 -116 -71.5 -186.5t-188.5 -70.5q-95 0 -161.5 48.5t-89.5 132.5h72q21 -41 68.5 -64.5t110.5 -23.5q86 0 139 45t53 120v83q-29 -65 -86.5 -103t-130.5 -38q-109 0 -182 74.5t-73 187.5
q0 112 73 187t182 75q73 0 130.5 -38t86.5 -103v129zM314 90q86 0 143 48.5t57 121.5q0 72 -57.5 121t-142.5 49q-86 0 -143 -49t-57 -121q0 -73 57 -121.5t143 -48.5z" />
    <glyph glyph-name="Gbreve" unicode="&#x11e;" horiz-adv-x="825" 
d="M406 746q-59 0 -99 39t-40 97h66q0 -25 21 -42t52 -17t52 17t21 42h66q0 -58 -40 -97t-99 -39zM419 375h344v-375h-59v181q-40 -91 -116.5 -142t-181.5 -51q-154 0 -257.5 102.5t-103.5 254.5t103.5 254.5t257.5 102.5q122 0 215 -66t125 -171h-87q-32 62 -99.5 98.5
t-153.5 36.5q-121 0 -202.5 -73t-81.5 -182t81.5 -182t202.5 -73q105 0 182 52.5t98 136.5h-267v96z" />
    <glyph glyph-name="gbreve" unicode="&#x11f;" horiz-adv-x="653" 
d="M328 566q-59 0 -99 39t-40 97h66q0 -25 21 -42t52 -17t52 17t21 42h66q0 -58 -40 -97t-99 -39zM514 510h68v-455q0 -116 -71.5 -186.5t-188.5 -70.5q-95 0 -161.5 48.5t-89.5 132.5h72q21 -41 68.5 -64.5t110.5 -23.5q86 0 139 45t53 120v83q-29 -65 -86.5 -103
t-130.5 -38q-109 0 -182 74.5t-73 187.5q0 112 73 187t182 75q73 0 130.5 -38t86.5 -103v129zM314 90q86 0 143 48.5t57 121.5q0 72 -57.5 121t-142.5 49q-86 0 -143 -49t-57 -121q0 -73 57 -121.5t143 -48.5z" />
    <glyph glyph-name="Gdotaccent" unicode="&#x120;" horiz-adv-x="825" 
d="M406 760q-27 0 -45 17t-18 41q0 25 18 42t45 17q26 0 44.5 -17t18.5 -42q0 -24 -18.5 -41t-44.5 -17zM419 375h344v-375h-59v181q-40 -91 -116.5 -142t-181.5 -51q-154 0 -257.5 102.5t-103.5 254.5t103.5 254.5t257.5 102.5q122 0 215 -66t125 -171h-87
q-32 62 -99.5 98.5t-153.5 36.5q-121 0 -202.5 -73t-81.5 -182t81.5 -182t202.5 -73q105 0 182 52.5t98 136.5h-267v96z" />
    <glyph glyph-name="gdotaccent" unicode="&#x121;" horiz-adv-x="653" 
d="M328 580q-27 0 -45 17t-18 41q0 25 18 42t45 17q26 0 44.5 -17t18.5 -42q0 -24 -18.5 -41t-44.5 -17zM514 510h68v-455q0 -116 -71.5 -186.5t-188.5 -70.5q-95 0 -161.5 48.5t-89.5 132.5h72q21 -41 68.5 -64.5t110.5 -23.5q86 0 139 45t53 120v83q-29 -65 -86.5 -103
t-130.5 -38q-109 0 -182 74.5t-73 187.5q0 112 73 187t182 75q73 0 130.5 -38t86.5 -103v129zM314 90q86 0 143 48.5t57 121.5q0 72 -57.5 121t-142.5 49q-86 0 -143 -49t-57 -121q0 -73 57 -121.5t143 -48.5z" />
    <glyph glyph-name="uni0122" unicode="&#x122;" horiz-adv-x="825" 
d="M419 375h344v-375h-59v181q-40 -91 -116.5 -142t-181.5 -51q-154 0 -257.5 102.5t-103.5 254.5t103.5 254.5t257.5 102.5q122 0 215 -66t125 -171h-87q-32 62 -99.5 98.5t-153.5 36.5q-121 0 -202.5 -73t-81.5 -182t81.5 -182t202.5 -73q105 0 182 52.5t98 136.5h-267v96
zM409 -70q28 0 45 -18.5t17 -49.5q0 -74 -49 -125h-81q58 35 81 93q-8 -2 -16 -2q-24 0 -40.5 14.5t-16.5 36.5t17 36.5t43 14.5z" />
    <glyph glyph-name="uni0123" unicode="&#x123;" horiz-adv-x="653" 
d="M325 580q-28 0 -45 18.5t-17 49.5q0 73 50 125h80q-59 -37 -81 -93q8 2 16 2q25 0 41 -14.5t16 -36.5t-17 -36.5t-43 -14.5zM514 510h68v-455q0 -116 -71.5 -186.5t-188.5 -70.5q-95 0 -161.5 48.5t-89.5 132.5h72q21 -41 68.5 -64.5t110.5 -23.5q86 0 139 45t53 120v83
q-29 -65 -86.5 -103t-130.5 -38q-109 0 -182 74.5t-73 187.5q0 112 73 187t182 75q73 0 130.5 -38t86.5 -103v129zM314 90q86 0 143 48.5t57 121.5q0 72 -57.5 121t-142.5 49q-86 0 -143 -49t-57 -121q0 -73 57 -121.5t143 -48.5z" />
    <glyph glyph-name="Hcircumflex" unicode="&#x124;" horiz-adv-x="730" 
d="M366 822l-66 -66h-88l100 130h108l100 -130h-81l-66 66h-7zM575 690h74v-690h-74v294h-420v-294h-74v690h74v-290h420v290z" />
    <glyph glyph-name="hcircumflex" unicode="&#x125;" horiz-adv-x="616" 
d="M114 831h-7l-66 -66h-88l100 130h108l100 -130h-81zM343 522q93 0 150 -56.5t57 -150.5v-315h-68v288q0 62 -45.5 99.5t-121.5 37.5q-78 0 -126 -38t-48 -101v-286h-68v720h68v-329q27 63 79.5 97t122.5 34z" />
    <glyph glyph-name="Hbar" unicode="&#x126;" horiz-adv-x="730" 
d="M705 580v-79h-56v-501h-74v294h-420v-294h-74v501h-57v79h57v110h74v-110h420v110h74v-110h56zM575 400v101h-420v-101h420z" />
    <glyph glyph-name="hbar" unicode="&#x127;" horiz-adv-x="616" 
d="M343 522q93 0 150 -56.5t57 -150.5v-315h-68v288q0 62 -45.5 99.5t-121.5 37.5q-78 0 -126 -38t-48 -101v-286h-68v574h-73v68h73v78h68v-78h149v-68h-149v-183q27 63 79.5 97t122.5 34z" />
    <glyph glyph-name="Itilde" unicode="&#x128;" horiz-adv-x="237" 
d="M187 763q-33 0 -69.5 22.5t-56.5 22.5q-21 0 -34.5 -12t-13.5 -29h-64q0 52 27.5 86t74.5 34q33 0 69 -23t56 -23q21 0 35 12t14 30h64q0 -53 -28 -86.5t-74 -33.5zM81 0v690h74v-690h-74z" />
    <glyph glyph-name="itilde" unicode="&#x129;" horiz-adv-x="214" 
d="M175 583q-33 0 -69.5 22.5t-56.5 22.5q-21 0 -34.5 -12t-13.5 -29h-64q0 52 27.5 86t74.5 34q33 0 69 -23t56 -23q21 0 35 12t14 30h64q0 -53 -28 -86.5t-74 -33.5zM73 0v510h68v-510h-68z" />
    <glyph glyph-name="Imacron" unicode="&#x12a;" horiz-adv-x="237" 
d="M0 772v83h237v-83h-237zM81 0v690h74v-690h-74z" />
    <glyph glyph-name="imacron" unicode="&#x12b;" horiz-adv-x="214" 
d="M-12 592v83h237v-83h-237zM73 0v510h68v-510h-68z" />
    <glyph glyph-name="Ibreve" unicode="&#x12c;" horiz-adv-x="237" 
d="M119 746q-59 0 -99 39t-40 97h66q0 -25 21 -42t52 -17t52 17t21 42h66q0 -58 -40 -97t-99 -39zM81 0v690h74v-690h-74z" />
    <glyph glyph-name="ibreve" unicode="&#x12d;" horiz-adv-x="214" 
d="M107 566q-59 0 -99 39t-40 97h66q0 -25 21 -42t52 -17t52 17t21 42h66q0 -58 -40 -97t-99 -39zM73 0v510h68v-510h-68z" />
    <glyph glyph-name="Iogonek" unicode="&#x12e;" horiz-adv-x="237" 
d="M103 -144q34 0 63 17v-74q-34 -22 -79 -22q-46 0 -77 28t-31 69q0 39 30.5 73t79.5 53h-8v690h74v-690q-104 -47 -104 -102q0 -19 15.5 -30.5t36.5 -11.5z" />
    <glyph glyph-name="iogonek" unicode="&#x12f;" horiz-adv-x="214" 
d="M107 697q26 0 44.5 -17t18.5 -42q0 -24 -18.5 -41t-44.5 -17q-27 0 -45 17t-18 41q0 25 18 42t45 17zM37 -102q0 -19 15.5 -30.5t36.5 -11.5q34 0 63 17v-74q-34 -22 -79 -22q-46 0 -77 28t-31 69q0 39 30.5 73t79.5 53h-2v510h68v-510q-104 -47 -104 -102z" />
    <glyph glyph-name="Idotaccent" unicode="&#x130;" horiz-adv-x="237" 
d="M119 760q-27 0 -45 17t-18 41q0 25 18 42t45 17q26 0 44.5 -17t18.5 -42q0 -24 -18.5 -41t-44.5 -17zM81 0v690h74v-690h-74z" />
    <glyph glyph-name="dotlessi" unicode="&#x131;" horiz-adv-x="214" 
d="M73 0v510h68v-510h-68z" />
    <glyph glyph-name="IJ" unicode="&#x132;" horiz-adv-x="797" 
d="M81 0v690h74v-690h-74zM498 -12q-100 0 -167 65.5t-67 163.5h77q0 -55 45 -91t113 -36t113.5 36t45.5 91v473h74v-473q0 -98 -67 -163.5t-167 -65.5z" />
    <glyph glyph-name="ij" unicode="&#x133;" horiz-adv-x="438" 
d="M107 611q-27 0 -45 15.5t-18 38.5t18 39t45 16t45 -16t18 -39t-18 -38.5t-45 -15.5zM332 611q-27 0 -45.5 15.5t-18.5 38.5t18.5 39t45.5 16q26 0 44.5 -16t18.5 -39t-18.5 -38.5t-44.5 -15.5zM73 0v510h68v-510h-68zM183 -202v96q114 0 114 90v526h69v-534
q0 -178 -183 -178z" />
    <glyph glyph-name="Jcircumflex" unicode="&#x134;" horiz-adv-x="560" 
d="M299 756l100 130h108l100 -130h-81l-66 66h-7l-66 -66h-88zM261 -12q-100 0 -167 65.5t-67 163.5h77q0 -55 45 -91t113 -36t113.5 36t45.5 91v473h74v-473q0 -98 -67 -163.5t-167 -65.5z" />
    <glyph glyph-name="jcircumflex" unicode="&#x135;" horiz-adv-x="221" 
d="M-40 576l100 130h108l100 -130h-81l-66 66h-7l-66 -66h-88zM-35 -202v96q114 0 114 90v526h69v-534q0 -178 -183 -178z" />
    <glyph glyph-name="uni0136" unicode="&#x136;" horiz-adv-x="659" 
d="M332 371l323 -371h-94l-286 319l-120 -100v-219h-74v690h74v-327h25l338 327h130zM348 -70q28 0 45 -18.5t17 -49.5q0 -74 -49 -125h-81q58 35 81 93q-8 -2 -16 -2q-24 0 -40.5 14.5t-16.5 36.5t17 36.5t43 14.5z" />
    <glyph glyph-name="uni0137" unicode="&#x137;" horiz-adv-x="540" 
d="M289 269l248 -269h-89l-215 222l-92 -69v-153h-68v720h68v-440h22l243 230h125zM288 -70q28 0 45 -18.5t17 -49.5q0 -74 -49 -125h-81q58 35 81 93q-8 -2 -16 -2q-24 0 -40.5 14.5t-16.5 36.5t17 36.5t43 14.5z" />
    <glyph glyph-name="Lacute" unicode="&#x139;" horiz-adv-x="548" 
d="M294 886l-134 -130h-95l104 130h125zM155 100h363v-100h-437v690h74v-590z" />
    <glyph glyph-name="lacute" unicode="&#x13a;" horiz-adv-x="214" 
d="M53 765l104 130h125l-134 -130h-95zM73 0v720h68v-720h-68z" />
    <glyph glyph-name="uni013B" unicode="&#x13b;" horiz-adv-x="548" 
d="M155 100h363v-100h-437v690h74v-590zM301 -70q28 0 45 -18.5t17 -49.5q0 -74 -49 -125h-81q58 35 81 93q-8 -2 -16 -2q-24 0 -40.5 14.5t-16.5 36.5t17 36.5t43 14.5z" />
    <glyph glyph-name="uni013C" unicode="&#x13c;" horiz-adv-x="214" 
d="M141 720v-720h-68v720h68zM110 -70q28 0 45 -18.5t17 -49.5q0 -74 -49 -125h-81q58 35 81 93q-8 -2 -16 -2q-24 0 -40.5 14.5t-16.5 36.5t17 36.5t43 14.5z" />
    <glyph glyph-name="Lcaron" unicode="&#x13d;" horiz-adv-x="548" 
d="M256 488q55 44 76 113q-10 -2 -17 -2q-23 0 -39 14.5t-16 36.5t17 37t42 15q27 0 44 -19t17 -50q0 -37 -13 -77.5t-33 -67.5h-78zM155 100h363v-100h-437v690h74v-590z" />
    <glyph glyph-name="lcaron" unicode="&#x13e;" horiz-adv-x="310" 
d="M257 732q28 0 45 -19t17 -50q0 -38 -13 -78t-34 -67h-77q56 46 76 113q-10 -2 -17 -2q-23 0 -39 14.5t-16 36.5t16.5 37t41.5 15zM73 0v720h68v-720h-68z" />
    <glyph glyph-name="Ldot" unicode="&#x13f;" horiz-adv-x="548" 
d="M155 100h363v-100h-437v690h74v-590zM311 299q-26 0 -43 15.5t-17 39.5q0 23 17 38.5t43 15.5t43 -15.5t17 -38.5q0 -24 -17 -39.5t-43 -15.5z" />
    <glyph glyph-name="ldot" unicode="&#x140;" horiz-adv-x="351" 
d="M73 0v720h68v-720h-68zM253 304q-26 0 -44 16t-18 40t18 40t44 16t43.5 -16t17.5 -40t-17.5 -40t-43.5 -16z" />
    <glyph glyph-name="Lslash" unicode="&#x141;" horiz-adv-x="548" 
d="M155 100h363v-100h-437v256l-69 -44v97l69 44v337h74v-291l133 84v-97l-133 -84v-202z" />
    <glyph glyph-name="lslash" unicode="&#x142;" horiz-adv-x="287" 
d="M249 478v-92l-71 -48v-338h-69v290l-71 -48v92l71 48v338h69v-290z" />
    <glyph glyph-name="Nacute" unicode="&#x143;" horiz-adv-x="739" 
d="M318 756l104 130h125l-134 -130h-95zM81 0v690h93l392 -532h17v532h74v-690h-92l-392 532h-18v-532h-74z" />
    <glyph glyph-name="nacute" unicode="&#x144;" horiz-adv-x="616" 
d="M486 706l-134 -130h-95l104 130h125zM343 522q93 0 150 -56.5t57 -150.5v-315h-68v288q0 62 -45.5 99.5t-121.5 37.5q-78 0 -126 -38t-48 -101v-286h-68v510h68v-117q27 62 79.5 95.5t122.5 33.5z" />
    <glyph glyph-name="uni0145" unicode="&#x145;" horiz-adv-x="739" 
d="M583 690h74v-690h-92l-392 532h-18v-532h-74v690h93l392 -532h17v532zM382 -70q28 0 45 -18.5t17 -49.5q0 -74 -49 -125h-81q58 35 81 93q-8 -2 -16 -2q-24 0 -40.5 14.5t-16.5 36.5t17 36.5t43 14.5z" />
    <glyph glyph-name="uni0146" unicode="&#x146;" horiz-adv-x="616" 
d="M343 522q93 0 150 -56.5t57 -150.5v-315h-68v288q0 62 -45.5 99.5t-121.5 37.5q-78 0 -126 -38t-48 -101v-286h-68v510h68v-117q27 62 79.5 95.5t122.5 33.5zM314 -70q28 0 45 -18.5t17 -49.5q0 -74 -49 -125h-81q58 35 81 93q-8 -2 -16 -2q-24 0 -40.5 14.5t-16.5 36.5
t17 36.5t43 14.5z" />
    <glyph glyph-name="Ncaron" unicode="&#x147;" horiz-adv-x="739" 
d="M318 756l-100 130h88l66 -66h7l66 66h81l-100 -130h-108zM81 0v690h93l392 -532h17v532h74v-690h-92l-392 532h-18v-532h-74z" />
    <glyph glyph-name="ncaron" unicode="&#x148;" horiz-adv-x="616" 
d="M366 576h-108l-100 130h88l66 -66h7l66 66h81zM343 522q93 0 150 -56.5t57 -150.5v-315h-68v288q0 62 -45.5 99.5t-121.5 37.5q-78 0 -126 -38t-48 -101v-286h-68v510h68v-117q27 62 79.5 95.5t122.5 33.5z" />
    <glyph glyph-name="Eng" unicode="&#x14a;" horiz-adv-x="739" 
d="M481 -201v96q102 0 102 68v37h-18l-392 532h-18v-532h-74v690h93l392 -532h17v532h74v-728q0 -163 -176 -163z" />
    <glyph glyph-name="eng" unicode="&#x14b;" horiz-adv-x="616" 
d="M343 522q93 0 150 -56.5t57 -150.5v-353q0 -163 -174 -163v97q106 0 106 82v310q0 62 -45.5 99.5t-121.5 37.5q-78 0 -126 -38t-48 -101v-286h-68v510h68v-116q27 61 79.5 94.5t122.5 33.5z" />
    <glyph glyph-name="Omacron" unicode="&#x14c;" horiz-adv-x="812" 
d="M287 772v83h237v-83h-237zM406 -12q-154 0 -257.5 102.5t-103.5 254.5t103.5 254.5t257.5 102.5t257.5 -102.5t103.5 -254.5t-103.5 -254.5t-257.5 -102.5zM406 90q122 0 203.5 73t81.5 182t-81.5 182t-203.5 73q-121 0 -202.5 -73t-81.5 -182t81.5 -182t202.5 -73z" />
    <glyph glyph-name="omacron" unicode="&#x14d;" horiz-adv-x="623" 
d="M193 592v83h237v-83h-237zM312 -12q-116 0 -194 76.5t-78 190.5t78 190.5t194 76.5t193.5 -76.5t77.5 -190.5t-77.5 -190.5t-193.5 -76.5zM312 85q86 0 143 48.5t57 121.5t-57 121.5t-143 48.5t-143 -48.5t-57 -121.5t57 -121.5t143 -48.5z" />
    <glyph glyph-name="Obreve" unicode="&#x14e;" horiz-adv-x="812" 
d="M406 746q-59 0 -99 39t-40 97h66q0 -25 21 -42t52 -17t52 17t21 42h66q0 -58 -40 -97t-99 -39zM406 -12q-154 0 -257.5 102.5t-103.5 254.5t103.5 254.5t257.5 102.5t257.5 -102.5t103.5 -254.5t-103.5 -254.5t-257.5 -102.5zM406 90q122 0 203.5 73t81.5 182t-81.5 182
t-203.5 73q-121 0 -202.5 -73t-81.5 -182t81.5 -182t202.5 -73z" />
    <glyph glyph-name="obreve" unicode="&#x14f;" horiz-adv-x="623" 
d="M311 566q-59 0 -99 39t-40 97h66q0 -25 21 -42t52 -17t52 17t21 42h66q0 -58 -40 -97t-99 -39zM312 -12q-116 0 -194 76.5t-78 190.5t78 190.5t194 76.5t193.5 -76.5t77.5 -190.5t-77.5 -190.5t-193.5 -76.5zM312 85q86 0 143 48.5t57 121.5t-57 121.5t-143 48.5
t-143 -48.5t-57 -121.5t57 -121.5t143 -48.5z" />
    <glyph glyph-name="Ohungarumlaut" unicode="&#x150;" horiz-adv-x="812" 
d="M262 756l82 130h111l-107 -130h-86zM457 756l83 130h110l-106 -130h-87zM406 -12q-154 0 -257.5 102.5t-103.5 254.5t103.5 254.5t257.5 102.5t257.5 -102.5t103.5 -254.5t-103.5 -254.5t-257.5 -102.5zM406 90q122 0 203.5 73t81.5 182t-81.5 182t-203.5 73
q-121 0 -202.5 -73t-81.5 -182t81.5 -182t202.5 -73z" />
    <glyph glyph-name="ohungarumlaut" unicode="&#x151;" horiz-adv-x="623" 
d="M167 576l82 130h111l-107 -130h-86zM362 576l83 130h110l-106 -130h-87zM312 -12q-116 0 -194 76.5t-78 190.5t78 190.5t194 76.5t193.5 -76.5t77.5 -190.5t-77.5 -190.5t-193.5 -76.5zM312 85q86 0 143 48.5t57 121.5t-57 121.5t-143 48.5t-143 -48.5t-57 -121.5
t57 -121.5t143 -48.5z" />
    <glyph glyph-name="OE" unicode="&#x152;" horiz-adv-x="1034" 
d="M596 100h393v-100h-595q-149 0 -249 98.5t-100 246.5t100 246.5t249 98.5h590v-100h-388v-195h355v-96h-355v-199zM396 100h126v490h-126q-118 0 -196 -70t-78 -175t78 -175t196 -70z" />
    <glyph glyph-name="oe" unicode="&#x153;" horiz-adv-x="1097" 
d="M1059 253q0 -14 -2 -34h-470q14 -60 69 -97t133 -37q62 0 111.5 20t72.5 53h76q-29 -77 -99.5 -123.5t-162.5 -46.5q-80 0 -143.5 41t-94.5 110q-31 -69 -94.5 -110t-142.5 -41q-116 0 -194 76.5t-78 190.5t78 190.5t194 76.5q79 0 142.5 -41t94.5 -110q31 69 94.5 110
t143.5 41q117 0 194.5 -76.5t77.5 -192.5zM312 85q85 0 142 48.5t57 121.5t-57 121.5t-142 48.5q-86 0 -143 -48.5t-57 -121.5t57 -121.5t143 -48.5zM787 425q-76 0 -131 -36.5t-69 -96.5h402q-12 59 -68.5 96t-133.5 37z" />
    <glyph glyph-name="Racute" unicode="&#x154;" horiz-adv-x="658" 
d="M511 886l-134 -130h-95l104 130h125zM532 0l-179 245h-198v-245h-74v690h310q97 0 161.5 -63.5t64.5 -158.5q0 -82 -48.5 -141.5t-126.5 -76.5l182 -250h-92zM155 590v-245h234q67 0 109.5 34.5t42.5 88.5t-42.5 88t-109.5 34h-234z" />
    <glyph glyph-name="racute" unicode="&#x155;" horiz-adv-x="371" 
d="M373 706l-134 -130h-95l104 130h125zM141 375q27 67 79.5 105t121.5 38v-117q-94 0 -147.5 -42.5t-53.5 -116.5v-242h-68v510h68v-135z" />
    <glyph glyph-name="uni0156" unicode="&#x156;" horiz-adv-x="658" 
d="M442 250l182 -250h-92l-179 245h-198v-245h-74v690h310q97 0 161.5 -63.5t64.5 -158.5q0 -82 -48.5 -141.5t-126.5 -76.5zM155 590v-245h234q67 0 109.5 34.5t42.5 88.5t-42.5 88t-109.5 34h-234zM349 -70q28 0 45 -18.5t17 -49.5q0 -74 -49 -125h-81q58 35 81 93
q-8 -2 -16 -2q-24 0 -40.5 14.5t-16.5 36.5t17 36.5t43 14.5z" />
    <glyph glyph-name="uni0157" unicode="&#x157;" horiz-adv-x="371" 
d="M141 375q27 67 79.5 105t121.5 38v-117q-94 0 -147.5 -42.5t-53.5 -116.5v-242h-68v510h68v-135zM110 -70q28 0 45 -18.5t17 -49.5q0 -74 -49 -125h-81q58 35 81 93q-8 -2 -16 -2q-24 0 -40.5 14.5t-16.5 36.5t17 36.5t43 14.5z" />
    <glyph glyph-name="Rcaron" unicode="&#x158;" horiz-adv-x="658" 
d="M390 756h-108l-100 130h88l66 -66h7l66 66h81zM532 0l-179 245h-198v-245h-74v690h310q97 0 161.5 -63.5t64.5 -158.5q0 -82 -48.5 -141.5t-126.5 -76.5l182 -250h-92zM155 590v-245h234q67 0 109.5 34.5t42.5 88.5t-42.5 88t-109.5 34h-234z" />
    <glyph glyph-name="rcaron" unicode="&#x159;" horiz-adv-x="371" 
d="M252 576h-108l-100 130h88l66 -66h7l66 66h81zM141 375q27 67 79.5 105t121.5 38v-117q-94 0 -147.5 -42.5t-53.5 -116.5v-242h-68v510h68v-135z" />
    <glyph glyph-name="Sacute" unicode="&#x15a;" horiz-adv-x="611" 
d="M252 756l104 130h125l-134 -130h-95zM308 -12q-115 0 -192.5 60t-77.5 149h77q0 -48 56 -80.5t141 -32.5q78 0 131 28.5t53 73.5q0 28 -20 49t-57 34.5t-66 20.5t-69 14q-109 21 -170 71.5t-61 129.5q0 88 71.5 142.5t178.5 54.5q110 0 182.5 -57.5t72.5 -142.5h-77
q0 44 -51.5 74t-129.5 30q-73 0 -122 -26.5t-49 -69.5q0 -79 197 -113q246 -45 246 -203q0 -92 -76.5 -149t-187.5 -57z" />
    <glyph glyph-name="sacute" unicode="&#x15b;" horiz-adv-x="529" 
d="M210 576l104 130h125l-134 -130h-95zM264 -12q-98 0 -161 48.5t-63 122.5h68q0 -34 44 -55.5t113 -21.5t112 18t43 47q0 27 -42 43t-131 28q-198 29 -198 153q0 69 60.5 110t153.5 41q96 0 157 -46.5t61 -117.5h-70q0 31 -41 50.5t-107 19.5q-64 0 -104.5 -17t-40.5 -44
q0 -46 168 -69q204 -28 204 -153q0 -72 -63.5 -114.5t-162.5 -42.5z" />
    <glyph glyph-name="Scircumflex" unicode="&#x15c;" horiz-adv-x="611" 
d="M152 756l100 130h108l100 -130h-81l-66 66h-7l-66 -66h-88zM308 -12q-115 0 -192.5 60t-77.5 149h77q0 -48 56 -80.5t141 -32.5q78 0 131 28.5t53 73.5q0 28 -20 49t-57 34.5t-66 20.5t-69 14q-109 21 -170 71.5t-61 129.5q0 88 71.5 142.5t178.5 54.5q110 0 182.5 -57.5
t72.5 -142.5h-77q0 44 -51.5 74t-129.5 30q-73 0 -122 -26.5t-49 -69.5q0 -79 197 -113q246 -45 246 -203q0 -92 -76.5 -149t-187.5 -57z" />
    <glyph glyph-name="scircumflex" unicode="&#x15d;" horiz-adv-x="529" 
d="M110 576l100 130h108l100 -130h-81l-66 66h-7l-66 -66h-88zM264 -12q-98 0 -161 48.5t-63 122.5h68q0 -34 44 -55.5t113 -21.5t112 18t43 47q0 27 -42 43t-131 28q-198 29 -198 153q0 69 60.5 110t153.5 41q96 0 157 -46.5t61 -117.5h-70q0 31 -41 50.5t-107 19.5
q-64 0 -104.5 -17t-40.5 -44q0 -46 168 -69q204 -28 204 -153q0 -72 -63.5 -114.5t-162.5 -42.5z" />
    <glyph glyph-name="Scedilla" unicode="&#x15e;" horiz-adv-x="611" 
d="M572 194q0 -87 -69 -143t-173 -62l-19 -23h8q41 0 69 -27.5t28 -67.5q0 -41 -31.5 -69t-77.5 -28t-77 28t-31 69h55q0 -16 15.5 -27.5t37.5 -11.5q23 0 38.5 11.5t15.5 27.5q0 18 -15 30t-38 12q-26 0 -42 -13l-49 25l53 65q-102 10 -167 68t-65 139h77q0 -48 56 -80.5
t141 -32.5q78 0 131 28.5t53 73.5q0 28 -20 49t-57 34.5t-66 20.5t-69 14q-109 21 -170 71.5t-61 129.5q0 88 71.5 142.5t178.5 54.5q110 0 182.5 -57.5t72.5 -142.5h-77q0 44 -51.5 74t-129.5 30q-73 0 -122 -26.5t-49 -69.5q0 -79 197 -113q246 -45 246 -203z" />
    <glyph glyph-name="scedilla" unicode="&#x15f;" horiz-adv-x="529" 
d="M490 145q0 -67 -55.5 -109t-145.5 -47l-19 -23h8q41 0 69 -27.5t28 -67.5q0 -41 -31.5 -69t-77.5 -28t-77 28t-31 69h55q0 -16 15.5 -27.5t37.5 -11.5q23 0 38.5 11.5t15.5 27.5q0 18 -15 30t-38 12q-26 0 -42 -13l-49 25l53 65q-85 9 -137 55.5t-52 113.5h68
q0 -34 44 -55.5t113 -21.5t112 18t43 47q0 27 -42 43t-131 28q-198 29 -198 153q0 69 60.5 110t153.5 41q96 0 157 -46.5t61 -117.5h-70q0 31 -41 50.5t-107 19.5q-64 0 -104.5 -17t-40.5 -44q0 -46 168 -69q204 -28 204 -153z" />
    <glyph glyph-name="Scaron" unicode="&#x160;" horiz-adv-x="611" 
d="M252 756l-100 130h88l66 -66h7l66 66h81l-100 -130h-108zM308 -12q-115 0 -192.5 60t-77.5 149h77q0 -48 56 -80.5t141 -32.5q78 0 131 28.5t53 73.5q0 28 -20 49t-57 34.5t-66 20.5t-69 14q-109 21 -170 71.5t-61 129.5q0 88 71.5 142.5t178.5 54.5q110 0 182.5 -57.5
t72.5 -142.5h-77q0 44 -51.5 74t-129.5 30q-73 0 -122 -26.5t-49 -69.5q0 -79 197 -113q246 -45 246 -203q0 -92 -76.5 -149t-187.5 -57z" />
    <glyph glyph-name="scaron" unicode="&#x161;" horiz-adv-x="529" 
d="M210 576l-100 130h88l66 -66h7l66 66h81l-100 -130h-108zM264 -12q-98 0 -161 48.5t-63 122.5h68q0 -34 44 -55.5t113 -21.5t112 18t43 47q0 27 -42 43t-131 28q-198 29 -198 153q0 69 60.5 110t153.5 41q96 0 157 -46.5t61 -117.5h-70q0 31 -41 50.5t-107 19.5
q-64 0 -104.5 -17t-40.5 -44q0 -46 168 -69q204 -28 204 -153q0 -72 -63.5 -114.5t-162.5 -42.5z" />
    <glyph glyph-name="uni0162" unicode="&#x162;" horiz-adv-x="606" 
d="M340 0h-2l-29 -34h8q41 0 69 -27.5t28 -67.5q0 -41 -31.5 -69t-77.5 -28t-77 28t-31 69h55q0 -16 15.5 -27.5t37.5 -11.5q23 0 38.5 11.5t15.5 27.5q0 18 -15 30t-38 12q-26 0 -42 -13l-49 25l61 75h-10v590h-238v100h549v-100h-237v-590z" />
    <glyph glyph-name="uni0163" unicode="&#x163;" horiz-adv-x="397" 
d="M365 415h-166v-258q0 -61 80 -61h76v-96h-82h-3l-31 -34h7q41 0 69 -27.5t28 -67.5q0 -41 -31.5 -69t-77.5 -28t-77 28t-31 69h55q0 -16 15.5 -27.5t37.5 -11.5q23 0 38.5 11.5t15.5 27.5q0 18 -16 30t-38 12q-24 0 -41 -13l-49 25l70 83q-84 24 -84 130v277h-110v95h110
v133l69 17v-150h166v-95z" />
    <glyph glyph-name="Tcaron" unicode="&#x164;" horiz-adv-x="606" 
d="M357 756h-108l-100 130h88l66 -66h7l66 66h81zM577 690v-100h-237v-590h-74v590h-238v100h549z" />
    <glyph glyph-name="tcaron" unicode="&#x165;" horiz-adv-x="397" 
d="M274 570q56 46 76 113q-10 -2 -17 -2q-23 0 -39 14.5t-16 36.5t16.5 37t41.5 15q28 0 44.5 -19t16.5 -50q0 -86 -46 -145h-77zM199 660v-150h166v-95h-166v-258q0 -61 80 -61h76v-96h-82q-143 0 -143 138v277h-110v95h110v133z" />
    <glyph glyph-name="Tbar" unicode="&#x166;" horiz-adv-x="606" 
d="M577 590h-237v-229h108v-68h-108v-293h-74v293h-108v68h108v229h-238v100h549v-100z" />
    <glyph glyph-name="tbar" unicode="&#x167;" horiz-adv-x="397" 
d="M365 415h-166v-110h134v-68h-134v-80q0 -61 80 -61h76v-96h-82q-143 0 -143 138v99h-87v68h87v110h-110v95h110v133l69 17v-150h166v-95z" />
    <glyph glyph-name="Utilde" unicode="&#x168;" horiz-adv-x="693" 
d="M414 763q-33 0 -69.5 22.5t-56.5 22.5q-21 0 -34.5 -12t-13.5 -29h-64q0 52 27.5 86t74.5 34q33 0 69 -23t56 -23q21 0 35 12t14 30h64q0 -53 -28 -86.5t-74 -33.5zM346 -12q-119 0 -199.5 79t-80.5 197v426h74v-424q0 -75 59 -125.5t147 -50.5q89 0 148 50.5t59 125.5
v424h74v-426q0 -118 -80.5 -197t-200.5 -79z" />
    <glyph glyph-name="utilde" unicode="&#x169;" horiz-adv-x="597" 
d="M237 628q-21 0 -34.5 -12t-13.5 -29h-64q0 52 27.5 86t74.5 34q33 0 69 -23t56 -23q21 0 35 12t14 30h64q0 -53 -28 -86.5t-74 -33.5q-33 0 -69.5 22.5t-56.5 22.5zM455 510h69v-510h-69v112q-55 -124 -191 -124q-89 0 -144 55t-55 146v321h69v-297q0 -58 43 -93t114 -35
q74 0 119 36t45 94v295z" />
    <glyph glyph-name="Umacron" unicode="&#x16a;" horiz-adv-x="693" 
d="M228 772v83h237v-83h-237zM346 -12q-119 0 -199.5 79t-80.5 197v426h74v-424q0 -75 59 -125.5t147 -50.5q89 0 148 50.5t59 125.5v424h74v-426q0 -118 -80.5 -197t-200.5 -79z" />
    <glyph glyph-name="umacron" unicode="&#x16b;" horiz-adv-x="597" 
d="M413 675v-83h-237v83h237zM455 510h69v-510h-69v112q-55 -124 -191 -124q-89 0 -144 55t-55 146v321h69v-297q0 -58 43 -93t114 -35q74 0 119 36t45 94v295z" />
    <glyph glyph-name="Ubreve" unicode="&#x16c;" horiz-adv-x="693" 
d="M346 746q-59 0 -99 39t-40 97h66q0 -25 21 -42t52 -17t52 17t21 42h66q0 -58 -40 -97t-99 -39zM346 -12q-119 0 -199.5 79t-80.5 197v426h74v-424q0 -75 59 -125.5t147 -50.5q89 0 148 50.5t59 125.5v424h74v-426q0 -118 -80.5 -197t-200.5 -79z" />
    <glyph glyph-name="ubreve" unicode="&#x16d;" horiz-adv-x="597" 
d="M295 566q-59 0 -99 39t-40 97h66q0 -25 21 -42t52 -17t52 17t21 42h66q0 -58 -40 -97t-99 -39zM455 510h69v-510h-69v112q-55 -124 -191 -124q-89 0 -144 55t-55 146v321h69v-297q0 -58 43 -93t114 -35q74 0 119 36t45 94v295z" />
    <glyph glyph-name="Uring" unicode="&#x16e;" horiz-adv-x="693" 
d="M346 743q-38 0 -63.5 24.5t-25.5 61.5t25.5 61.5t63.5 24.5t64 -24.5t26 -61.5t-26 -61.5t-64 -24.5zM346 795q19 0 31.5 9.5t12.5 24.5t-12.5 24.5t-31.5 9.5q-18 0 -30.5 -9.5t-12.5 -24.5t12.5 -24.5t30.5 -9.5zM346 -12q-119 0 -199.5 79t-80.5 197v426h74v-424
q0 -75 59 -125.5t147 -50.5q89 0 148 50.5t59 125.5v424h74v-426q0 -118 -80.5 -197t-200.5 -79z" />
    <glyph glyph-name="uring" unicode="&#x16f;" horiz-adv-x="597" 
d="M294 563q-38 0 -63.5 24.5t-25.5 61.5t25.5 61.5t63.5 24.5t64 -24.5t26 -61.5t-26 -61.5t-64 -24.5zM294 683q-18 0 -30.5 -9.5t-12.5 -24.5t12.5 -24.5t30.5 -9.5q19 0 31.5 9.5t12.5 24.5t-12.5 24.5t-31.5 9.5zM455 510h69v-510h-69v112q-55 -124 -191 -124
q-89 0 -144 55t-55 146v321h69v-297q0 -58 43 -93t114 -35q74 0 119 36t45 94v295z" />
    <glyph glyph-name="Uhungarumlaut" unicode="&#x170;" horiz-adv-x="693" 
d="M202 756l82 130h111l-107 -130h-86zM397 756l83 130h110l-106 -130h-87zM346 -12q-119 0 -199.5 79t-80.5 197v426h74v-424q0 -75 59 -125.5t147 -50.5q89 0 148 50.5t59 125.5v424h74v-426q0 -118 -80.5 -197t-200.5 -79z" />
    <glyph glyph-name="uhungarumlaut" unicode="&#x171;" horiz-adv-x="597" 
d="M344 706l-107 -130h-86l82 130h111zM539 706l-106 -130h-87l83 130h110zM455 215v295h69v-510h-69v112q-55 -124 -191 -124q-89 0 -144 55t-55 146v321h69v-297q0 -58 43 -93t114 -35q74 0 119 36t45 94z" />
    <glyph glyph-name="Uogonek" unicode="&#x172;" horiz-adv-x="693" 
d="M553 690h74v-426q0 -93 -52.5 -164t-138.5 -98q-88 -44 -88 -95q0 -19 15.5 -30.5t36.5 -11.5q34 0 63 17v-74q-34 -22 -79 -22q-46 0 -77 28t-31 69q0 62 68 105q-119 1 -198.5 80t-79.5 196v426h74v-424q0 -75 59 -125.5t147 -50.5q89 0 148 50.5t59 125.5v424z" />
    <glyph glyph-name="uogonek" unicode="&#x173;" horiz-adv-x="597" 
d="M471 -144q34 0 63 17v-74q-34 -22 -79 -22q-46 0 -77 28t-31 69q0 39 30.5 73t79.5 53h-2v112q-55 -124 -191 -124q-89 0 -144 55t-55 146v321h69v-297q0 -58 43 -93t114 -35q74 0 119 36t45 94v295h69v-510h-1q-104 -47 -104 -102q0 -19 15.5 -30.5t36.5 -11.5z" />
    <glyph glyph-name="Wcircumflex" unicode="&#x174;" horiz-adv-x="1070" 
d="M382 756l100 130h108l100 -130h-81l-66 66h-7l-66 -66h-88zM252 0l-227 690h79l185 -536h26l181 536h74l182 -536h25l185 536h84l-228 -690h-96l-170 517h-34l-170 -517h-96z" />
    <glyph glyph-name="wcircumflex" unicode="&#x175;" horiz-adv-x="839" 
d="M266 576l100 130h108l100 -130h-81l-66 66h-7l-66 -66h-88zM195 0l-177 510h71l141 -379h22l129 379h71l128 -379h22l141 379h78l-177 -510h-89l-121 374h-28l-122 -374h-89z" />
    <glyph glyph-name="Ycircumflex" unicode="&#x176;" horiz-adv-x="646" 
d="M170 756l100 130h108l100 -130h-81l-66 66h-7l-66 -66h-88zM286 0v244l-277 446h85l214 -320h25l214 320h90l-277 -446v-244h-74z" />
    <glyph glyph-name="ycircumflex" unicode="&#x177;" horiz-adv-x="543" 
d="M272 642l-66 -66h-88l100 130h108l100 -130h-81l-66 66h-7zM449 510h80l-282 -700h-90l90 190h-27l-206 510h73l170 -395h22z" />
    <glyph glyph-name="Ydieresis" unicode="&#x178;" horiz-adv-x="646" 
d="M220 760q-26 0 -43 16t-17 40t17 40t43 16t43 -16t17 -40q0 -23 -17.5 -39.5t-42.5 -16.5zM428 760q-25 0 -42.5 16.5t-17.5 39.5q0 24 17 40t43 16t43 -16t17 -40q0 -23 -17.5 -39.5t-42.5 -16.5zM286 0v244l-277 446h85l214 -320h25l214 320h90l-277 -446v-244h-74z
" />
    <glyph glyph-name="Zacute" unicode="&#x179;" horiz-adv-x="644" 
d="M496 886l-134 -130h-95l104 130h125zM161 100h441v-100h-561v71l435 519h-431v100h550v-71z" />
    <glyph glyph-name="zacute" unicode="&#x17a;" horiz-adv-x="519" 
d="M434 706l-134 -130h-95l104 130h125zM156 95h321v-95h-436v66l314 349h-310v95h425v-66z" />
    <glyph glyph-name="Zdotaccent" unicode="&#x17b;" horiz-adv-x="644" 
d="M321 760q-27 0 -45 17t-18 41q0 25 18 42t45 17q26 0 44.5 -17t18.5 -42q0 -24 -18.5 -41t-44.5 -17zM161 100h441v-100h-561v71l435 519h-431v100h550v-71z" />
    <glyph glyph-name="zdotaccent" unicode="&#x17c;" horiz-adv-x="519" 
d="M260 580q-27 0 -45 17t-18 41q0 25 18 42t45 17q26 0 44.5 -17t18.5 -42q0 -24 -18.5 -41t-44.5 -17zM156 95h321v-95h-436v66l314 349h-310v95h425v-66z" />
    <glyph glyph-name="Zcaron" unicode="&#x17d;" horiz-adv-x="644" 
d="M375 756h-108l-100 130h88l66 -66h7l66 66h81zM161 100h441v-100h-561v71l435 519h-431v100h550v-71z" />
    <glyph glyph-name="zcaron" unicode="&#x17e;" horiz-adv-x="519" 
d="M313 576h-108l-100 130h88l66 -66h7l66 66h81zM156 95h321v-95h-436v66l314 349h-310v95h425v-66z" />
    <glyph glyph-name="florin" unicode="&#x192;" horiz-adv-x="449" 
d="M424 588q-117 0 -134 -94l-17 -101h119v-92h-135l-56 -322q-15 -88 -65 -128.5t-142 -40.5v102q60 0 92.5 22.5t41.5 71.5l51 295h-113v92h129l22 128q15 88 65 128.5t142 40.5v-102z" />
    <glyph glyph-name="uni01C4" unicode="&#x1c4;" horiz-adv-x="1351" 
d="M1082 756h-108l-100 130h88l66 -66h7l66 66h81zM347 690q150 0 250 -98.5t100 -246.5t-100 -246.5t-250 -98.5h-266v690h266zM868 100h441v-100h-561v71l435 519h-431v100h550v-71zM346 100q117 0 195.5 70t78.5 175t-78.5 175t-195.5 70h-191v-490h191z" />
    <glyph glyph-name="uni01C5" unicode="&#x1c5;" horiz-adv-x="1260" 
d="M1055 576h-108l-101 130h89l66 -66h6l66 66h82zM347 690q150 0 250 -98.5t100 -246.5t-100 -246.5t-250 -98.5h-266v690h266zM346 100q117 0 195.5 70t78.5 175t-78.5 175t-195.5 70h-191v-490h191zM897 95h321v-95h-436v66l314 349h-310v95h425v-66z" />
    <glyph glyph-name="uni01C6" unicode="&#x1c6;" horiz-adv-x="1173" 
d="M513 379v341h68v-720h-68v131q-29 -66 -86 -104.5t-130 -38.5q-109 0 -182 76.5t-73 190.5t73 190.5t182 76.5q73 0 130 -38.5t86 -104.5zM968 576h-108l-101 130h89l66 -66h6l66 66h82zM810 95h321v-95h-436v66l314 349h-310v95h425v-66zM313 85q86 0 143 48.5t57 121.5
t-57 121.5t-143 48.5t-143 -48.5t-57 -121.5t57 -121.5t143 -48.5z" />
    <glyph glyph-name="uni01C7" unicode="&#x1c7;" horiz-adv-x="1097" 
d="M155 690v-590h363v-100h-437v690h74zM957 690h74v-473q0 -98 -67 -163.5t-167 -65.5t-167 65.5t-67 163.5h77q0 -55 45 -91t113 -36t113.5 36t45.5 91v473z" />
    <glyph glyph-name="uni01C8" unicode="&#x1c8;" horiz-adv-x="782" 
d="M675 720q26 0 44.5 -16t18.5 -39t-18.5 -38.5t-44.5 -15.5q-27 0 -45.5 15.5t-18.5 38.5t18.5 39t45.5 16zM155 690v-590h363v-100h-437v690h74zM640 -16v526h69v-534q0 -178 -183 -178v96q114 0 114 90z" />
    <glyph glyph-name="uni01C9" unicode="&#x1c9;" horiz-adv-x="434" 
d="M73 0v720h68v-720h-68zM328 611q-27 0 -45.5 15.5t-18.5 38.5t18.5 39t45.5 16q26 0 44.5 -16t18.5 -39t-18.5 -38.5t-44.5 -15.5zM179 -202v96q114 0 114 90v526h69v-534q0 -178 -183 -178z" />
    <glyph glyph-name="uni01CA" unicode="&#x1ca;" horiz-adv-x="1299" 
d="M81 0v690h93l392 -532h17v532h74v-690h-92l-392 532h-18v-532h-74zM1000 -12q-100 0 -167 65.5t-67 163.5h77q0 -55 45 -91t113 -36t113.5 36t45.5 91v473h74v-473q0 -98 -67 -163.5t-167 -65.5z" />
    <glyph glyph-name="uni01CB" unicode="&#x1cb;" horiz-adv-x="959" 
d="M853 611q-27 0 -45.5 15.5t-18.5 38.5t18.5 39t45.5 16q26 0 44.5 -16t18.5 -39t-18.5 -38.5t-44.5 -15.5zM81 0v690h93l392 -532h17v532h74v-690h-92l-392 532h-18v-532h-74zM704 -202v96q114 0 114 90v526h69v-534q0 -178 -183 -178z" />
    <glyph glyph-name="uni01CC" unicode="&#x1cc;" horiz-adv-x="836" 
d="M730 720q26 0 44.5 -16t18.5 -39t-18.5 -38.5t-44.5 -15.5q-27 0 -45.5 15.5t-18.5 38.5t18.5 39t45.5 16zM343 522q93 0 150 -56.5t57 -150.5v-315h-68v288q0 62 -45.5 99.5t-121.5 37.5q-78 0 -126 -38t-48 -101v-286h-68v510h68v-117q27 62 79.5 95.5t122.5 33.5z
M695 -16v526h69v-534q0 -178 -183 -178v96q114 0 114 90z" />
    <glyph glyph-name="uni01CD" unicode="&#x1cd;" horiz-adv-x="723" 
d="M416 756h-108l-100 130h88l66 -66h7l66 66h81zM623 0l-69 162h-380l-69 -162h-85l282 690h119l281 -690h-79zM216 262h295l-133 312h-29z" />
    <glyph glyph-name="uni01CE" unicode="&#x1ce;" horiz-adv-x="654" 
d="M384 576h-108l-100 130h88l66 -66h7l66 66h81zM513 510h68v-510h-68v131q-29 -66 -86 -104.5t-130 -38.5q-109 0 -182 76.5t-73 190.5t73 190.5t182 76.5q73 0 130 -38.5t86 -104.5v131zM313 85q86 0 143 48.5t57 121.5t-57 121.5t-143 48.5t-143 -48.5t-57 -121.5
t57 -121.5t143 -48.5z" />
    <glyph glyph-name="Gcaron" unicode="&#x1e6;" horiz-adv-x="825" 
d="M460 756h-108l-100 130h88l66 -66h7l66 66h81zM419 375h344v-375h-59v181q-40 -91 -116.5 -142t-181.5 -51q-154 0 -257.5 102.5t-103.5 254.5t103.5 254.5t257.5 102.5q122 0 215 -66t125 -171h-87q-32 62 -99.5 98.5t-153.5 36.5q-121 0 -202.5 -73t-81.5 -182
t81.5 -182t202.5 -73q105 0 182 52.5t98 136.5h-267v96z" />
    <glyph glyph-name="gcaron" unicode="&#x1e7;" horiz-adv-x="653" 
d="M382 576h-108l-100 130h88l66 -66h7l66 66h81zM514 510h68v-455q0 -116 -71.5 -186.5t-188.5 -70.5q-95 0 -161.5 48.5t-89.5 132.5h72q21 -41 68.5 -64.5t110.5 -23.5q86 0 139 45t53 120v83q-29 -65 -86.5 -103t-130.5 -38q-109 0 -182 74.5t-73 187.5q0 112 73 187
t182 75q73 0 130.5 -38t86.5 -103v129zM314 90q86 0 143 48.5t57 121.5q0 72 -57.5 121t-142.5 49q-86 0 -143 -49t-57 -121q0 -73 57 -121.5t143 -48.5z" />
    <glyph glyph-name="uni01EA" unicode="&#x1ea;" horiz-adv-x="812" 
d="M512 3q-90 -46 -90 -96q0 -19 15.5 -30.5t36.5 -11.5q34 0 63 17v-74q-34 -22 -79 -22q-46 0 -77 28t-31 69q0 62 69 105h-13q-154 0 -257.5 102.5t-103.5 254.5t103.5 254.5t257.5 102.5t257.5 -102.5t103.5 -254.5q0 -124 -70.5 -217t-184.5 -125zM122 345
q0 -109 81.5 -182t202.5 -73q122 0 203.5 73t81.5 182t-81.5 182t-203.5 73q-121 0 -202.5 -73t-81.5 -182z" />
    <glyph glyph-name="uni01EB" unicode="&#x1eb;" horiz-adv-x="623" 
d="M400 1q-88 -42 -88 -94q0 -19 15.5 -30.5t36.5 -11.5q34 0 63 17v-74q-34 -22 -79 -22q-46 0 -77 28t-31 69q0 62 68 105q-115 2 -191.5 78t-76.5 189q0 114 78 190.5t194 76.5t193.5 -76.5t77.5 -190.5q0 -90 -50 -158.5t-133 -95.5zM112 255q0 -73 57 -121.5t143 -48.5
t143 48.5t57 121.5t-57 121.5t-143 48.5t-143 -48.5t-57 -121.5z" />
    <glyph glyph-name="uni01F1" unicode="&#x1f1;" horiz-adv-x="1351" 
d="M347 690q150 0 250 -98.5t100 -246.5t-100 -246.5t-250 -98.5h-266v690h266zM868 100h441v-100h-561v71l435 519h-431v100h550v-71zM346 100q117 0 195.5 70t78.5 175t-78.5 175t-195.5 70h-191v-490h191z" />
    <glyph glyph-name="uni01F2" unicode="&#x1f2;" horiz-adv-x="1260" 
d="M347 690q150 0 250 -98.5t100 -246.5t-100 -246.5t-250 -98.5h-266v690h266zM346 100q117 0 195.5 70t78.5 175t-78.5 175t-195.5 70h-191v-490h191zM897 95h321v-95h-436v66l314 349h-310v95h425v-66z" />
    <glyph glyph-name="uni01F3" unicode="&#x1f3;" horiz-adv-x="1173" 
d="M513 379v341h68v-720h-68v131q-29 -66 -86 -104.5t-130 -38.5q-109 0 -182 76.5t-73 190.5t73 190.5t182 76.5q73 0 130 -38.5t86 -104.5zM810 95h321v-95h-436v66l314 349h-310v95h425v-66zM313 85q86 0 143 48.5t57 121.5t-57 121.5t-143 48.5t-143 -48.5t-57 -121.5
t57 -121.5t143 -48.5z" />
    <glyph glyph-name="uni01F4" unicode="&#x1f4;" horiz-adv-x="825" 
d="M581 886l-134 -130h-95l104 130h125zM419 375h344v-375h-59v181q-40 -91 -116.5 -142t-181.5 -51q-154 0 -257.5 102.5t-103.5 254.5t103.5 254.5t257.5 102.5q122 0 215 -66t125 -171h-87q-32 62 -99.5 98.5t-153.5 36.5q-121 0 -202.5 -73t-81.5 -182t81.5 -182
t202.5 -73q105 0 182 52.5t98 136.5h-267v96z" />
    <glyph glyph-name="uni01F5" unicode="&#x1f5;" horiz-adv-x="653" 
d="M503 706l-134 -130h-95l104 130h125zM514 510h68v-455q0 -116 -71.5 -186.5t-188.5 -70.5q-95 0 -161.5 48.5t-89.5 132.5h72q21 -41 68.5 -64.5t110.5 -23.5q86 0 139 45t53 120v83q-29 -65 -86.5 -103t-130.5 -38q-109 0 -182 74.5t-73 187.5q0 112 73 187t182 75
q73 0 130.5 -38t86.5 -103v129zM314 90q86 0 143 48.5t57 121.5q0 72 -57.5 121t-142.5 49q-86 0 -143 -49t-57 -121q0 -73 57 -121.5t143 -48.5z" />
    <glyph glyph-name="AEacute" unicode="&#x1fc;" horiz-adv-x="961" 
d="M710 886l-134 -130h-95l104 130h125zM534 100h383v-100h-457v159h-288l-100 -159h-97l418 690h519v-100h-378v-195h345v-96h-345v-199zM233 257h227v333h-18z" />
    <glyph glyph-name="aeacute" unicode="&#x1fd;" horiz-adv-x="1038" 
d="M681 706l-134 -130h-95l104 130h125zM999 253q0 -5 -0.5 -17t-0.5 -17h-471q14 -60 69 -97t134 -37q66 0 116.5 23.5t69.5 62.5h74q-27 -83 -97.5 -133t-164.5 -50q-69 0 -127 29t-95 81q-30 -50 -93.5 -80t-144.5 -30q-96 0 -162 49t-66 121q0 74 63 123t156 49
q133 0 198 -78v75q0 44 -46 71t-120 27q-65 0 -109 -17.5t-55 -46.5h-70q13 72 76 116.5t158 44.5q76 0 132 -30.5t80 -83.5q36 53 95.5 83.5t129.5 30.5q116 0 193.5 -76.5t77.5 -192.5zM728 425q-77 0 -132 -36.5t-69 -96.5h402q-12 59 -68 96t-133 37zM284 82
q72 0 125.5 18.5t69.5 46.5q-9 21 -15 45q-14 19 -64.5 31.5t-115.5 12.5q-74 0 -123.5 -22t-49.5 -56q0 -32 49.5 -54t123.5 -22z" />
    <glyph glyph-name="Oslashacute" unicode="&#x1fe;" horiz-adv-x="812" 
d="M592 886l-134 -130h-95l104 130h125zM672 591q95 -101 95 -246q0 -152 -103.5 -254.5t-257.5 -102.5q-121 0 -214 66l-48 -54h-93l89 99q-95 101 -95 246q0 152 103.5 254.5t257.5 102.5q119 0 213 -65l48 53h93zM122 345q0 -106 78 -179l355 399q-68 35 -149 35
q-121 0 -202.5 -73t-81.5 -182zM406 90q122 0 203.5 73t81.5 182q0 106 -79 179l-356 -398q67 -36 150 -36z" />
    <glyph glyph-name="oslashacute" unicode="&#x1ff;" horiz-adv-x="623" 
d="M493 706l-134 -130h-95l104 130h125zM584 510l-69 -75q68 -74 68 -180q0 -114 -77.5 -190.5t-193.5 -76.5q-91 0 -161 49l-34 -37h-79l69 76q-67 73 -67 179q0 114 78 190.5t194 76.5q89 0 160 -49l33 37h79zM112 255q0 -70 52 -117l245 267q-43 20 -97 20
q-86 0 -143 -48.5t-57 -121.5zM512 255q0 70 -53 118l-245 -268q43 -20 98 -20q86 0 143 48.5t57 121.5z" />
    <glyph glyph-name="uni0200" unicode="&#x200;" horiz-adv-x="723" 
d="M310 756h-87l-106 130h110zM505 756h-87l-106 130h110zM623 0l-69 162h-380l-69 -162h-85l282 690h119l281 -690h-79zM216 262h295l-133 312h-29z" />
    <glyph glyph-name="uni0201" unicode="&#x201;" horiz-adv-x="654" 
d="M278 576h-87l-106 130h110zM473 576h-87l-106 130h110zM513 510h68v-510h-68v131q-29 -66 -86 -104.5t-130 -38.5q-109 0 -182 76.5t-73 190.5t73 190.5t182 76.5q73 0 130 -38.5t86 -104.5v131zM313 85q86 0 143 48.5t57 121.5t-57 121.5t-143 48.5t-143 -48.5
t-57 -121.5t57 -121.5t143 -48.5z" />
    <glyph glyph-name="uni0202" unicode="&#x202;" horiz-adv-x="723" 
d="M361 810q-31 0 -52 -17t-21 -43h-66q0 58 40 97.5t99 39.5t99 -39.5t40 -97.5h-66q0 26 -21 43t-52 17zM623 0l-69 162h-380l-69 -162h-85l282 690h119l281 -690h-79zM216 262h295l-133 312h-29z" />
    <glyph glyph-name="uni0203" unicode="&#x203;" horiz-adv-x="654" 
d="M329 630q-31 0 -52 -17t-21 -43h-66q0 58 40 97.5t99 39.5t99 -39.5t40 -97.5h-66q0 26 -21 43t-52 17zM513 510h68v-510h-68v131q-29 -66 -86 -104.5t-130 -38.5q-109 0 -182 76.5t-73 190.5t73 190.5t182 76.5q73 0 130 -38.5t86 -104.5v131zM313 85q86 0 143 48.5
t57 121.5t-57 121.5t-143 48.5t-143 -48.5t-57 -121.5t57 -121.5t143 -48.5z" />
    <glyph glyph-name="uni0204" unicode="&#x204;" horiz-adv-x="613" 
d="M281 756h-87l-106 130h110zM476 756h-87l-106 130h110zM155 100h413v-100h-487v690h482v-100h-408v-195h375v-96h-375v-199z" />
    <glyph glyph-name="uni0205" unicode="&#x205;" horiz-adv-x="622" 
d="M261 576h-87l-106 130h110zM456 576h-87l-106 130h110zM583 253q0 -12 -2 -34h-468q14 -59 69 -96t132 -37q117 0 175 61h83q-32 -73 -101.5 -116t-157.5 -43q-117 0 -195 76.5t-78 190.5t78 190.5t194 76.5t193.5 -76.5t77.5 -192.5zM312 424q-75 0 -130 -36.5
t-69 -95.5h398q-14 59 -69 95.5t-130 36.5z" />
    <glyph glyph-name="uni0206" unicode="&#x206;" horiz-adv-x="613" 
d="M332 810q-31 0 -52 -17t-21 -43h-66q0 58 40 97.5t99 39.5t99 -39.5t40 -97.5h-66q0 26 -21 43t-52 17zM155 100h413v-100h-487v690h482v-100h-408v-195h375v-96h-375v-199z" />
    <glyph glyph-name="uni0207" unicode="&#x207;" horiz-adv-x="622" 
d="M312 630q-31 0 -52 -17t-21 -43h-66q0 58 40 97.5t99 39.5t99 -39.5t40 -97.5h-66q0 26 -21 43t-52 17zM583 253q0 -12 -2 -34h-468q14 -59 69 -96t132 -37q117 0 175 61h83q-32 -73 -101.5 -116t-157.5 -43q-117 0 -195 76.5t-78 190.5t78 190.5t194 76.5t193.5 -76.5
t77.5 -192.5zM312 424q-75 0 -130 -36.5t-69 -95.5h398q-14 59 -69 95.5t-130 36.5z" />
    <glyph glyph-name="uni0208" unicode="&#x208;" horiz-adv-x="237" 
d="M-19 756l-106 130h110l83 -130h-87zM176 756l-106 130h110l83 -130h-87zM81 0v690h74v-690h-74z" />
    <glyph glyph-name="uni0209" unicode="&#x209;" horiz-adv-x="214" 
d="M-31 576l-106 130h110l83 -130h-87zM164 576l-106 130h110l83 -130h-87zM73 0v510h68v-510h-68z" />
    <glyph glyph-name="uni020A" unicode="&#x20a;" horiz-adv-x="237" 
d="M-20 750q0 58 40 97.5t99 39.5t99 -39.5t40 -97.5h-66q0 26 -21 43t-52 17t-52 -17t-21 -43h-66zM81 0v690h74v-690h-74z" />
    <glyph glyph-name="uni020B" unicode="&#x20b;" horiz-adv-x="214" 
d="M-32 570q0 58 40 97.5t99 39.5t99 -39.5t40 -97.5h-66q0 26 -21 43t-52 17t-52 -17t-21 -43h-66zM73 0v510h68v-510h-68z" />
    <glyph glyph-name="uni020C" unicode="&#x20c;" horiz-adv-x="812" 
d="M268 756l-106 130h110l83 -130h-87zM463 756l-106 130h110l83 -130h-87zM406 -12q-154 0 -257.5 102.5t-103.5 254.5t103.5 254.5t257.5 102.5t257.5 -102.5t103.5 -254.5t-103.5 -254.5t-257.5 -102.5zM406 90q122 0 203.5 73t81.5 182t-81.5 182t-203.5 73
q-121 0 -202.5 -73t-81.5 -182t81.5 -182t202.5 -73z" />
    <glyph glyph-name="uni020D" unicode="&#x20d;" horiz-adv-x="623" 
d="M173 576l-106 130h110l83 -130h-87zM368 576l-106 130h110l83 -130h-87zM312 -12q-116 0 -194 76.5t-78 190.5t78 190.5t194 76.5t193.5 -76.5t77.5 -190.5t-77.5 -190.5t-193.5 -76.5zM312 85q86 0 143 48.5t57 121.5t-57 121.5t-143 48.5t-143 -48.5t-57 -121.5
t57 -121.5t143 -48.5z" />
    <glyph glyph-name="uni020E" unicode="&#x20e;" horiz-adv-x="812" 
d="M267 750q0 58 40 97.5t99 39.5t99 -39.5t40 -97.5h-66q0 26 -21 43t-52 17t-52 -17t-21 -43h-66zM406 -12q-154 0 -257.5 102.5t-103.5 254.5t103.5 254.5t257.5 102.5t257.5 -102.5t103.5 -254.5t-103.5 -254.5t-257.5 -102.5zM406 90q122 0 203.5 73t81.5 182
t-81.5 182t-203.5 73q-121 0 -202.5 -73t-81.5 -182t81.5 -182t202.5 -73z" />
    <glyph glyph-name="uni020F" unicode="&#x20f;" horiz-adv-x="623" 
d="M172 570q0 58 40 97.5t99 39.5t99 -39.5t40 -97.5h-66q0 26 -21 43t-52 17t-52 -17t-21 -43h-66zM312 -12q-116 0 -194 76.5t-78 190.5t78 190.5t194 76.5t193.5 -76.5t77.5 -190.5t-77.5 -190.5t-193.5 -76.5zM312 85q86 0 143 48.5t57 121.5t-57 121.5t-143 48.5
t-143 -48.5t-57 -121.5t57 -121.5t143 -48.5z" />
    <glyph glyph-name="uni0210" unicode="&#x210;" horiz-adv-x="658" 
d="M285 756h-87l-106 130h110zM480 756h-87l-106 130h110zM532 0l-179 245h-198v-245h-74v690h310q97 0 161.5 -63.5t64.5 -158.5q0 -82 -48.5 -141.5t-126.5 -76.5l182 -250h-92zM155 590v-245h234q67 0 109.5 34.5t42.5 88.5t-42.5 88t-109.5 34h-234z" />
    <glyph glyph-name="uni0211" unicode="&#x211;" horiz-adv-x="371" 
d="M63 706l83 -130h-87l-106 130h110zM341 576h-87l-106 130h110zM141 375q27 67 79.5 105t121.5 38v-117q-94 0 -147.5 -42.5t-53.5 -116.5v-242h-68v510h68v-135z" />
    <glyph glyph-name="uni0212" unicode="&#x212;" horiz-adv-x="658" 
d="M336 810q-31 0 -52 -17t-21 -43h-66q0 58 40 97.5t99 39.5t99 -39.5t40 -97.5h-66q0 26 -21 43t-52 17zM532 0l-179 245h-198v-245h-74v690h310q97 0 161.5 -63.5t64.5 -158.5q0 -82 -48.5 -141.5t-126.5 -76.5l182 -250h-92zM155 590v-245h234q67 0 109.5 34.5
t42.5 88.5t-42.5 88t-109.5 34h-234z" />
    <glyph glyph-name="uni0213" unicode="&#x213;" horiz-adv-x="371" 
d="M197 630q-31 0 -52 -17t-21 -43h-66q0 58 40 97.5t99 39.5t99 -39.5t40 -97.5h-66q0 26 -21 43t-52 17zM141 375q27 67 79.5 105t121.5 38v-117q-94 0 -147.5 -42.5t-53.5 -116.5v-242h-68v510h68v-135z" />
    <glyph glyph-name="uni0214" unicode="&#x214;" horiz-adv-x="693" 
d="M208 756l-106 130h110l83 -130h-87zM403 756l-106 130h110l83 -130h-87zM346 -12q-119 0 -199.5 79t-80.5 197v426h74v-424q0 -75 59 -125.5t147 -50.5q89 0 148 50.5t59 125.5v424h74v-426q0 -118 -80.5 -197t-200.5 -79z" />
    <glyph glyph-name="uni0215" unicode="&#x215;" horiz-adv-x="597" 
d="M244 576h-87l-106 130h110zM439 576h-87l-106 130h110zM455 510h69v-510h-69v112q-55 -124 -191 -124q-89 0 -144 55t-55 146v321h69v-297q0 -58 43 -93t114 -35q74 0 119 36t45 94v295z" />
    <glyph glyph-name="uni0216" unicode="&#x216;" horiz-adv-x="693" 
d="M207 750q0 58 40 97.5t99 39.5t99 -39.5t40 -97.5h-66q0 26 -21 43t-52 17t-52 -17t-21 -43h-66zM346 -12q-119 0 -199.5 79t-80.5 197v426h74v-424q0 -75 59 -125.5t147 -50.5q89 0 148 50.5t59 125.5v424h74v-426q0 -118 -80.5 -197t-200.5 -79z" />
    <glyph glyph-name="uni0217" unicode="&#x217;" horiz-adv-x="597" 
d="M295 630q-31 0 -52 -17t-21 -43h-66q0 58 40 97.5t99 39.5t99 -39.5t40 -97.5h-66q0 26 -21 43t-52 17zM455 510h69v-510h-69v112q-55 -124 -191 -124q-89 0 -144 55t-55 146v321h69v-297q0 -58 43 -93t114 -35q74 0 119 36t45 94v295z" />
    <glyph glyph-name="uni0218" unicode="&#x218;" horiz-adv-x="611" 
d="M326 397q246 -45 246 -203q0 -92 -76.5 -149t-187.5 -57q-115 0 -192.5 60t-77.5 149h77q0 -48 56 -80.5t141 -32.5q78 0 131 28.5t53 73.5q0 28 -20 49t-57 34.5t-66 20.5t-69 14q-109 21 -170 71.5t-61 129.5q0 88 71.5 142.5t178.5 54.5q110 0 182.5 -57.5
t72.5 -142.5h-77q0 44 -51.5 74t-129.5 30q-73 0 -122 -26.5t-49 -69.5q0 -79 197 -113zM308 -70q28 0 45 -18.5t17 -49.5q0 -74 -49 -125h-81q58 35 81 93q-8 -2 -16 -2q-24 0 -40.5 14.5t-16.5 36.5t17 36.5t43 14.5z" />
    <glyph glyph-name="uni0219" unicode="&#x219;" horiz-adv-x="529" 
d="M286 298q204 -28 204 -153q0 -72 -63.5 -114.5t-162.5 -42.5q-98 0 -161 48.5t-63 122.5h68q0 -34 44 -55.5t113 -21.5t112 18t43 47q0 27 -42 43t-131 28q-198 29 -198 153q0 69 60.5 110t153.5 41q96 0 157 -46.5t61 -117.5h-70q0 31 -41 50.5t-107 19.5
q-64 0 -104.5 -17t-40.5 -44q0 -46 168 -69zM267 -70q28 0 45 -18.5t17 -49.5q0 -74 -49 -125h-81q58 35 81 93q-8 -2 -16 -2q-24 0 -40.5 14.5t-16.5 36.5t17 36.5t43 14.5z" />
    <glyph glyph-name="uni021A" unicode="&#x21a;" horiz-adv-x="606" 
d="M28 690h549v-100h-237v-590h-74v590h-238v100zM306 -70q28 0 45 -18.5t17 -49.5q0 -74 -49 -125h-81q58 35 81 93q-8 -2 -16 -2q-24 0 -40.5 14.5t-16.5 36.5t17 36.5t43 14.5z" />
    <glyph glyph-name="uni021B" unicode="&#x21b;" horiz-adv-x="397" 
d="M365 415h-166v-258q0 -61 80 -61h76v-96h-82q-143 0 -143 138v277h-110v95h110v133l69 17v-150h166v-95zM248 -70q28 0 45 -18.5t17 -49.5q0 -74 -49 -125h-81q58 35 81 93q-8 -2 -16 -2q-24 0 -40.5 14.5t-16.5 36.5t17 36.5t43 14.5z" />
    <glyph glyph-name="uni0232" unicode="&#x232;" horiz-adv-x="646" 
d="M205 772v83h237v-83h-237zM286 0v244l-277 446h85l214 -320h25l214 320h90l-277 -446v-244h-74z" />
    <glyph glyph-name="uni0233" unicode="&#x233;" horiz-adv-x="543" 
d="M390 675v-83h-237v83h237zM449 510h80l-282 -700h-90l90 190h-27l-206 510h73l170 -395h22z" />
    <glyph glyph-name="uni0237" unicode="&#x237;" horiz-adv-x="221" 
d="M-35 -202v96q114 0 114 90v526h69v-534q0 -178 -183 -178z" />
    <glyph glyph-name="uni02BC" unicode="&#x2bc;" horiz-adv-x="123" 
d="M62 732q28 0 44.5 -19t16.5 -50q0 -86 -46 -145h-77q56 46 76 113q-10 -2 -17 -2q-23 0 -39 14.5t-16 36.5t16.5 37t41.5 15z" />
    <glyph glyph-name="circumflex" unicode="&#x2c6;" horiz-adv-x="308" 
d="M0 576l100 130h108l100 -130h-81l-66 66h-7l-66 -66h-88z" />
    <glyph glyph-name="caron" unicode="&#x2c7;" horiz-adv-x="308" 
d="M100 576l-100 130h88l66 -66h7l66 66h81l-100 -130h-108z" />
    <glyph glyph-name="breve" unicode="&#x2d8;" horiz-adv-x="278" 
d="M139 566q-59 0 -99 39t-40 97h66q0 -25 21 -42t52 -17t52 17t21 42h66q0 -58 -40 -97t-99 -39z" />
    <glyph glyph-name="dotaccent" unicode="&#x2d9;" horiz-adv-x="126" 
d="M63 580q-27 0 -45 17t-18 41q0 25 18 42t45 17q26 0 44.5 -17t18.5 -42q0 -24 -18.5 -41t-44.5 -17z" />
    <glyph glyph-name="ring" unicode="&#x2da;" horiz-adv-x="179" 
d="M89 563q-38 0 -63.5 24.5t-25.5 61.5t25.5 61.5t63.5 24.5t64 -24.5t26 -61.5t-26 -61.5t-64 -24.5zM89 615q19 0 31.5 9.5t12.5 24.5t-12.5 24.5t-31.5 9.5q-18 0 -30.5 -9.5t-12.5 -24.5t12.5 -24.5t30.5 -9.5z" />
    <glyph glyph-name="ogonek" unicode="&#x2db;" horiz-adv-x="187" 
d="M108 -223q-46 0 -77 28t-31 69t33 76t85 53h56l2 -3q-104 -47 -104 -102q0 -19 15.5 -30.5t36.5 -11.5q34 0 63 17v-74q-34 -22 -79 -22z" />
    <glyph glyph-name="tilde" unicode="&#x2dc;" horiz-adv-x="340" 
d="M238 583q-33 0 -69.5 22.5t-56.5 22.5q-21 0 -34.5 -12t-13.5 -29h-64q0 52 27.5 86t74.5 34q33 0 69 -23t56 -23q21 0 35 12t14 30h64q0 -53 -28 -86.5t-74 -33.5z" />
    <glyph glyph-name="hungarumlaut" unicode="&#x2dd;" horiz-adv-x="388" 
d="M0 576l82 130h111l-107 -130h-86zM195 576l83 130h110l-106 -130h-87z" />
    <glyph glyph-name="gravecomb" unicode="&#x300;" 
d="M-95 576l-134 130h125l104 -130h-95z" />
    <glyph glyph-name="acutecomb" unicode="&#x301;" 
d="M-229 576l104 130h125l-134 -130h-95z" />
    <glyph glyph-name="uni0302" unicode="&#x302;" 
d="M-308 576l100 130h108l100 -130h-81l-66 66h-7l-66 -66h-88z" />
    <glyph glyph-name="tildecomb" unicode="&#x303;" 
d="M-102 583q-33 0 -69.5 22.5t-56.5 22.5q-21 0 -34.5 -12t-13.5 -29h-64q0 52 27.5 86t74.5 34q33 0 69 -23t56 -23q21 0 35 12t14 30h64q0 -53 -28 -86.5t-74 -33.5z" />
    <glyph glyph-name="uni0304" unicode="&#x304;" 
d="M-237 592v83h237v-83h-237z" />
    <glyph glyph-name="uni0306" unicode="&#x306;" 
d="M-139 566q-59 0 -99 39t-40 97h66q0 -25 21 -42t52 -17t52 17t21 42h66q0 -58 -40 -97t-99 -39z" />
    <glyph glyph-name="uni0307" unicode="&#x307;" 
d="M-63 580q-27 0 -45 17t-18 41q0 25 18 42t45 17q26 0 44.5 -17t18.5 -42q0 -24 -18.5 -41t-44.5 -17z" />
    <glyph glyph-name="uni0308" unicode="&#x308;" 
d="M-268 580q-26 0 -43 16t-17 40t17 40t43 16t43 -16t17 -40q0 -23 -17.5 -39.5t-42.5 -16.5zM-60 580q-25 0 -42.5 16.5t-17.5 39.5q0 24 17 40t43 16t43 -16t17 -40q0 -23 -17.5 -39.5t-42.5 -16.5z" />
    <glyph glyph-name="uni030A" unicode="&#x30a;" 
d="M-90 563q-38 0 -63.5 24.5t-25.5 61.5t25.5 61.5t63.5 24.5t64 -24.5t26 -61.5t-26 -61.5t-64 -24.5zM-90 615q19 0 31.5 9.5t12.5 24.5t-12.5 24.5t-31.5 9.5q-18 0 -30.5 -9.5t-12.5 -24.5t12.5 -24.5t30.5 -9.5z" />
    <glyph glyph-name="uni030B" unicode="&#x30b;" 
d="M-388 576l82 130h111l-107 -130h-86zM-193 576l83 130h110l-106 -130h-87z" />
    <glyph glyph-name="uni030C" unicode="&#x30c;" 
d="M-208 576l-100 130h88l66 -66h7l66 66h81l-100 -130h-108z" />
    <glyph glyph-name="uni030F" unicode="&#x30f;" 
d="M-282 576l-106 130h110l83 -130h-87zM-87 576l-106 130h110l83 -130h-87z" />
    <glyph glyph-name="uni0311" unicode="&#x311;" 
d="M-278 570q0 58 40 97.5t99 39.5t99 -39.5t40 -97.5h-66q0 26 -21 43t-52 17t-52 -17t-21 -43h-66z" />
    <glyph glyph-name="uni0312" unicode="&#x312;" 
d="M-65 682q25 0 41 -14.5t16 -36.5t-17 -36.5t-43 -14.5q-28 0 -45 18.5t-17 49.5q0 73 50 125h80q-59 -37 -81 -93q8 2 16 2z" />
    <glyph glyph-name="dotbelowcomb" unicode="&#x323;" 
d="M-63 -187q-27 0 -45 17t-18 42q0 24 18 41t45 17q26 0 44.5 -17t18.5 -41q0 -25 -18.5 -42t-44.5 -17z" />
    <glyph glyph-name="uni0326" unicode="&#x326;" 
d="M-62 -70q28 0 45 -18.5t17 -49.5q0 -74 -49 -125h-81q58 35 81 93q-8 -2 -16 -2q-24 0 -40.5 14.5t-16.5 36.5t17 36.5t43 14.5z" />
    <glyph glyph-name="uni0327" unicode="&#x327;" 
d="M-97 -34q41 0 69 -27.5t28 -67.5q0 -41 -31.5 -69t-77.5 -28t-77 28t-31 69h55q0 -16 15.5 -27.5t37.5 -11.5q23 0 38.5 11.5t15.5 27.5q0 18 -15 30t-38 12q-26 0 -42 -13l-49 25l61 75v2h62v-2l-29 -34h8z" />
    <glyph glyph-name="uni0328" unicode="&#x328;" 
d="M-79 -223q-46 0 -77 28t-31 69t33 76t85 53h56l2 -3q-104 -47 -104 -102q0 -19 15.5 -30.5t36.5 -11.5q34 0 63 17v-74q-34 -22 -79 -22z" />
    <glyph glyph-name="uni0335" unicode="&#x335;" 
d="M-290 240v68h290v-68h-290z" />
    <glyph glyph-name="uni0336" unicode="&#x336;" 
d="M-681 234v79h681v-79h-681z" />
    <glyph glyph-name="uni0337" unicode="&#x337;" 
d="M-546 0l467 510h79l-467 -510h-79z" />
    <glyph glyph-name="uni0338" unicode="&#x338;" 
d="M-709 0l616 690h93l-616 -690h-93z" />
    <glyph glyph-name="uni1E0C" unicode="&#x1e0c;" horiz-adv-x="741" 
d="M347 690q150 0 250 -98.5t100 -246.5t-100 -246.5t-250 -98.5h-266v690h266zM346 100q117 0 195.5 70t78.5 175t-78.5 175t-195.5 70h-191v-490h191zM362 -70q26 0 44.5 -17t18.5 -41q0 -25 -18.5 -42t-44.5 -17q-27 0 -45 17t-18 42q0 24 18 41t45 17z" />
    <glyph glyph-name="uni1E0D" unicode="&#x1e0d;" horiz-adv-x="654" 
d="M513 720h68v-720h-68v131q-29 -66 -86 -104.5t-130 -38.5q-109 0 -182 76.5t-73 190.5t73 190.5t182 76.5q73 0 130 -38.5t86 -104.5v341zM313 85q86 0 143 48.5t57 121.5t-57 121.5t-143 48.5t-143 -48.5t-57 -121.5t57 -121.5t143 -48.5zM326 -70q26 0 44.5 -17
t18.5 -41q0 -25 -18.5 -42t-44.5 -17q-27 0 -45 17t-18 42q0 24 18 41t45 17z" />
    <glyph glyph-name="uni1E24" unicode="&#x1e24;" horiz-adv-x="730" 
d="M575 690h74v-690h-74v294h-420v-294h-74v690h74v-290h420v290zM365 -70q26 0 44.5 -17t18.5 -41q0 -25 -18.5 -42t-44.5 -17q-27 0 -45 17t-18 42q0 24 18 41t45 17z" />
    <glyph glyph-name="uni1E25" unicode="&#x1e25;" horiz-adv-x="616" 
d="M343 522q93 0 150 -56.5t57 -150.5v-315h-68v288q0 62 -45.5 99.5t-121.5 37.5q-78 0 -126 -38t-48 -101v-286h-68v720h68v-329q27 63 79.5 97t122.5 34zM312 -70q26 0 44.5 -17t18.5 -41q0 -25 -18.5 -42t-44.5 -17q-27 0 -45 17t-18 42q0 24 18 41t45 17z" />
    <glyph glyph-name="uni1E44" unicode="&#x1e44;" horiz-adv-x="739" 
d="M372 760q-27 0 -45 17t-18 41q0 25 18 42t45 17q26 0 44.5 -17t18.5 -42q0 -24 -18.5 -41t-44.5 -17zM81 0v690h93l392 -532h17v532h74v-690h-92l-392 532h-18v-532h-74z" />
    <glyph glyph-name="uni1E45" unicode="&#x1e45;" horiz-adv-x="616" 
d="M312 580q-27 0 -45 17t-18 41q0 25 18 42t45 17q26 0 44.5 -17t18.5 -42q0 -24 -18.5 -41t-44.5 -17zM343 522q93 0 150 -56.5t57 -150.5v-315h-68v288q0 62 -45.5 99.5t-121.5 37.5q-78 0 -126 -38t-48 -101v-286h-68v510h68v-117q27 62 79.5 95.5t122.5 33.5z" />
    <glyph glyph-name="uni1E5A" unicode="&#x1e5a;" horiz-adv-x="658" 
d="M442 250l182 -250h-92l-179 245h-198v-245h-74v690h310q97 0 161.5 -63.5t64.5 -158.5q0 -82 -48.5 -141.5t-126.5 -76.5zM155 590v-245h234q67 0 109.5 34.5t42.5 88.5t-42.5 88t-109.5 34h-234zM346 -70q26 0 44.5 -17t18.5 -41q0 -25 -18.5 -42t-44.5 -17
q-27 0 -45 17t-18 42q0 24 18 41t45 17z" />
    <glyph glyph-name="uni1E5B" unicode="&#x1e5b;" horiz-adv-x="371" 
d="M141 375q27 67 79.5 105t121.5 38v-117q-94 0 -147.5 -42.5t-53.5 -116.5v-242h-68v510h68v-135zM107 -70q26 0 44.5 -17t18.5 -41q0 -25 -18.5 -42t-44.5 -17q-27 0 -45 17t-18 42q0 24 18 41t45 17z" />
    <glyph glyph-name="uni1E62" unicode="&#x1e62;" horiz-adv-x="611" 
d="M308 -12q-115 0 -192.5 60t-77.5 149h77q0 -48 56 -80.5t141 -32.5q78 0 131 28.5t53 73.5q0 28 -20 49t-57 34.5t-66 20.5t-69 14q-109 21 -170 71.5t-61 129.5q0 88 71.5 142.5t178.5 54.5q110 0 182.5 -57.5t72.5 -142.5h-77q0 44 -51.5 74t-129.5 30
q-73 0 -122 -26.5t-49 -69.5q0 -79 197 -113q246 -45 246 -203q0 -92 -76.5 -149t-187.5 -57zM306 -187q-27 0 -45 17t-18 42q0 24 18 41t45 17q26 0 44.5 -17t18.5 -41q0 -25 -18.5 -42t-44.5 -17z" />
    <glyph glyph-name="uni1E63" unicode="&#x1e63;" horiz-adv-x="529" 
d="M264 -12q-98 0 -161 48.5t-63 122.5h68q0 -34 44 -55.5t113 -21.5t112 18t43 47q0 27 -42 43t-131 28q-198 29 -198 153q0 69 60.5 110t153.5 41q96 0 157 -46.5t61 -117.5h-70q0 31 -41 50.5t-107 19.5q-64 0 -104.5 -17t-40.5 -44q0 -46 168 -69q204 -28 204 -153
q0 -72 -63.5 -114.5t-162.5 -42.5zM264 -187q-27 0 -45 17t-18 42q0 24 18 41t45 17q26 0 44.5 -17t18.5 -41q0 -25 -18.5 -42t-44.5 -17z" />
    <glyph glyph-name="uni1E6C" unicode="&#x1e6c;" horiz-adv-x="606" 
d="M28 690h549v-100h-237v-590h-74v590h-238v100zM303 -70q26 0 44.5 -17t18.5 -41q0 -25 -18.5 -42t-44.5 -17q-27 0 -45 17t-18 42q0 24 18 41t45 17z" />
    <glyph glyph-name="uni1E6D" unicode="&#x1e6d;" horiz-adv-x="397" 
d="M365 415h-166v-258q0 -61 80 -61h76v-96h-82q-143 0 -143 138v277h-110v95h110v133l69 17v-150h166v-95zM245 -70q26 0 44.5 -17t18.5 -41q0 -25 -18.5 -42t-44.5 -17q-27 0 -45 17t-18 42q0 24 18 41t45 17z" />
    <glyph glyph-name="Wgrave" unicode="&#x1e80;" horiz-adv-x="1070" 
d="M495 756l-134 130h125l104 -130h-95zM252 0l-227 690h79l185 -536h26l181 536h74l182 -536h25l185 536h84l-228 -690h-96l-170 517h-34l-170 -517h-96z" />
    <glyph glyph-name="wgrave" unicode="&#x1e81;" horiz-adv-x="839" 
d="M380 576l-134 130h125l104 -130h-95zM195 0l-177 510h71l141 -379h22l129 379h71l128 -379h22l141 379h78l-177 -510h-89l-121 374h-28l-122 -374h-89z" />
    <glyph glyph-name="Wacute" unicode="&#x1e82;" horiz-adv-x="1070" 
d="M482 756l104 130h125l-134 -130h-95zM252 0l-227 690h79l185 -536h26l181 536h74l182 -536h25l185 536h84l-228 -690h-96l-170 517h-34l-170 -517h-96z" />
    <glyph glyph-name="wacute" unicode="&#x1e83;" horiz-adv-x="839" 
d="M366 576l104 130h125l-134 -130h-95zM195 0l-177 510h71l141 -379h22l129 379h71l128 -379h22l141 379h78l-177 -510h-89l-121 374h-28l-122 -374h-89z" />
    <glyph glyph-name="Wdieresis" unicode="&#x1e84;" horiz-adv-x="1070" 
d="M432 760q-26 0 -43 16t-17 40t17 40t43 16t43 -16t17 -40q0 -23 -17.5 -39.5t-42.5 -16.5zM640 760q-25 0 -42.5 16.5t-17.5 39.5q0 24 17 40t43 16t43 -16t17 -40q0 -23 -17.5 -39.5t-42.5 -16.5zM252 0l-227 690h79l185 -536h26l181 536h74l182 -536h25l185 536h84
l-228 -690h-96l-170 517h-34l-170 -517h-96z" />
    <glyph glyph-name="wdieresis" unicode="&#x1e85;" horiz-adv-x="839" 
d="M316 580q-26 0 -43 16t-17 40t17 40t43 16t43 -16t17 -40q0 -23 -17.5 -39.5t-42.5 -16.5zM524 580q-25 0 -42.5 16.5t-17.5 39.5q0 24 17 40t43 16t43 -16t17 -40q0 -23 -17.5 -39.5t-42.5 -16.5zM195 0l-177 510h71l141 -379h22l129 379h71l128 -379h22l141 379h78
l-177 -510h-89l-121 374h-28l-122 -374h-89z" />
    <glyph glyph-name="uni1E92" unicode="&#x1e92;" horiz-adv-x="644" 
d="M161 100h441v-100h-561v71l435 519h-431v100h550v-71zM321 -70q26 0 44.5 -17t18.5 -41q0 -25 -18.5 -42t-44.5 -17q-27 0 -45 17t-18 42q0 24 18 41t45 17z" />
    <glyph glyph-name="uni1E93" unicode="&#x1e93;" horiz-adv-x="519" 
d="M156 95h321v-95h-436v66l314 349h-310v95h425v-66zM260 -70q26 0 44.5 -17t18.5 -41q0 -25 -18.5 -42t-44.5 -17q-27 0 -45 17t-18 42q0 24 18 41t45 17z" />
    <glyph glyph-name="uni1E9E" unicode="&#x1e9e;" horiz-adv-x="650" 
d="M434 420q83 -9 137.5 -70t54.5 -146q0 -93 -63 -154.5t-156 -61.5q-81 0 -136 38v101q19 -16 57 -26.5t73 -10.5q65 0 107 33.5t42 84.5q0 50 -39 83t-100 33h-81v63l160 203h-247q-40 0 -66 -17t-26 -43v-530h-74v539q0 67 43.5 109t112.5 42h356v-75z" />
    <glyph glyph-name="uni1EA0" unicode="&#x1ea0;" horiz-adv-x="723" 
d="M702 0h-79l-69 162h-380l-69 -162h-85l282 690h119zM216 262h295l-133 312h-29zM362 -70q26 0 44.5 -17t18.5 -41q0 -25 -18.5 -42t-44.5 -17q-27 0 -45 17t-18 42q0 24 18 41t45 17z" />
    <glyph glyph-name="uni1EA1" unicode="&#x1ea1;" horiz-adv-x="654" 
d="M513 510h68v-510h-68v131q-29 -66 -86 -104.5t-130 -38.5q-109 0 -182 76.5t-73 190.5t73 190.5t182 76.5q73 0 130 -38.5t86 -104.5v131zM313 85q86 0 143 48.5t57 121.5t-57 121.5t-143 48.5t-143 -48.5t-57 -121.5t57 -121.5t143 -48.5zM330 -70q26 0 44.5 -17
t18.5 -41q0 -25 -18.5 -42t-44.5 -17q-27 0 -45 17t-18 42q0 24 18 41t45 17z" />
    <glyph glyph-name="uni1EB8" unicode="&#x1eb8;" horiz-adv-x="613" 
d="M155 100h413v-100h-487v690h482v-100h-408v-195h375v-96h-375v-199zM333 -70q26 0 44.5 -17t18.5 -41q0 -25 -18.5 -42t-44.5 -17q-27 0 -45 17t-18 42q0 24 18 41t45 17z" />
    <glyph glyph-name="uni1EB9" unicode="&#x1eb9;" horiz-adv-x="622" 
d="M583 253q0 -12 -2 -34h-468q14 -59 69 -96t132 -37q117 0 175 61h83q-32 -73 -101.5 -116t-157.5 -43q-117 0 -195 76.5t-78 190.5t78 190.5t194 76.5t193.5 -76.5t77.5 -192.5zM312 424q-75 0 -130 -36.5t-69 -95.5h398q-14 59 -69 95.5t-130 36.5zM312 -70
q26 0 44.5 -17t18.5 -41q0 -25 -18.5 -42t-44.5 -17q-27 0 -45 17t-18 42q0 24 18 41t45 17z" />
    <glyph glyph-name="uni1EBC" unicode="&#x1ebc;" horiz-adv-x="613" 
d="M274 808q-21 0 -34.5 -12t-13.5 -29h-64q0 52 27.5 86t74.5 34q33 0 69 -23t56 -23q21 0 35 12t14 30h64q0 -53 -28 -86.5t-74 -33.5q-33 0 -69.5 22.5t-56.5 22.5zM155 100h413v-100h-487v690h482v-100h-408v-195h375v-96h-375v-199z" />
    <glyph glyph-name="uni1EBD" unicode="&#x1ebd;" horiz-adv-x="622" 
d="M254 628q-21 0 -34.5 -12t-13.5 -29h-64q0 52 27.5 86t74.5 34q33 0 69 -23t56 -23q21 0 35 12t14 30h64q0 -53 -28 -86.5t-74 -33.5q-33 0 -69.5 22.5t-56.5 22.5zM583 253q0 -12 -2 -34h-468q14 -59 69 -96t132 -37q117 0 175 61h83q-32 -73 -101.5 -116t-157.5 -43
q-117 0 -195 76.5t-78 190.5t78 190.5t194 76.5t193.5 -76.5t77.5 -192.5zM312 424q-75 0 -130 -36.5t-69 -95.5h398q-14 59 -69 95.5t-130 36.5z" />
    <glyph glyph-name="uni1ECA" unicode="&#x1eca;" horiz-adv-x="237" 
d="M81 0v690h74v-690h-74zM119 -187q-27 0 -45 17t-18 42q0 24 18 41t45 17q26 0 44.5 -17t18.5 -41q0 -25 -18.5 -42t-44.5 -17z" />
    <glyph glyph-name="uni1ECB" unicode="&#x1ecb;" horiz-adv-x="214" 
d="M107 611q-27 0 -45 15.5t-18 38.5t18 39t45 16t45 -16t18 -39t-18 -38.5t-45 -15.5zM73 0v510h68v-510h-68zM107 -187q-27 0 -45 17t-18 42q0 24 18 41t45 17q26 0 44.5 -17t18.5 -41q0 -25 -18.5 -42t-44.5 -17z" />
    <glyph glyph-name="uni1ECC" unicode="&#x1ecc;" horiz-adv-x="812" 
d="M406 -12q-154 0 -257.5 102.5t-103.5 254.5t103.5 254.5t257.5 102.5t257.5 -102.5t103.5 -254.5t-103.5 -254.5t-257.5 -102.5zM406 90q122 0 203.5 73t81.5 182t-81.5 182t-203.5 73q-121 0 -202.5 -73t-81.5 -182t81.5 -182t202.5 -73zM406 -187q-27 0 -45 17t-18 42
q0 24 18 41t45 17q26 0 44.5 -17t18.5 -41q0 -25 -18.5 -42t-44.5 -17z" />
    <glyph glyph-name="uni1ECD" unicode="&#x1ecd;" horiz-adv-x="623" 
d="M312 -12q-116 0 -194 76.5t-78 190.5t78 190.5t194 76.5t193.5 -76.5t77.5 -190.5t-77.5 -190.5t-193.5 -76.5zM312 85q86 0 143 48.5t57 121.5t-57 121.5t-143 48.5t-143 -48.5t-57 -121.5t57 -121.5t143 -48.5zM312 -187q-27 0 -45 17t-18 42q0 24 18 41t45 17
q26 0 44.5 -17t18.5 -41q0 -25 -18.5 -42t-44.5 -17z" />
    <glyph glyph-name="uni1EE4" unicode="&#x1ee4;" horiz-adv-x="693" 
d="M346 -12q-119 0 -199.5 79t-80.5 197v426h74v-424q0 -75 59 -125.5t147 -50.5q89 0 148 50.5t59 125.5v424h74v-426q0 -118 -80.5 -197t-200.5 -79zM347 -187q-27 0 -45 17t-18 42q0 24 18 41t45 17q26 0 44.5 -17t18.5 -41q0 -25 -18.5 -42t-44.5 -17z" />
    <glyph glyph-name="uni1EE5" unicode="&#x1ee5;" horiz-adv-x="597" 
d="M455 510h69v-510h-69v112q-55 -124 -191 -124q-89 0 -144 55t-55 146v321h69v-297q0 -58 43 -93t114 -35q74 0 119 36t45 94v295zM295 -70q26 0 44.5 -17t18.5 -41q0 -25 -18.5 -42t-44.5 -17q-27 0 -45 17t-18 42q0 24 18 41t45 17z" />
    <glyph glyph-name="Ygrave" unicode="&#x1ef2;" horiz-adv-x="646" 
d="M283 756l-134 130h125l104 -130h-95zM286 0v244l-277 446h85l214 -320h25l214 320h90l-277 -446v-244h-74z" />
    <glyph glyph-name="ygrave" unicode="&#x1ef3;" horiz-adv-x="543" 
d="M326 576h-95l-134 130h125zM449 510h80l-282 -700h-90l90 190h-27l-206 510h73l170 -395h22z" />
    <glyph glyph-name="uni1EF8" unicode="&#x1ef8;" horiz-adv-x="646" 
d="M391 763q-33 0 -69.5 22.5t-56.5 22.5q-21 0 -34.5 -12t-13.5 -29h-64q0 52 27.5 86t74.5 34q33 0 69 -23t56 -23q21 0 35 12t14 30h64q0 -53 -28 -86.5t-74 -33.5zM286 0v244l-277 446h85l214 -320h25l214 320h90l-277 -446v-244h-74z" />
    <glyph glyph-name="uni1EF9" unicode="&#x1ef9;" horiz-adv-x="543" 
d="M214 628q-21 0 -34.5 -12t-13.5 -29h-64q0 52 27.5 86t74.5 34q33 0 69 -23t56 -23q21 0 35 12t14 30h64q0 -53 -28 -86.5t-74 -33.5q-33 0 -69.5 22.5t-56.5 22.5zM449 510h80l-282 -700h-90l90 190h-27l-206 510h73l170 -395h22z" />
    <glyph glyph-name="endash" unicode="&#x2013;" horiz-adv-x="608" 
d="M63 228v91h482v-91h-482z" />
    <glyph glyph-name="emdash" unicode="&#x2014;" horiz-adv-x="1068" 
d="M63 228v91h942v-91h-942z" />
    <glyph glyph-name="quoteleft" unicode="&#x2018;" horiz-adv-x="242" 
d="M121 551q31 0 51 -19t20 -48t-21 -47.5t-54 -18.5q-34 0 -54 23.5t-20 61.5q0 53 18 107.5t47 91.5h96q-38 -29 -67 -72t-39 -83q9 4 23 4z" />
    <glyph glyph-name="quoteright" unicode="&#x2019;" horiz-adv-x="242" 
d="M125 702q34 0 54.5 -22t20.5 -59q0 -54 -18.5 -109.5t-47.5 -93.5h-96q38 29 67 71.5t39 83.5q-8 -4 -23 -4q-31 0 -51 19t-20 48t21 47.5t54 18.5z" />
    <glyph glyph-name="quotesinglbase" unicode="&#x201a;" horiz-adv-x="249" 
d="M125 126q34 0 54.5 -22t20.5 -59q0 -54 -18.5 -110t-47.5 -93h-96q38 28 67 71t39 84q-8 -4 -23 -4q-31 0 -51 18.5t-20 47.5t21 48t54 19z" />
    <glyph glyph-name="quotedblleft" unicode="&#x201c;" horiz-adv-x="453" 
d="M204 702q-38 -29 -67 -72t-39 -83q9 4 23 4q31 0 51 -19t20 -48t-21 -47.5t-54 -18.5q-34 0 -54 23.5t-20 61.5q0 53 18 107.5t47 91.5h96zM332 551q31 0 51 -19t20 -48q0 -28 -21.5 -47t-53.5 -19q-34 0 -54.5 23.5t-20.5 61.5q0 53 18 107.5t48 91.5h95
q-37 -29 -66 -71.5t-40 -83.5q9 4 24 4z" />
    <glyph glyph-name="quotedblright" unicode="&#x201d;" horiz-adv-x="453" 
d="M125 702q34 0 54.5 -22t20.5 -59q0 -54 -18.5 -109.5t-47.5 -93.5h-96q38 29 67 71.5t39 83.5q-8 -4 -23 -4q-31 0 -51 19t-20 48t21 47.5t54 18.5zM335 702q34 0 54.5 -22t20.5 -59q0 -54 -18 -110t-48 -93h-95q38 29 67 72t39 83q-9 -4 -23 -4q-31 0 -51.5 19t-20.5 48
q0 28 21.5 47t53.5 19z" />
    <glyph glyph-name="quotedblbase" unicode="&#x201e;" horiz-adv-x="460" 
d="M125 126q34 0 54.5 -22t20.5 -59q0 -54 -18.5 -110t-47.5 -93h-96q38 28 67 71t39 84q-8 -4 -23 -4q-31 0 -51 18.5t-20 47.5t21 48t54 19zM335 126q34 0 54.5 -22t20.5 -59q0 -55 -18 -110.5t-48 -92.5h-95q38 28 67 71t39 84q-8 -4 -23 -4q-31 0 -51.5 19t-20.5 47
q0 29 21.5 48t53.5 19z" />
    <glyph glyph-name="dagger" unicode="&#x2020;" horiz-adv-x="494" 
d="M431 510v-91h-153v-609h-62v609h-153v91h153v180h62v-180h153z" />
    <glyph glyph-name="daggerdbl" unicode="&#x2021;" horiz-adv-x="494" 
d="M431 419h-153v-318h153v-91h-153v-200h-62v200h-153v91h153v318h-153v91h153v180h62v-180h153v-91z" />
    <glyph glyph-name="bullet" unicode="&#x2022;" horiz-adv-x="338" 
d="M169 176q-45 0 -75.5 28t-30.5 70t30.5 70t75.5 28q46 0 76 -28t30 -70t-30 -70t-76 -28z" />
    <glyph glyph-name="ellipsis" unicode="&#x2026;" horiz-adv-x="708" 
d="M125 -7q-32 0 -53.5 19t-21.5 47q0 29 21.5 48t53.5 19t53.5 -19.5t21.5 -47.5t-21.5 -47t-53.5 -19zM354 -7q-32 0 -53.5 19t-21.5 47q0 29 21.5 48t53.5 19t53.5 -19t21.5 -48q0 -28 -21.5 -47t-53.5 -19zM584 -7q-32 0 -53.5 19t-21.5 47q0 29 21.5 48t53.5 19
q31 0 52.5 -19t21.5 -48q0 -28 -21.5 -47t-52.5 -19z" />
    <glyph glyph-name="perthousand" unicode="&#x2030;" horiz-adv-x="1204" 
d="M210 382q-70 0 -116 46t-46 114t46 114t116 46q69 0 115 -46t46 -114t-46 -114t-115 -46zM127 0l500 690h78l-500 -690h-78zM210 464q44 0 73 22t29 56t-29 56t-73 22t-73 -22t-29 -56t29 -56t73 -22zM622 -12q-70 0 -116 46t-46 114t46 114t116 46q69 0 115 -46t46 -114
t-46 -114t-115 -46zM995 -12q-70 0 -116 46t-46 114t46 114t116 46q69 0 115 -46t46 -114t-46 -114t-115 -46zM622 70q44 0 73 22t29 56t-29 56t-73 22t-73 -22t-29 -56t29 -56t73 -22zM995 70q44 0 73 22t29 56t-29 56t-73 22t-73 -22t-29 -56t29 -56t73 -22z" />
    <glyph glyph-name="guilsinglleft" unicode="&#x2039;" horiz-adv-x="372" 
d="M325 467l-197 -203l197 -203h-116l-166 203l166 203h116z" />
    <glyph glyph-name="guilsinglright" unicode="&#x203a;" horiz-adv-x="372" 
d="M165 467l167 -203l-167 -203h-115l196 203l-196 203h115z" />
    <glyph glyph-name="fraction" unicode="&#x2044;" horiz-adv-x="165" 
d="M-191 0l483 690h64l-484 -690h-63z" />
    <glyph glyph-name="uni2070" unicode="&#x2070;" horiz-adv-x="385" 
d="M193 359q-71 0 -116 60t-45 154t45 154t116 60q70 0 114.5 -59.5t44.5 -154.5t-44.5 -154.5t-114.5 -59.5zM193 424q48 0 78.5 41.5t30.5 107.5t-30.5 107.5t-78.5 41.5t-79.5 -41.5t-31.5 -107.5t31.5 -107.5t79.5 -41.5z" />
    <glyph glyph-name="uni2074" unicode="&#x2074;" horiz-adv-x="346" 
d="M330 516v-63h-56v-87h-48v87h-206v48l188 279h66v-264h56zM81 516h145v198z" />
    <glyph glyph-name="uni2075" unicode="&#x2075;" horiz-adv-x="352" 
d="M189 630q60 0 100.5 -39t40.5 -97t-42 -96.5t-105 -38.5q-60 0 -101.5 35.5t-45.5 89.5h50q6 -27 33 -44t64 -17q41 0 69 21t28 52t-28 51.5t-69 20.5q-25 0 -50.5 -8.5t-37.5 -20.5h-50l20 241h240v-64h-198l-9 -118q35 32 91 32z" />
    <glyph glyph-name="uni2076" unicode="&#x2076;" horiz-adv-x="345" 
d="M189 629q58 0 96.5 -38.5t38.5 -94.5q0 -58 -41 -97.5t-104 -39.5q-68 0 -111 49t-43 129q0 107 69 177.5t176 70.5v-64q-77 0 -129 -41t-60 -108q37 57 108 57zM176 424q42 0 70 20.5t28 50.5t-27.5 50t-67.5 20q-41 0 -69.5 -20t-28.5 -50t27.5 -50.5t67.5 -20.5z" />
    <glyph glyph-name="uni2077" unicode="&#x2077;" horiz-adv-x="327" 
d="M26 780h283v-47l-179 -367h-67l185 350h-222v64z" />
    <glyph glyph-name="uni2078" unicode="&#x2078;" horiz-adv-x="355" 
d="M256 581q70 -33 70 -102q0 -51 -43 -85.5t-106 -34.5q-62 0 -105 34.5t-43 85.5q0 69 69 102q-59 33 -59 94q0 47 40 79.5t98 32.5q60 0 99.5 -32t39.5 -80q0 -62 -60 -94zM177 722q-37 0 -62.5 -15t-25.5 -38q0 -25 25 -41t63 -16t63.5 16t25.5 41q0 23 -25.5 38
t-63.5 15zM177 424q43 0 71 17t28 43q0 28 -28 46t-71 18q-42 0 -70 -18t-28 -46q0 -26 28 -43t70 -17z" />
    <glyph glyph-name="uni2079" unicode="&#x2079;" horiz-adv-x="349" 
d="M170 787q68 0 111 -49t43 -129q0 -112 -69 -180t-183 -68v64q83 0 136.5 41.5t61.5 110.5v2q-15 -28 -45 -45t-65 -17q-59 0 -97.5 37.5t-38.5 95.5t41.5 97.5t104.5 39.5zM169 581q42 0 70 20t28 50t-27 50.5t-67 20.5q-42 0 -70.5 -20.5t-28.5 -50.5t27.5 -50t67.5 -20
z" />
    <glyph glyph-name="franc" unicode="&#x20a3;" horiz-adv-x="568" 
d="M530 590h-353v-188h311v-100h-311v-100h169v-93h-169v-109h-74v109h-66v93h66v488h427v-100z" />
    <glyph glyph-name="lira" unicode="&#x20a4;" horiz-adv-x="622" 
d="M191 100h394v-100h-537v100h68v116h-68v76h68v65h-68v76h68v59q0 90 66 150t164 60t163.5 -61.5t65.5 -153.5h-76q0 49 -43.5 81t-109.5 32q-67 0 -111 -32t-44 -81v-54h240v-76h-240v-65h240v-76h-240v-116z" />
    <glyph glyph-name="peseta" unicode="&#x20a7;" horiz-adv-x="746" 
d="M718 514v-93h-65q-16 -78 -77 -127t-145 -49h-235v-245h-74v421h-79v93h79v176h309q84 0 145.5 -49t76.5 -127h65zM430 345q67 0 109 34.5t42 88.5t-42 88t-109 34h-234v-245h234z" />
    <glyph glyph-name="uni20A8" unicode="&#x20a8;" horiz-adv-x="1187" 
d="M617 468q0 -82 -48.5 -141.5t-126.5 -76.5l182 -250h-92l-179 245h-198v-245h-74v690h310q97 0 161.5 -63.5t64.5 -158.5zM155 590v-245h234q67 0 109.5 34.5t42.5 88.5t-42.5 88t-109.5 34h-234zM944 298q204 -28 204 -153q0 -72 -63.5 -114.5t-162.5 -42.5
q-98 0 -161 48.5t-63 122.5h68q0 -34 44 -55.5t113 -21.5t112 18t43 47q0 27 -42 43t-131 28q-198 29 -198 153q0 69 60.5 110t153.5 41q96 0 157 -46.5t61 -117.5h-70q0 31 -41 50.5t-107 19.5q-64 0 -104.5 -17t-40.5 -44q0 -46 168 -69z" />
    <glyph glyph-name="Euro" unicode="&#x20ac;" horiz-adv-x="759" 
d="M478 600q-92 0 -163.5 -39.5t-105.5 -106.5h395l-13 -77h-406q-2 -20 -2 -32t2 -32h397l-13 -77h-360q34 -67 105.5 -106.5t163.5 -39.5q137 0 231 87v-104q-101 -85 -241 -85q-123 0 -217 68.5t-128 179.5h-90l13 77h62q-1 11 -1 32t1 32h-75l13 77h77q34 111 128 179.5
t218 68.5q139 0 240 -85v-104q-94 87 -231 87z" />
    <glyph glyph-name="uni20B1" unicode="&#x20b1;" horiz-adv-x="746" 
d="M718 584v-84h-62q2 -20 2 -32q0 -11 -2 -33h62v-83h-91q-30 -49 -81.5 -78t-114.5 -29h-235v-245h-74v352h-79v83h79v65h-79v84h79v106h309q63 0 114 -28.5t81 -77.5h92zM430 345q67 0 109 34.5t42 88.5t-42 88t-109 34h-234v-245h234z" />
    <glyph glyph-name="uni20B5" unicode="&#x20b5;" horiz-adv-x="818" 
d="M444 91q84 7 148 49.5t92 108.5h80q-29 -109 -115.5 -180.5t-204.5 -79.5v-59h-52v59q-145 8 -241 109t-96 247t96 247t241 109v59h52v-59q118 -8 204.5 -79.5t115.5 -180.5h-80q-28 66 -92 108.5t-148 49.5v-508zM132 345q0 -103 73.5 -174.5t186.5 -79.5v508
q-113 -8 -186.5 -79.5t-73.5 -174.5z" />
    <glyph glyph-name="uni20B9" unicode="&#x20b9;" horiz-adv-x="555" 
d="M403 606q20 -27 27 -49h94l-19 -84h-60q-2 -90 -63.5 -149.5t-151.5 -59.5h-34l292 -264h-114l-303 269v92h153q62 0 103 33.5t41 83.5t-41 83.5t-103 33.5h-153v95h453l-19 -84h-102z" />
    <glyph glyph-name="uni2116" unicode="&#x2116;" horiz-adv-x="1156" 
d="M926 335q-79 0 -132 52.5t-53 130.5q0 79 53 131.5t132 52.5t132 -52.5t53 -131.5q0 -78 -53 -130.5t-132 -52.5zM583 158v532h74v-690h-81l-421 532v-532h-74v690h82zM926 618q-52 0 -86.5 -28.5t-34.5 -71.5q0 -42 34.5 -70.5t86.5 -28.5q51 0 86 28.5t35 70.5
q0 43 -35 71.5t-86 28.5zM754 169v90h343v-90h-343z" />
    <glyph glyph-name="trademark" unicode="&#x2122;" horiz-adv-x="677" 
d="M24 638v52h221v-52h-90v-242h-41v242h-90zM547 690h65v-294h-40v219h-7l-83 -170h-49l-83 170h-7v-219h-41v294h62l88 -178h8z" />
    <glyph glyph-name="uni2150" unicode="&#x2150;" horiz-adv-x="833" 
d="M136 276v340l-115 -55v70l121 59h42v-414h-48zM577 690h64l-484 -690h-63zM532 414h283v-47l-179 -367h-67l185 350h-222v64z" />
    <glyph glyph-name="uni2151" unicode="&#x2151;" horiz-adv-x="798" 
d="M136 276v340l-115 -55v70l121 59h42v-414h-48zM577 690h64l-484 -690h-63zM620 421q68 0 111 -49t43 -129q0 -112 -69 -180t-183 -68v64q83 0 136.5 41.5t61.5 110.5v2q-15 -28 -45 -45t-65 -17q-59 0 -97.5 37.5t-38.5 95.5t41.5 97.5t104.5 39.5zM619 215q42 0 70 20
t28 50t-27 50.5t-67 20.5q-42 0 -70.5 -20.5t-28.5 -50.5t27.5 -50t67.5 -20z" />
    <glyph glyph-name="uni2152" unicode="&#x2152;" horiz-adv-x="1099" 
d="M136 276v340l-115 -55v70l121 59h42v-414h-48zM577 690h64l-484 -690h-63zM907 421q70 0 114.5 -59.5t44.5 -154.5t-44.5 -154.5t-114.5 -59.5q-71 0 -116 60t-45 154t45 154t116 60zM501 355l121 59h42v-414h-48v340l-115 -55v70zM907 58q48 0 78.5 41.5t30.5 107.5
t-30.5 107.5t-78.5 41.5t-79.5 -41.5t-31.5 -107.5t31.5 -107.5t79.5 -41.5z" />
    <glyph glyph-name="uni2153" unicode="&#x2153;" horiz-adv-x="796" 
d="M136 276v340l-115 -55v70l121 59h42v-414h-48zM577 690h64l-484 -690h-63zM701 215q31 -14 48.5 -41.5t17.5 -60.5q0 -51 -41 -85.5t-102 -34.5q-60 0 -101.5 35.5t-41.5 88.5h50q0 -25 26.5 -42.5t65.5 -17.5q40 0 67 18t27 45q0 28 -24 46.5t-62 18.5h-64v58h64
q34 0 55.5 16.5t21.5 41.5q0 24 -24 40t-60 16t-59.5 -15.5t-23.5 -38.5h-50q0 51 38 84.5t95 33.5t95.5 -32.5t38.5 -80.5q0 -62 -57 -93z" />
    <glyph glyph-name="uni2154" unicode="&#x2154;" horiz-adv-x="886" 
d="M303 340v-64h-274v49l172 164q47 47 47 80q0 26 -23 43.5t-59 17.5t-59.5 -17.5t-23.5 -44.5h-50q0 55 38.5 92t94.5 37t94 -36t38 -90t-57 -111l-118 -120h180zM667 690h64l-484 -690h-63zM791 215q31 -14 48.5 -41.5t17.5 -60.5q0 -51 -41 -85.5t-102 -34.5
q-60 0 -101.5 35.5t-41.5 88.5h50q0 -25 26.5 -42.5t65.5 -17.5q40 0 67 18t27 45q0 28 -24 46.5t-62 18.5h-64v58h64q34 0 55.5 16.5t21.5 41.5q0 24 -24 40t-60 16t-59.5 -15.5t-23.5 -38.5h-50q0 51 38 84.5t95 33.5t95.5 -32.5t38.5 -80.5q0 -62 -57 -93z" />
    <glyph glyph-name="uni2155" unicode="&#x2155;" horiz-adv-x="814" 
d="M136 276v340l-115 -55v70l121 59h42v-414h-48zM577 690h64l-484 -690h-63zM651 264q60 0 100.5 -39t40.5 -97t-42 -96.5t-105 -38.5q-60 0 -101.5 35.5t-45.5 89.5h50q6 -27 33 -44t64 -17q41 0 69 21t28 52t-28 51.5t-69 20.5q-25 0 -50.5 -8.5t-37.5 -20.5h-50l20 241
h240v-64h-198l-9 -118q35 32 91 32z" />
    <glyph glyph-name="uni2156" unicode="&#x2156;" horiz-adv-x="904" 
d="M303 340v-64h-274v49l172 164q47 47 47 80q0 26 -23 43.5t-59 17.5t-59.5 -17.5t-23.5 -44.5h-50q0 55 38.5 92t94.5 37t94 -36t38 -90t-57 -111l-118 -120h180zM667 690h64l-484 -690h-63zM741 264q60 0 100.5 -39t40.5 -97t-42 -96.5t-105 -38.5q-60 0 -101.5 35.5
t-45.5 89.5h50q6 -27 33 -44t64 -17q41 0 69 21t28 52t-28 51.5t-69 20.5q-25 0 -50.5 -8.5t-37.5 -20.5h-50l20 241h240v-64h-198l-9 -118q35 32 91 32z" />
    <glyph glyph-name="uni2157" unicode="&#x2157;" horiz-adv-x="880" 
d="M312 389q0 -51 -41 -85.5t-102 -34.5q-60 0 -101.5 35.5t-41.5 88.5h50q0 -25 26.5 -42.5t65.5 -17.5q40 0 67 18t27 45q0 28 -24 46.5t-62 18.5h-64v58h64q34 0 55.5 16.5t21.5 41.5q0 24 -24 40t-60 16t-59.5 -15.5t-23.5 -38.5h-50q0 51 38 84.5t95 33.5t95.5 -32.5
t38.5 -80.5q0 -62 -57 -93q31 -14 48.5 -41.5t17.5 -60.5zM643 690h64l-484 -690h-63zM717 264q60 0 100.5 -39t40.5 -97t-42 -96.5t-105 -38.5q-60 0 -101.5 35.5t-45.5 89.5h50q6 -27 33 -44t64 -17q41 0 69 21t28 52t-28 51.5t-69 20.5q-25 0 -50.5 -8.5t-37.5 -20.5h-50
l20 241h240v-64h-198l-9 -118q35 32 91 32z" />
    <glyph glyph-name="uni2158" unicode="&#x2158;" horiz-adv-x="909" 
d="M226 276v87h-206v48l188 279h66v-264h56v-63h-56v-87h-48zM672 690h64l-484 -690h-63zM81 426h145v198zM746 264q60 0 100.5 -39t40.5 -97t-42 -96.5t-105 -38.5q-60 0 -101.5 35.5t-45.5 89.5h50q6 -27 33 -44t64 -17q41 0 69 21t28 52t-28 51.5t-69 20.5
q-25 0 -50.5 -8.5t-37.5 -20.5h-50l20 241h240v-64h-198l-9 -118q35 32 91 32z" />
    <glyph glyph-name="uni2159" unicode="&#x2159;" horiz-adv-x="749" 
d="M136 276v340l-115 -55v70l121 59h42v-414h-48zM577 690h64l-484 -690h-63zM594 263q58 0 96.5 -38.5t38.5 -94.5q0 -58 -41 -97.5t-104 -39.5q-68 0 -111 49t-43 129q0 107 69 177.5t176 70.5v-64q-77 0 -129 -41t-60 -108q37 57 108 57zM581 58q42 0 70 20.5t28 50.5
t-27.5 50t-67.5 20q-41 0 -69.5 -20t-28.5 -50t27.5 -50.5t67.5 -20.5z" />
    <glyph glyph-name="uni215A" unicode="&#x215a;" horiz-adv-x="826" 
d="M330 404q0 -58 -42 -96.5t-105 -38.5q-60 0 -101.5 35.5t-45.5 89.5h50q6 -27 33 -44t64 -17q41 0 69 21t28 52t-28 51.5t-69 20.5q-25 0 -50.5 -8.5t-37.5 -20.5h-50l20 241h240v-64h-198l-9 -118q35 32 91 32q60 0 100.5 -39t40.5 -97zM654 690h64l-484 -690h-63z
M671 263q58 0 96.5 -38.5t38.5 -94.5q0 -58 -41 -97.5t-104 -39.5q-68 0 -111 49t-43 129q0 107 69 177.5t176 70.5v-64q-77 0 -129 -41t-60 -108q37 57 108 57zM658 58q42 0 70 20.5t28 50.5t-27.5 50t-67.5 20q-41 0 -69.5 -20t-28.5 -50t27.5 -50.5t67.5 -20.5z" />
    <glyph glyph-name="oneeighth" unicode="&#x215b;" horiz-adv-x="809" 
d="M136 276v340l-115 -55v70l121 59h42v-414h-48zM577 690h64l-484 -690h-63zM711 215q70 -33 70 -102q0 -51 -43 -85.5t-106 -34.5q-62 0 -105 34.5t-43 85.5q0 69 69 102q-59 33 -59 94q0 47 40 79.5t98 32.5q60 0 99.5 -32t39.5 -80q0 -62 -60 -94zM632 356
q-37 0 -62.5 -15t-25.5 -38q0 -25 25 -41t63 -16t63.5 16t25.5 41q0 23 -25.5 38t-63.5 15zM632 58q43 0 71 17t28 43q0 28 -28 46t-71 18q-42 0 -70 -18t-28 -46q0 -26 28 -43t70 -17z" />
    <glyph glyph-name="threeeighths" unicode="&#x215c;" horiz-adv-x="875" 
d="M312 389q0 -51 -41 -85.5t-102 -34.5q-60 0 -101.5 35.5t-41.5 88.5h50q0 -25 26.5 -42.5t65.5 -17.5q40 0 67 18t27 45q0 28 -24 46.5t-62 18.5h-64v58h64q34 0 55.5 16.5t21.5 41.5q0 24 -24 40t-60 16t-59.5 -15.5t-23.5 -38.5h-50q0 51 38 84.5t95 33.5t95.5 -32.5
t38.5 -80.5q0 -62 -57 -93q31 -14 48.5 -41.5t17.5 -60.5zM643 690h64l-484 -690h-63zM777 215q70 -33 70 -102q0 -51 -43 -85.5t-106 -34.5q-62 0 -105 34.5t-43 85.5q0 69 69 102q-59 33 -59 94q0 47 40 79.5t98 32.5q60 0 99.5 -32t39.5 -80q0 -62 -60 -94zM698 356
q-37 0 -62.5 -15t-25.5 -38q0 -25 25 -41t63 -16t63.5 16t25.5 41q0 23 -25.5 38t-63.5 15zM698 58q43 0 71 17t28 43q0 28 -28 46t-71 18q-42 0 -70 -18t-28 -46q0 -26 28 -43t70 -17z" />
    <glyph glyph-name="fiveeighths" unicode="&#x215d;" horiz-adv-x="886" 
d="M330 404q0 -58 -42 -96.5t-105 -38.5q-60 0 -101.5 35.5t-45.5 89.5h50q6 -27 33 -44t64 -17q41 0 69 21t28 52t-28 51.5t-69 20.5q-25 0 -50.5 -8.5t-37.5 -20.5h-50l20 241h240v-64h-198l-9 -118q35 32 91 32q60 0 100.5 -39t40.5 -97zM654 690h64l-484 -690h-63z
M788 215q70 -33 70 -102q0 -51 -43 -85.5t-106 -34.5q-62 0 -105 34.5t-43 85.5q0 69 69 102q-59 33 -59 94q0 47 40 79.5t98 32.5q60 0 99.5 -32t39.5 -80q0 -62 -60 -94zM709 356q-37 0 -62.5 -15t-25.5 -38q0 -25 25 -41t63 -16t63.5 16t25.5 41q0 23 -25.5 38t-63.5 15z
M709 58q43 0 71 17t28 43q0 28 -28 46t-71 18q-42 0 -70 -18t-28 -46q0 -26 28 -43t70 -17z" />
    <glyph glyph-name="seveneighths" unicode="&#x215e;" horiz-adv-x="801" 
d="M130 276h-67l185 350h-222v64h283v-47zM569 690h64l-484 -690h-63zM703 215q70 -33 70 -102q0 -51 -43 -85.5t-106 -34.5q-62 0 -105 34.5t-43 85.5q0 69 69 102q-59 33 -59 94q0 47 40 79.5t98 32.5q60 0 99.5 -32t39.5 -80q0 -62 -60 -94zM624 356q-37 0 -62.5 -15
t-25.5 -38q0 -25 25 -41t63 -16t63.5 16t25.5 41q0 23 -25.5 38t-63.5 15zM624 58q43 0 71 17t28 43q0 28 -28 46t-71 18q-42 0 -70 -18t-28 -46q0 -26 28 -43t70 -17z" />
    <glyph glyph-name="uni215F" unicode="&#x215f;" horiz-adv-x="450" 
d="M136 276v340l-115 -55v70l121 59h42v-414h-48zM577 690h64l-484 -690h-63z" />
    <glyph glyph-name="uni2189" unicode="&#x2189;" horiz-adv-x="892" 
d="M352 483q0 -95 -44.5 -154.5t-114.5 -59.5q-71 0 -116 60t-45 154t45 154t116 60q70 0 114.5 -59.5t44.5 -154.5zM673 690h64l-484 -690h-63zM82 483q0 -66 31.5 -107.5t79.5 -41.5t78.5 41.5t30.5 107.5t-30.5 107.5t-78.5 41.5t-79.5 -41.5t-31.5 -107.5zM797 215
q31 -14 48.5 -41.5t17.5 -60.5q0 -51 -41 -85.5t-102 -34.5q-60 0 -101.5 35.5t-41.5 88.5h50q0 -25 26.5 -42.5t65.5 -17.5q40 0 67 18t27 45q0 28 -24 46.5t-62 18.5h-64v58h64q34 0 55.5 16.5t21.5 41.5q0 24 -24 40t-60 16t-59.5 -15.5t-23.5 -38.5h-50q0 51 38 84.5
t95 33.5t95.5 -32.5t38.5 -80.5q0 -62 -57 -93z" />
    <glyph glyph-name="arrowleft" unicode="&#x2190;" horiz-adv-x="665" 
d="M592 391v-92h-389l181 -163h-103l-208 209l208 209h103l-181 -163h389z" />
    <glyph glyph-name="arrowup" unicode="&#x2191;" horiz-adv-x="665" 
d="M533 405v-85l-166 149v-384h-69v383l-166 -148v85l201 200z" />
    <glyph glyph-name="arrowright" unicode="&#x2192;" horiz-adv-x="665" 
d="M383 554l209 -209l-209 -209h-103l181 163h-388v92h388l-181 163h103z" />
    <glyph glyph-name="arrowdown" unicode="&#x2193;" horiz-adv-x="665" 
d="M367 221l166 149v-85l-200 -200l-201 200v85l166 -148v383h69v-384z" />
    <glyph glyph-name="minus" unicode="&#x2212;" horiz-adv-x="534" 
d="M63 250v91h408v-91h-408z" />
    <glyph glyph-name="approxequal" unicode="&#x2248;" horiz-adv-x="553" 
d="M364 328q-42 0 -99 27t-80 27q-26 0 -43 -13.5t-17 -33.5h-62q0 65 32.5 105.5t93.5 40.5q42 0 99 -27.5t80 -27.5q26 0 43 13.5t17 33.5h62q0 -64 -32.5 -104.5t-93.5 -40.5zM364 117q-42 0 -99 27.5t-80 27.5q-26 0 -43 -13.5t-17 -33.5h-62q0 65 32.5 105t93.5 40
q42 0 99 -27t80 -27q26 0 43 13.5t17 33.5h62q0 -65 -32.5 -105.5t-93.5 -40.5z" />
    <glyph glyph-name="notequal" unicode="&#x2260;" horiz-adv-x="534" 
d="M471 344h-151l-45 -97h196v-91h-238l-36 -78h-60l36 78h-110v91h152l45 97h-197v91h239l35 77h60l-35 -77h109v-91z" />
    <glyph glyph-name="lessequal" unicode="&#x2264;" horiz-adv-x="464" 
d="M401 547v-100l-268 -79l268 -79v-100l-338 136v87zM63 46v91h338v-91h-338z" />
    <glyph glyph-name="greaterequal" unicode="&#x2265;" horiz-adv-x="464" 
d="M63 547l338 -135v-87l-338 -136v100l268 79l-268 79v100zM63 46v91h338v-91h-338z" />
    <glyph glyph-name="uni279D" unicode="&#x279d;" horiz-adv-x="1082" 
d="M1001 345l-209 -209v163h-711v92h711v163z" />
    <glyph glyph-name="uni27F5" unicode="&#x27f5;" horiz-adv-x="1082" 
d="M1001 391v-92h-789l181 -163h-103l-209 209l209 209h103l-181 -163h789z" />
    <glyph glyph-name="uni27F6" unicode="&#x27f6;" horiz-adv-x="1082" 
d="M792 554l209 -209l-209 -209h-103l181 163h-789v92h789l-181 163h103z" />
    <glyph glyph-name="A.swsh" unicode="&#xe008;" horiz-adv-x="723" 
d="M623 0l-69 162h-380l-69 -162h-85l241 590h-278q-70 0 -117 -37.5t-47 -93.5t47 -93.5t117 -37.5v-99q-100 0 -167.5 66t-67.5 164q0 99 67 165t168 66h438l281 -690h-79zM216 262h295l-133 312h-29z" />
    <glyph glyph-name="B.swsh" unicode="&#xe009;" horiz-adv-x="668" 
d="M513 364q56 -20 90 -68.5t34 -109.5q0 -80 -56 -133t-139 -53h-361v590h-169q-70 0 -117 -37.5t-47 -93.5t47 -93.5t117 -37.5v-99q-100 0 -167.5 66t-67.5 164q0 99 67 165t168 66h518q77 0 128.5 -49t51.5 -124q0 -51 -26 -92t-71 -61zM414 590h-259v-188h259
q51 0 85.5 27.5t34.5 69.5q0 40 -33.5 65.5t-86.5 25.5zM427 100q59 0 96 29t37 75q0 48 -37 78.5t-96 30.5h-272v-213h272z" />
    <glyph glyph-name="D.swsh" unicode="&#xe00a;" horiz-adv-x="741" 
d="M347 690q150 0 250 -98.5t100 -246.5t-100 -246.5t-250 -98.5h-266v590h-169q-70 0 -117 -37.5t-47 -93.5t47 -93.5t117 -37.5v-99q-100 0 -167.5 66t-67.5 164q0 99 67 165t168 66h435zM346 100q117 0 195.5 70t78.5 175t-78.5 175t-195.5 70h-191v-490h191z" />
    <glyph glyph-name="E.swsh" unicode="&#xe00b;" horiz-adv-x="613" 
d="M155 100h413v-100h-487v590h-169q-70 0 -117 -37.5t-47 -93.5t47 -93.5t117 -37.5v-99q-100 0 -167.5 66t-67.5 164q0 99 67 165t168 66h651v-100h-408v-195h375v-96h-375v-199z" />
    <glyph glyph-name="F.swsh" unicode="&#xe00c;" horiz-adv-x="573" 
d="M538 590h-383v-200h342v-99h-342v-291h-74v590h-169q-70 0 -117 -37.5t-47 -93.5t47 -93.5t117 -37.5v-99q-100 0 -167.5 66t-67.5 164q0 99 67 165t168 66h626v-100z" />
    <glyph glyph-name="H.swsh" unicode="&#xe00d;" horiz-adv-x="730" 
d="M575 690h74v-690h-74v294h-420v-294h-74v590h-169q-70 0 -117 -37.5t-47 -93.5t47 -93.5t117 -37.5v-99q-100 0 -167.5 66t-67.5 164q0 99 67 165t168 66h243v-290h420v290z" />
    <glyph glyph-name="I.swsh" unicode="&#xe00e;" horiz-adv-x="237" 
d="M155 690v-690h-74v590h-169q-70 0 -117 -37.5t-47 -93.5t47 -93.5t117 -37.5v-99q-100 0 -167.5 66t-67.5 164q0 99 67 165t168 66h243z" />
    <glyph glyph-name="K.swsh" unicode="&#xe00f;" horiz-adv-x="659" 
d="M561 0l-286 319l-120 -100v-219h-74v590h-169q-70 0 -117 -37.5t-47 -93.5t47 -93.5t117 -37.5v-99q-100 0 -167.5 66t-67.5 164q0 99 67 165t168 66h243v-327h25l338 327h130l-316 -319l323 -371h-94z" />
    <glyph glyph-name="L.swsh" unicode="&#xe010;" horiz-adv-x="548" 
d="M155 100h363v-100h-437v590h-169q-70 0 -117 -37.5t-47 -93.5t47 -93.5t117 -37.5v-99q-100 0 -167.5 66t-67.5 164q0 99 67 165t168 66h243v-590z" />
    <glyph glyph-name="M.swsh" unicode="&#xe011;" horiz-adv-x="855" 
d="M656 690h118v-690h-74v544h-23l-208 -403h-83l-207 403h-24v-544h-74v590h-169q-70 0 -117 -37.5t-47 -93.5t47 -93.5t117 -37.5v-99q-100 0 -167.5 66t-67.5 164q0 99 67 165t168 66h283l219 -405h23z" />
    <glyph glyph-name="N.swsh" unicode="&#xe012;" horiz-adv-x="739" 
d="M583 690h74v-690h-92l-392 532h-18v-532h-74v590h-169q-70 0 -117 -37.5t-47 -93.5t47 -93.5t117 -37.5v-99q-100 0 -167.5 66t-67.5 164q0 99 67 165t168 66h262l392 -532h17v532z" />
    <glyph glyph-name="P.swsh" unicode="&#xe013;" horiz-adv-x="648" 
d="M391 690q97 0 161.5 -63.5t64.5 -158.5t-64.5 -159t-161.5 -64h-236v-245h-74v590h-169q-70 0 -117 -37.5t-47 -93.5t47 -93.5t117 -37.5v-99q-100 0 -167.5 66t-67.5 164q0 99 67 165t168 66h479zM389 345q67 0 109.5 34.5t42.5 88.5t-42.5 88t-109.5 34h-234v-245h234z
" />
    <glyph glyph-name="R.swsh" unicode="&#xe014;" horiz-adv-x="658" 
d="M532 0l-179 245h-198v-245h-74v590h-169q-70 0 -117 -37.5t-47 -93.5t47 -93.5t117 -37.5v-99q-100 0 -167.5 66t-67.5 164q0 99 67 165t168 66h479q97 0 161.5 -63.5t64.5 -158.5q0 -82 -48.5 -141.5t-126.5 -76.5l182 -250h-92zM155 590v-245h234q67 0 109.5 34.5
t42.5 88.5t-42.5 88t-109.5 34h-234z" />
    <glyph glyph-name="T.swsh" unicode="&#xe015;" horiz-adv-x="606" 
d="M577 690v-100h-237v-590h-74v590h-278q-70 0 -117 -37.5t-47 -93.5t47 -93.5t117 -37.5v-99q-100 0 -167.5 66t-67.5 164q0 99 67 165t168 66h589z" />
    <glyph glyph-name="U.swsh" unicode="&#xe016;" horiz-adv-x="693" 
d="M553 690h74v-426q0 -118 -80.5 -197t-200.5 -79q-119 0 -199.5 79t-80.5 197v326h-166q-70 0 -117 -37.5t-47 -93.5t47 -93.5t117 -37.5v-99q-100 0 -167.5 66t-67.5 164q0 99 67 165t168 66h240v-424q0 -75 59 -125.5t147 -50.5q89 0 148 50.5t59 125.5v424z" />
    <glyph glyph-name="V.swsh" unicode="&#xe017;" horiz-adv-x="699" 
d="M592 690h87l-271 -690h-117l-231 590h-126q-70 0 -117 -37.5t-47 -93.5t47 -93.5t117 -37.5v-99q-100 0 -167.5 66t-67.5 164q0 99 67 165t168 66h166l233 -569h26z" />
    <glyph glyph-name="W.swsh" unicode="&#xe018;" horiz-adv-x="1070" 
d="M962 690h84l-228 -690h-96l-170 517h-34l-170 -517h-96l-194 590h-122q-70 0 -117 -37.5t-47 -93.5t47 -93.5t117 -37.5v-99q-100 0 -167.5 66t-67.5 164q0 99 67 165t168 66h168l185 -536h26l181 536h74l182 -536h25z" />
    <glyph glyph-name="Y.swsh" unicode="&#xe019;" horiz-adv-x="646" 
d="M547 690h90l-277 -446v-244h-74v244l-215 346h-117q-70 0 -117 -37.5t-47 -93.5t47 -93.5t117 -37.5v-99q-100 0 -167.5 66t-67.5 164q0 99 67 165t168 66h140l214 -320h25z" />
    <glyph glyph-name="uni00A40301" horiz-adv-x="560" 
d="M399 756l104 130h125l-134 -130h-95zM261 -12q-100 0 -167 65.5t-67 163.5h77q0 -55 45 -91t113 -36t113.5 36t45.5 91v473h74v-473q0 -98 -67 -163.5t-167 -65.5z" />
    <glyph glyph-name="J.ss02" horiz-adv-x="560" 
d="M495 690v-473q0 -98 -67 -163.5t-167 -65.5t-167 65.5t-67 163.5h77q0 -55 45 -91t113 -36t113.5 36t45.5 91v373h-241v100h315z" />
    <glyph glyph-name="uni00A40301.ss02" horiz-adv-x="560" 
d="M511 886l-134 -130h-95l104 130h125zM495 690v-473q0 -98 -67 -163.5t-167 -65.5t-167 65.5t-67 163.5h77q0 -55 45 -91t113 -36t113.5 36t45.5 91v373h-241v100h315z" />
    <glyph glyph-name="Jcircumflex.ss02" horiz-adv-x="560" 
d="M336 822l-66 -66h-88l100 130h108l100 -130h-81l-66 66h-7zM495 690v-473q0 -98 -67 -163.5t-167 -65.5t-167 65.5t-67 163.5h77q0 -55 45 -91t113 -36t113.5 36t45.5 91v373h-241v100h315z" />
    <glyph glyph-name="I.ss03" horiz-adv-x="385" 
d="M341 590h-111v-490h111v-100h-297v100h112v490h-112v100h297v-100z" />
    <glyph glyph-name="Iacute.ss03" horiz-adv-x="385" 
d="M368 886l-134 -130h-95l104 130h125zM44 590v100h297v-100h-111v-490h111v-100h-297v100h112v490h-112z" />
    <glyph glyph-name="Ibreve.ss03" horiz-adv-x="385" 
d="M193 746q-59 0 -99 39t-40 97h66q0 -25 21 -42t52 -17t52 17t21 42h66q0 -58 -40 -97t-99 -39zM341 590h-111v-490h111v-100h-297v100h112v490h-112v100h297v-100z" />
    <glyph glyph-name="Icircumflex.ss03" horiz-adv-x="385" 
d="M193 822l-66 -66h-88l100 130h108l100 -130h-81l-66 66h-7zM44 590v100h297v-100h-111v-490h111v-100h-297v100h112v490h-112z" />
    <glyph glyph-name="uni0208.ss03" horiz-adv-x="385" 
d="M142 756h-87l-106 130h110zM337 756h-87l-106 130h110zM341 590h-111v-490h111v-100h-297v100h112v490h-112v100h297v-100z" />
    <glyph glyph-name="Idieresis.ss03" horiz-adv-x="385" 
d="M89 760q-26 0 -43 16t-17 40t17 40t43 16t43 -16t17 -40q0 -23 -17.5 -39.5t-42.5 -16.5zM297 760q-25 0 -42.5 16.5t-17.5 39.5q0 24 17 40t43 16t43 -16t17 -40q0 -23 -17.5 -39.5t-42.5 -16.5zM44 590v100h297v-100h-111v-490h111v-100h-297v100h112v490h-112z" />
    <glyph glyph-name="Idotaccent.ss03" horiz-adv-x="385" 
d="M193 760q-27 0 -45 17t-18 41q0 25 18 42t45 17q26 0 44.5 -17t18.5 -42q0 -24 -18.5 -41t-44.5 -17zM341 590h-111v-490h111v-100h-297v100h112v490h-112v100h297v-100z" />
    <glyph glyph-name="uni1ECA.ss03" horiz-adv-x="385" 
d="M341 590h-111v-490h111v-100h-297v100h112v490h-112v100h297v-100zM193 -70q26 0 44.5 -17t18.5 -41q0 -25 -18.5 -42t-44.5 -17q-27 0 -45 17t-18 42q0 24 18 41t45 17z" />
    <glyph glyph-name="Igrave.ss03" horiz-adv-x="385" 
d="M248 756h-95l-134 130h125zM341 590h-111v-490h111v-100h-297v100h112v490h-112v100h297v-100z" />
    <glyph glyph-name="uni020A.ss03" horiz-adv-x="385" 
d="M193 810q-31 0 -52 -17t-21 -43h-66q0 58 40 97.5t99 39.5t99 -39.5t40 -97.5h-66q0 26 -21 43t-52 17zM341 590h-111v-490h111v-100h-297v100h112v490h-112v100h297v-100z" />
    <glyph glyph-name="Imacron.ss03" horiz-adv-x="385" 
d="M311 855v-83h-237v83h237zM341 590h-111v-490h111v-100h-297v100h112v490h-112v100h297v-100z" />
    <glyph glyph-name="Iogonek.ss03" horiz-adv-x="385" 
d="M288 -144q34 0 63 17v-74q-34 -22 -79 -22q-46 0 -77 28t-31 69q0 39 30.5 73t79.5 53h-230v100h112v490h-112v100h297v-100h-111v-490h111v-100h-1q-104 -47 -104 -102q0 -19 15.5 -30.5t36.5 -11.5z" />
    <glyph glyph-name="Itilde.ss03" horiz-adv-x="385" 
d="M135 808q-21 0 -34.5 -12t-13.5 -29h-64q0 52 27.5 86t74.5 34q33 0 69 -23t56 -23q21 0 35 12t14 30h64q0 -53 -28 -86.5t-74 -33.5q-33 0 -69.5 22.5t-56.5 22.5zM44 590v100h297v-100h-111v-490h111v-100h-297v100h112v490h-112z" />
    <glyph glyph-name="i.loclTRK" horiz-adv-x="214" 
d="M107 580q-27 0 -45 17t-18 41q0 25 18 42t45 17q26 0 44.5 -17t18.5 -42q0 -24 -18.5 -41t-44.5 -17zM73 0v510h68v-510h-68z" />
    <glyph glyph-name="uni006A0301" horiz-adv-x="221" 
d="M60 576l104 130h125l-134 -130h-95zM-35 -202v96q114 0 114 90v526h69v-534q0 -178 -183 -178z" />
    <glyph glyph-name="a.ss01" horiz-adv-x="590" 
d="M291 522q104 0 168.5 -52.5t64.5 -137.5v-332h-66v88q-25 -46 -78 -73t-121 -27q-92 0 -155.5 49t-63.5 121q0 74 63.5 123t155.5 49q65 0 116.5 -25t78.5 -68v84q0 48 -44.5 76t-118.5 28q-65 0 -108 -18.5t-54 -49.5h-71q13 74 76 119.5t157 45.5zM284 82
q73 0 121.5 22t48.5 54q0 34 -48.5 56t-121.5 22q-74 0 -122.5 -22t-48.5 -56q0 -32 49 -54t122 -22z" />
    <glyph glyph-name="aacute.ss01" horiz-adv-x="590" 
d="M468 706l-134 -130h-95l104 130h125zM291 522q104 0 168.5 -52.5t64.5 -137.5v-332h-66v88q-25 -46 -78 -73t-121 -27q-92 0 -155.5 49t-63.5 121q0 74 63.5 123t155.5 49q65 0 116.5 -25t78.5 -68v84q0 48 -44.5 76t-118.5 28q-65 0 -108 -18.5t-54 -49.5h-71
q13 74 76 119.5t157 45.5zM284 82q73 0 121.5 22t48.5 54q0 34 -48.5 56t-121.5 22q-74 0 -122.5 -22t-48.5 -56q0 -32 49 -54t122 -22z" />
    <glyph glyph-name="abreve.ss01" horiz-adv-x="590" 
d="M293 566q-59 0 -99 39t-40 97h66q0 -25 21 -42t52 -17t52 17t21 42h66q0 -58 -40 -97t-99 -39zM291 522q104 0 168.5 -52.5t64.5 -137.5v-332h-66v88q-25 -46 -78 -73t-121 -27q-92 0 -155.5 49t-63.5 121q0 74 63.5 123t155.5 49q65 0 116.5 -25t78.5 -68v84
q0 48 -44.5 76t-118.5 28q-65 0 -108 -18.5t-54 -49.5h-71q13 74 76 119.5t157 45.5zM284 82q73 0 121.5 22t48.5 54q0 34 -48.5 56t-121.5 22q-74 0 -122.5 -22t-48.5 -56q0 -32 49 -54t122 -22z" />
    <glyph glyph-name="uni01CE.ss01" horiz-adv-x="590" 
d="M348 576h-108l-100 130h88l66 -66h7l66 66h81zM291 522q104 0 168.5 -52.5t64.5 -137.5v-332h-66v88q-25 -46 -78 -73t-121 -27q-92 0 -155.5 49t-63.5 121q0 74 63.5 123t155.5 49q65 0 116.5 -25t78.5 -68v84q0 48 -44.5 76t-118.5 28q-65 0 -108 -18.5t-54 -49.5h-71
q13 74 76 119.5t157 45.5zM284 82q73 0 121.5 22t48.5 54q0 34 -48.5 56t-121.5 22q-74 0 -122.5 -22t-48.5 -56q0 -32 49 -54t122 -22z" />
    <glyph glyph-name="acircumflex.ss01" horiz-adv-x="590" 
d="M294 642l-66 -66h-88l100 130h108l100 -130h-81l-66 66h-7zM291 522q104 0 168.5 -52.5t64.5 -137.5v-332h-66v88q-25 -46 -78 -73t-121 -27q-92 0 -155.5 49t-63.5 121q0 74 63.5 123t155.5 49q65 0 116.5 -25t78.5 -68v84q0 48 -44.5 76t-118.5 28q-65 0 -108 -18.5
t-54 -49.5h-71q13 74 76 119.5t157 45.5zM284 82q73 0 121.5 22t48.5 54q0 34 -48.5 56t-121.5 22q-74 0 -122.5 -22t-48.5 -56q0 -32 49 -54t122 -22z" />
    <glyph glyph-name="uni0201.ss01" horiz-adv-x="590" 
d="M242 576h-87l-106 130h110zM437 576h-87l-106 130h110zM291 522q104 0 168.5 -52.5t64.5 -137.5v-332h-66v88q-25 -46 -78 -73t-121 -27q-92 0 -155.5 49t-63.5 121q0 74 63.5 123t155.5 49q65 0 116.5 -25t78.5 -68v84q0 48 -44.5 76t-118.5 28q-65 0 -108 -18.5
t-54 -49.5h-71q13 74 76 119.5t157 45.5zM284 82q73 0 121.5 22t48.5 54q0 34 -48.5 56t-121.5 22q-74 0 -122.5 -22t-48.5 -56q0 -32 49 -54t122 -22z" />
    <glyph glyph-name="adieresis.ss01" horiz-adv-x="590" 
d="M190 580q-26 0 -43 16t-17 40t17 40t43 16t43 -16t17 -40q0 -23 -17.5 -39.5t-42.5 -16.5zM398 580q-25 0 -42.5 16.5t-17.5 39.5q0 24 17 40t43 16t43 -16t17 -40q0 -23 -17.5 -39.5t-42.5 -16.5zM291 522q104 0 168.5 -52.5t64.5 -137.5v-332h-66v88q-25 -46 -78 -73
t-121 -27q-92 0 -155.5 49t-63.5 121q0 74 63.5 123t155.5 49q65 0 116.5 -25t78.5 -68v84q0 48 -44.5 76t-118.5 28q-65 0 -108 -18.5t-54 -49.5h-71q13 74 76 119.5t157 45.5zM284 82q73 0 121.5 22t48.5 54q0 34 -48.5 56t-121.5 22q-74 0 -122.5 -22t-48.5 -56
q0 -32 49 -54t122 -22z" />
    <glyph glyph-name="uni1EA1.ss01" horiz-adv-x="590" 
d="M291 522q104 0 168.5 -52.5t64.5 -137.5v-332h-66v88q-25 -46 -78 -73t-121 -27q-92 0 -155.5 49t-63.5 121q0 74 63.5 123t155.5 49q65 0 116.5 -25t78.5 -68v84q0 48 -44.5 76t-118.5 28q-65 0 -108 -18.5t-54 -49.5h-71q13 74 76 119.5t157 45.5zM284 82
q73 0 121.5 22t48.5 54q0 34 -48.5 56t-121.5 22q-74 0 -122.5 -22t-48.5 -56q0 -32 49 -54t122 -22zM294 -70q26 0 44.5 -17t18.5 -41q0 -25 -18.5 -42t-44.5 -17q-27 0 -45 17t-18 42q0 24 18 41t45 17z" />
    <glyph glyph-name="agrave.ss01" horiz-adv-x="590" 
d="M348 576h-95l-134 130h125zM291 522q104 0 168.5 -52.5t64.5 -137.5v-332h-66v88q-25 -46 -78 -73t-121 -27q-92 0 -155.5 49t-63.5 121q0 74 63.5 123t155.5 49q65 0 116.5 -25t78.5 -68v84q0 48 -44.5 76t-118.5 28q-65 0 -108 -18.5t-54 -49.5h-71q13 74 76 119.5
t157 45.5zM284 82q73 0 121.5 22t48.5 54q0 34 -48.5 56t-121.5 22q-74 0 -122.5 -22t-48.5 -56q0 -32 49 -54t122 -22z" />
    <glyph glyph-name="uni0203.ss01" horiz-adv-x="590" 
d="M293 630q-31 0 -52 -17t-21 -43h-66q0 58 40 97.5t99 39.5t99 -39.5t40 -97.5h-66q0 26 -21 43t-52 17zM291 522q104 0 168.5 -52.5t64.5 -137.5v-332h-66v88q-25 -46 -78 -73t-121 -27q-92 0 -155.5 49t-63.5 121q0 74 63.5 123t155.5 49q65 0 116.5 -25t78.5 -68v84
q0 48 -44.5 76t-118.5 28q-65 0 -108 -18.5t-54 -49.5h-71q13 74 76 119.5t157 45.5zM284 82q73 0 121.5 22t48.5 54q0 34 -48.5 56t-121.5 22q-74 0 -122.5 -22t-48.5 -56q0 -32 49 -54t122 -22z" />
    <glyph glyph-name="amacron.ss01" horiz-adv-x="590" 
d="M412 675v-83h-237v83h237zM291 522q104 0 168.5 -52.5t64.5 -137.5v-332h-66v88q-25 -46 -78 -73t-121 -27q-92 0 -155.5 49t-63.5 121q0 74 63.5 123t155.5 49q65 0 116.5 -25t78.5 -68v84q0 48 -44.5 76t-118.5 28q-65 0 -108 -18.5t-54 -49.5h-71q13 74 76 119.5
t157 45.5zM284 82q73 0 121.5 22t48.5 54q0 34 -48.5 56t-121.5 22q-74 0 -122.5 -22t-48.5 -56q0 -32 49 -54t122 -22z" />
    <glyph glyph-name="aogonek.ss01" horiz-adv-x="590" 
d="M477 -144q34 0 63 17v-74q-34 -22 -79 -22q-46 0 -77 28t-31 69q0 39 30.5 73t79.5 53h-5v88q-25 -46 -78 -73t-121 -27q-92 0 -155.5 49t-63.5 121q0 74 63.5 123t155.5 49q65 0 116.5 -25t78.5 -68v84q0 48 -44.5 76t-118.5 28q-65 0 -108 -18.5t-54 -49.5h-71
q13 74 76 119.5t157 45.5q104 0 168.5 -52.5t64.5 -137.5v-329h3l2 -3q-104 -47 -104 -102q0 -19 15.5 -30.5t36.5 -11.5zM284 82q73 0 121.5 22t48.5 54q0 34 -48.5 56t-121.5 22q-74 0 -122.5 -22t-48.5 -56q0 -32 49 -54t122 -22z" />
    <glyph glyph-name="aring.ss01" horiz-adv-x="590" 
d="M293 563q-38 0 -63.5 24.5t-25.5 61.5t25.5 61.5t63.5 24.5t64 -24.5t26 -61.5t-26 -61.5t-64 -24.5zM293 683q-18 0 -30.5 -9.5t-12.5 -24.5t12.5 -24.5t30.5 -9.5q19 0 31.5 9.5t12.5 24.5t-12.5 24.5t-31.5 9.5zM291 522q104 0 168.5 -52.5t64.5 -137.5v-332h-66v88
q-25 -46 -78 -73t-121 -27q-92 0 -155.5 49t-63.5 121q0 74 63.5 123t155.5 49q65 0 116.5 -25t78.5 -68v84q0 48 -44.5 76t-118.5 28q-65 0 -108 -18.5t-54 -49.5h-71q13 74 76 119.5t157 45.5zM284 82q73 0 121.5 22t48.5 54q0 34 -48.5 56t-121.5 22q-74 0 -122.5 -22
t-48.5 -56q0 -32 49 -54t122 -22z" />
    <glyph glyph-name="atilde.ss01" horiz-adv-x="590" 
d="M235 628q-21 0 -34.5 -12t-13.5 -29h-64q0 52 27.5 86t74.5 34q33 0 69 -23t56 -23q21 0 35 12t14 30h64q0 -53 -28 -86.5t-74 -33.5q-33 0 -69.5 22.5t-56.5 22.5zM291 522q104 0 168.5 -52.5t64.5 -137.5v-332h-66v88q-25 -46 -78 -73t-121 -27q-92 0 -155.5 49
t-63.5 121q0 74 63.5 123t155.5 49q65 0 116.5 -25t78.5 -68v84q0 48 -44.5 76t-118.5 28q-65 0 -108 -18.5t-54 -49.5h-71q13 74 76 119.5t157 45.5zM284 82q73 0 121.5 22t48.5 54q0 34 -48.5 56t-121.5 22q-74 0 -122.5 -22t-48.5 -56q0 -32 49 -54t122 -22z" />
    <glyph glyph-name="f_t.dlig" horiz-adv-x="730" 
d="M698 415h-166v-258q0 -61 80 -61h76v-96h-82q-143 0 -143 138v277h-247v-415h-69v415h-113v95h113v77q0 138 143 138h69v-94h-64q-79 0 -79 -64v-57h247v133l69 17v-150h166v-95z" />
    <glyph glyph-name="t_t.dlig" horiz-adv-x="710" 
d="M678 415h-166v-258q0 -61 80 -61h76v-96h-82q-142 0 -142 138v277h-245v-258q0 -61 80 -61h76v-96h-82q-143 0 -143 138v277h-110v95h110v133l69 17v-150h245v133l68 17v-150h166v-95z" />
    <glyph glyph-name="zero.zero" horiz-adv-x="643" 
d="M322 702q117 0 191 -99.5t74 -257.5t-74 -257.5t-191 -99.5q-118 0 -192 99.5t-74 257.5t74 257.5t192 99.5zM322 600q-83 0 -136 -71t-53 -184q0 -53 12 -97l323 267q-55 85 -146 85zM322 90q83 0 136 71t53 184q0 53 -12 96l-323 -266q54 -85 146 -85z" />
    <glyph glyph-name="zero.subs" horiz-adv-x="385" 
d="M193 -121q-71 0 -116 60t-45 154t45 154t116 60q70 0 114.5 -59.5t44.5 -154.5t-44.5 -154.5t-114.5 -59.5zM193 -56q48 0 78.5 41.5t30.5 107.5t-30.5 107.5t-78.5 41.5t-79.5 -41.5t-31.5 -107.5t31.5 -107.5t79.5 -41.5z" />
    <glyph glyph-name="one.subs" horiz-adv-x="235" 
d="M142 300h42v-414h-48v340l-115 -55v70z" />
    <glyph glyph-name="two.subs" horiz-adv-x="335" 
d="M123 -50h180v-64h-274v49l172 164q47 47 47 80q0 26 -23 43.5t-59 17.5t-59.5 -17.5t-23.5 -44.5h-50q0 55 38.5 92t94.5 37t94 -36t38 -90t-57 -111z" />
    <glyph glyph-name="three.subs" horiz-adv-x="341" 
d="M246 101q31 -14 48.5 -41.5t17.5 -60.5q0 -51 -41 -85.5t-102 -34.5q-60 0 -101.5 35.5t-41.5 88.5h50q0 -25 26.5 -42.5t65.5 -17.5q40 0 67 18t27 45q0 28 -24 46.5t-62 18.5h-64v58h64q34 0 55.5 16.5t21.5 41.5q0 24 -24 40t-60 16t-59.5 -15.5t-23.5 -38.5h-50
q0 51 38 84.5t95 33.5t95.5 -32.5t38.5 -80.5q0 -62 -57 -93z" />
    <glyph glyph-name="four.subs" horiz-adv-x="346" 
d="M330 36v-63h-56v-87h-48v87h-206v48l188 279h66v-264h56zM81 36h145v198z" />
    <glyph glyph-name="five.subs" horiz-adv-x="352" 
d="M189 150q60 0 100.5 -39t40.5 -97t-42 -96.5t-105 -38.5q-60 0 -101.5 35.5t-45.5 89.5h50q6 -27 33 -44t64 -17q41 0 69 21t28 52t-28 51.5t-69 20.5q-25 0 -50.5 -8.5t-37.5 -20.5h-50l20 241h240v-64h-198l-9 -118q35 32 91 32z" />
    <glyph glyph-name="six.subs" horiz-adv-x="345" 
d="M189 149q58 0 96.5 -38.5t38.5 -94.5q0 -58 -41 -97.5t-104 -39.5q-68 0 -111 49t-43 129q0 107 69 177.5t176 70.5v-64q-77 0 -129 -41t-60 -108q37 57 108 57zM176 -56q42 0 70 20.5t28 50.5t-27.5 50t-67.5 20q-41 0 -69.5 -20t-28.5 -50t27.5 -50.5t67.5 -20.5z" />
    <glyph glyph-name="seven.subs" horiz-adv-x="327" 
d="M26 300h283v-47l-179 -367h-67l185 350h-222v64z" />
    <glyph glyph-name="eight.subs" horiz-adv-x="355" 
d="M256 101q70 -33 70 -102q0 -51 -43 -85.5t-106 -34.5q-62 0 -105 34.5t-43 85.5q0 69 69 102q-59 33 -59 94q0 47 40 79.5t98 32.5q60 0 99.5 -32t39.5 -80q0 -62 -60 -94zM177 242q-37 0 -62.5 -15t-25.5 -38q0 -25 25 -41t63 -16t63.5 16t25.5 41q0 23 -25.5 38
t-63.5 15zM177 -56q43 0 71 17t28 43q0 28 -28 46t-71 18q-42 0 -70 -18t-28 -46q0 -26 28 -43t70 -17z" />
    <glyph glyph-name="nine.subs" horiz-adv-x="349" 
d="M170 307q68 0 111 -49t43 -129q0 -112 -69 -180t-183 -68v64q83 0 136.5 41.5t61.5 110.5v2q-15 -28 -45 -45t-65 -17q-59 0 -97.5 37.5t-38.5 95.5t41.5 97.5t104.5 39.5zM169 101q42 0 70 20t28 50t-27 50.5t-67 20.5q-42 0 -70.5 -20.5t-28.5 -50.5t27.5 -50t67.5 -20
z" />
    <glyph glyph-name="zero.dnom" horiz-adv-x="385" 
d="M193 -7q-71 0 -116 60t-45 154t45 154t116 60q70 0 114.5 -59.5t44.5 -154.5t-44.5 -154.5t-114.5 -59.5zM193 58q48 0 78.5 41.5t30.5 107.5t-30.5 107.5t-78.5 41.5t-79.5 -41.5t-31.5 -107.5t31.5 -107.5t79.5 -41.5z" />
    <glyph glyph-name="one.dnom" horiz-adv-x="235" 
d="M142 414h42v-414h-48v340l-115 -55v70z" />
    <glyph glyph-name="two.dnom" horiz-adv-x="335" 
d="M123 64h180v-64h-274v49l172 164q47 47 47 80q0 26 -23 43.5t-59 17.5t-59.5 -17.5t-23.5 -44.5h-50q0 55 38.5 92t94.5 37t94 -36t38 -90t-57 -111z" />
    <glyph glyph-name="three.dnom" horiz-adv-x="341" 
d="M246 215q31 -14 48.5 -41.5t17.5 -60.5q0 -51 -41 -85.5t-102 -34.5q-60 0 -101.5 35.5t-41.5 88.5h50q0 -25 26.5 -42.5t65.5 -17.5q40 0 67 18t27 45q0 28 -24 46.5t-62 18.5h-64v58h64q34 0 55.5 16.5t21.5 41.5q0 24 -24 40t-60 16t-59.5 -15.5t-23.5 -38.5h-50
q0 51 38 84.5t95 33.5t95.5 -32.5t38.5 -80.5q0 -62 -57 -93z" />
    <glyph glyph-name="four.dnom" horiz-adv-x="346" 
d="M330 150v-63h-56v-87h-48v87h-206v48l188 279h66v-264h56zM81 150h145v198z" />
    <glyph glyph-name="five.dnom" horiz-adv-x="352" 
d="M189 264q60 0 100.5 -39t40.5 -97t-42 -96.5t-105 -38.5q-60 0 -101.5 35.5t-45.5 89.5h50q6 -27 33 -44t64 -17q41 0 69 21t28 52t-28 51.5t-69 20.5q-25 0 -50.5 -8.5t-37.5 -20.5h-50l20 241h240v-64h-198l-9 -118q35 32 91 32z" />
    <glyph glyph-name="six.dnom" horiz-adv-x="345" 
d="M189 263q58 0 96.5 -38.5t38.5 -94.5q0 -58 -41 -97.5t-104 -39.5q-68 0 -111 49t-43 129q0 107 69 177.5t176 70.5v-64q-77 0 -129 -41t-60 -108q37 57 108 57zM176 58q42 0 70 20.5t28 50.5t-27.5 50t-67.5 20q-41 0 -69.5 -20t-28.5 -50t27.5 -50.5t67.5 -20.5z" />
    <glyph glyph-name="seven.dnom" horiz-adv-x="327" 
d="M26 414h283v-47l-179 -367h-67l185 350h-222v64z" />
    <glyph glyph-name="eight.dnom" horiz-adv-x="355" 
d="M256 215q70 -33 70 -102q0 -51 -43 -85.5t-106 -34.5q-62 0 -105 34.5t-43 85.5q0 69 69 102q-59 33 -59 94q0 47 40 79.5t98 32.5q60 0 99.5 -32t39.5 -80q0 -62 -60 -94zM177 356q-37 0 -62.5 -15t-25.5 -38q0 -25 25 -41t63 -16t63.5 16t25.5 41q0 23 -25.5 38
t-63.5 15zM177 58q43 0 71 17t28 43q0 28 -28 46t-71 18q-42 0 -70 -18t-28 -46q0 -26 28 -43t70 -17z" />
    <glyph glyph-name="nine.dnom" horiz-adv-x="349" 
d="M170 421q68 0 111 -49t43 -129q0 -112 -69 -180t-183 -68v64q83 0 136.5 41.5t61.5 110.5v2q-15 -28 -45 -45t-65 -17q-59 0 -97.5 37.5t-38.5 95.5t41.5 97.5t104.5 39.5zM169 215q42 0 70 20t28 50t-27 50.5t-67 20.5q-42 0 -70.5 -20.5t-28.5 -50.5t27.5 -50t67.5 -20
z" />
    <glyph glyph-name="zero.numr" horiz-adv-x="385" 
d="M193 269q-71 0 -116 60t-45 154t45 154t116 60q70 0 114.5 -59.5t44.5 -154.5t-44.5 -154.5t-114.5 -59.5zM193 334q48 0 78.5 41.5t30.5 107.5t-30.5 107.5t-78.5 41.5t-79.5 -41.5t-31.5 -107.5t31.5 -107.5t79.5 -41.5z" />
    <glyph glyph-name="one.numr" horiz-adv-x="235" 
d="M142 690h42v-414h-48v340l-115 -55v70z" />
    <glyph glyph-name="two.numr" horiz-adv-x="335" 
d="M123 340h180v-64h-274v49l172 164q47 47 47 80q0 26 -23 43.5t-59 17.5t-59.5 -17.5t-23.5 -44.5h-50q0 55 38.5 92t94.5 37t94 -36t38 -90t-57 -111z" />
    <glyph glyph-name="three.numr" horiz-adv-x="341" 
d="M246 491q31 -14 48.5 -41.5t17.5 -60.5q0 -51 -41 -85.5t-102 -34.5q-60 0 -101.5 35.5t-41.5 88.5h50q0 -25 26.5 -42.5t65.5 -17.5q40 0 67 18t27 45q0 28 -24 46.5t-62 18.5h-64v58h64q34 0 55.5 16.5t21.5 41.5q0 24 -24 40t-60 16t-59.5 -15.5t-23.5 -38.5h-50
q0 51 38 84.5t95 33.5t95.5 -32.5t38.5 -80.5q0 -62 -57 -93z" />
    <glyph glyph-name="four.numr" horiz-adv-x="346" 
d="M330 426v-63h-56v-87h-48v87h-206v48l188 279h66v-264h56zM81 426h145v198z" />
    <glyph glyph-name="five.numr" horiz-adv-x="352" 
d="M189 540q60 0 100.5 -39t40.5 -97t-42 -96.5t-105 -38.5q-60 0 -101.5 35.5t-45.5 89.5h50q6 -27 33 -44t64 -17q41 0 69 21t28 52t-28 51.5t-69 20.5q-25 0 -50.5 -8.5t-37.5 -20.5h-50l20 241h240v-64h-198l-9 -118q35 32 91 32z" />
    <glyph glyph-name="six.numr" horiz-adv-x="345" 
d="M189 539q58 0 96.5 -38.5t38.5 -94.5q0 -58 -41 -97.5t-104 -39.5q-68 0 -111 49t-43 129q0 107 69 177.5t176 70.5v-64q-77 0 -129 -41t-60 -108q37 57 108 57zM176 334q42 0 70 20.5t28 50.5t-27.5 50t-67.5 20q-41 0 -69.5 -20t-28.5 -50t27.5 -50.5t67.5 -20.5z" />
    <glyph glyph-name="seven.numr" horiz-adv-x="327" 
d="M26 690h283v-47l-179 -367h-67l185 350h-222v64z" />
    <glyph glyph-name="eight.numr" horiz-adv-x="355" 
d="M256 491q70 -33 70 -102q0 -51 -43 -85.5t-106 -34.5q-62 0 -105 34.5t-43 85.5q0 69 69 102q-59 33 -59 94q0 47 40 79.5t98 32.5q60 0 99.5 -32t39.5 -80q0 -62 -60 -94zM177 632q-37 0 -62.5 -15t-25.5 -38q0 -25 25 -41t63 -16t63.5 16t25.5 41q0 23 -25.5 38
t-63.5 15zM177 334q43 0 71 17t28 43q0 28 -28 46t-71 18q-42 0 -70 -18t-28 -46q0 -26 28 -43t70 -17z" />
    <glyph glyph-name="nine.numr" horiz-adv-x="349" 
d="M170 697q68 0 111 -49t43 -129q0 -112 -69 -180t-183 -68v64q83 0 136.5 41.5t61.5 110.5v2q-15 -28 -45 -45t-65 -17q-59 0 -97.5 37.5t-38.5 95.5t41.5 97.5t104.5 39.5zM169 491q42 0 70 20t28 50t-27 50.5t-67 20.5q-42 0 -70.5 -20.5t-28.5 -50.5t27.5 -50t67.5 -20
z" />
    <glyph glyph-name="exclamdown.case" horiz-adv-x="260" 
d="M130 566q-31 0 -52 18.5t-21 46.5t20.5 47t52.5 19t52.5 -19t20.5 -47t-21 -46.5t-52 -18.5zM94 0v170l11 322h50l12 -322v-170h-73z" />
    <glyph glyph-name="questiondown.case" horiz-adv-x="537" 
d="M279 566q-32 0 -53 18.5t-21 46.5t21 47t53 19q31 0 52 -19t21 -47t-21 -46.5t-52 -18.5zM278 -12q-94 0 -157 56.5t-63 141.5q0 43 19 76.5t46 55t54 41t46 44t19 54.5v32h73v-32q0 -40 -18.5 -72t-45 -53.5t-53.5 -41.5t-45.5 -45t-18.5 -55q0 -44 41.5 -72.5
t101.5 -28.5q62 0 104 30t42 74h76q0 -87 -63 -146t-158 -59z" />
    <glyph glyph-name="periodcentered.case" horiz-adv-x="275" 
d="M138 278q-32 0 -53.5 19t-21.5 48t21.5 48t53.5 19q31 0 52.5 -19t21.5 -48t-21.5 -48t-52.5 -19z" />
    <glyph glyph-name="bullet.case" horiz-adv-x="338" 
d="M169 247q-45 0 -75.5 28t-30.5 70t30.5 70t75.5 28q46 0 76 -28t30 -70t-30 -70t-76 -28z" />
    <glyph glyph-name="asterisk.case" horiz-adv-x="403" 
d="M251 540l97 -43l-33 -59l-72 46l-18 14l4 -22v-87h-55v87l4 22l-18 -14l-71 -46l-34 59l77 35l21 8l-21 8l-77 35l34 58l72 -46l17 -14l-4 22v87h55v-87l-3 -22l17 14l72 46l33 -58l-77 -36z" />
    <glyph glyph-name="slash.case" horiz-adv-x="500" 
d="M15 -105l400 900h70l-400 -900h-70z" />
    <glyph glyph-name="backslash.case" horiz-adv-x="500" 
d="M415 -105l-400 900h70l400 -900h-70z" />
    <glyph glyph-name="parenleft.case" horiz-adv-x="343" 
d="M228 -125q-64 85 -103 213.5t-39 256.5t39 256.5t103 213.5h100q-76 -85 -122.5 -213.5t-46.5 -256.5t46.5 -256.5t122.5 -213.5h-100z" />
    <glyph glyph-name="parenright.case" horiz-adv-x="343" 
d="M15 -125q76 85 122.5 213.5t46.5 256.5t-46.5 256.5t-122.5 213.5h100q64 -85 103 -213.5t39 -256.5t-39 -256.5t-103 -213.5h-100z" />
    <glyph glyph-name="braceleft.case" horiz-adv-x="399" 
d="M230 421q0 -25 -14.5 -45.5t-38.5 -29.5q53 -22 53 -76v-249q0 -22 18 -36.5t45 -14.5h78v-95h-92q-53 0 -86.5 34t-33.5 87v253q0 22 -15 35.5t-39 13.5h-39v95h39q24 0 39 13.5t15 35.5v252q0 53 33.5 87t86.5 34h92v-95h-78q-27 0 -45 -14.5t-18 -36.5v-248z" />
    <glyph glyph-name="braceright.case" horiz-adv-x="399" 
d="M294 393h39v-95h-39q-24 0 -39 -13.5t-15 -35.5v-253q0 -53 -33.5 -87t-86.5 -34h-92v95h78q27 0 45 14.5t18 36.5v249q0 54 53 76q-24 9 -38.5 29.5t-14.5 45.5v248q0 22 -18 36.5t-45 14.5h-78v95h92q53 0 86.5 -34t33.5 -87v-252q0 -22 15 -35.5t39 -13.5z" />
    <glyph glyph-name="bracketleft.case" horiz-adv-x="340" 
d="M312 720h-145v-750h145v-95h-216v940h216v-95z" />
    <glyph glyph-name="bracketright.case" horiz-adv-x="340" 
d="M28 815h216v-940h-216v95h145v750h-145v95z" />
    <glyph glyph-name="hyphen.case" horiz-adv-x="408" 
d="M63 298v96h282v-96h-282z" />
    <glyph glyph-name="endash.case" horiz-adv-x="608" 
d="M63 300v91h482v-91h-482z" />
    <glyph glyph-name="emdash.case" horiz-adv-x="1068" 
d="M63 300v91h942v-91h-942z" />
    <glyph glyph-name="guillemotleft.case" horiz-adv-x="637" 
d="M335 548l-197 -203l197 -203h-116l-166 203l166 203h116zM580 548l-197 -203l197 -203h-116l-166 203l166 203h116z" />
    <glyph glyph-name="guillemotright.case" horiz-adv-x="637" 
d="M175 548l167 -203l-167 -203h-115l196 203l-196 203h115zM421 548l166 -203l-166 -203h-116l197 203l-197 203h116z" />
    <glyph glyph-name="guilsinglleft.case" horiz-adv-x="392" 
d="M335 548l-197 -203l197 -203h-116l-166 203l166 203h116z" />
    <glyph glyph-name="guilsinglright.case" horiz-adv-x="392" 
d="M175 548l167 -203l-167 -203h-115l196 203l-196 203h115z" />
    <glyph glyph-name="plus.case" horiz-adv-x="534" 
d="M471 391v-91h-173v-159h-62v159h-173v91h173v158h62v-158h173z" />
    <glyph glyph-name="at.case" horiz-adv-x="841" 
d="M527 515h72v-232q0 -14 13.5 -23t35.5 -9q37 0 60 32t23 83q0 111 -88 185.5t-218 74.5q-133 0 -222 -80.5t-89 -200.5t89 -200.5t223 -80.5q123 0 208 45h92q-56 -62 -134.5 -96.5t-167.5 -34.5q-159 0 -265 105.5t-106 261.5t106.5 261t265.5 105q156 0 262 -99
t106 -247q0 -90 -40.5 -145.5t-109.5 -55.5q-41 0 -71 21.5t-41 56.5q-40 -80 -135 -80q-75 0 -124.5 52t-49.5 130t49 130.5t120 52.5q90 0 136 -83v71zM411 261q50 0 83 24t33 60q0 35 -33.5 59t-82.5 24q-48 0 -81.5 -24t-33.5 -59q0 -36 33.5 -60t81.5 -24z" />
    <glyph glyph-name="caroncomb.alt" 
d="M-61 732q28 0 44.5 -19t16.5 -50q0 -86 -46 -145h-77q56 46 76 113q-10 -2 -17 -2q-23 0 -39 14.5t-16 36.5t16.5 37t41.5 15z" />
    <glyph glyph-name="caron.alt" horiz-adv-x="123" 
d="M62 732q28 0 44.5 -19t16.5 -50q0 -86 -46 -145h-77q56 46 76 113q-10 -2 -17 -2q-23 0 -39 14.5t-16 36.5t16.5 37t41.5 15z" />
    </font>
</defs>
</svg>
